<svg id="logo_main" data-name="logo main" xmlns="http://www.w3.org/2000/svg" xmlns:xlink="http://www.w3.org/1999/xlink" width="266.702" height="176.746" viewBox="0 0 266.702 176.746">
  <defs>
    <clipPath id="clip-path">
      <path id="パス_891" data-name="パス 891" d="M151.033,48.414A16.107,16.107,0,1,0,167.14,32.287a16.118,16.118,0,0,0-16.107,16.126M112.924,0V32.054h-34.3V65.873h34.3v36.634H146.7v-33.4c-.305-.285-.621-.548-.918-.849-5.356-5.361-8.074-12.19-8.074-20.3a26.582,26.582,0,0,1,8.242-19.614c.242-.239.5-.443.75-.672V0Z" transform="translate(-78.622)" fill="none"/>
    </clipPath>
    <linearGradient id="linear-gradient" y1="1" x2="1" y2="1" gradientUnits="objectBoundingBox">
      <stop offset="0" stop-color="#0d81b0"/>
      <stop offset="0.002" stop-color="#0d81b0"/>
      <stop offset="0.304" stop-color="#0a859b"/>
      <stop offset="0.735" stop-color="#078a82"/>
      <stop offset="1" stop-color="#078c7a"/>
    </linearGradient>
  </defs>
  <path id="パス_883" data-name="パス 883" d="M10.245,120.482v10.256H0v6.718H10.245v10.257h6.77V137.456H27.2v-6.718H17.015V120.482Z" transform="translate(0 7.859)" fill="#221814"/>
  <g id="グループ_604" data-name="グループ 604" transform="translate(32.587 121.922)">
    <g id="グループ_608" data-name="グループ 608">
      <path id="パス_884" data-name="パス 884" d="M30.629,139.052a15.457,15.457,0,1,1,15.457,15.476,15.5,15.5,0,0,1-15.457-15.476m23.545,0c0-4.8-3.3-8.277-7.788-8.277-4.554,0-7.789,3.479-7.789,8.277s3.235,8.279,7.789,8.279c4.493,0,7.788-3.478,7.788-8.279" transform="translate(-30.629 -113.861)" fill="#221814"/>
      <path id="パス_885" data-name="パス 885" d="M91.72,137.314v16.737H83.872V137.5c0-4.02-2.577-6.839-6.231-6.839s-6.29,2.88-6.29,6.9v16.5H63.682V124.058h7.669v3a11.457,11.457,0,0,1,8.027-3.479c7.37,0,12.342,5.936,12.342,13.735" transform="translate(-28.516 -113.861)" fill="#221814"/>
      <path id="パス_886" data-name="パス 886" d="M125.058,144.233c-.539,1.382-5.033,9.959-15.458,9.959a15.7,15.7,0,0,1-14.379-9.9,14.693,14.693,0,0,1-1.078-5.578,15.432,15.432,0,0,1,30.853-.6,3.286,3.286,0,0,1,0,.78l-22.047,4.018a7.2,7.2,0,0,0,6.651,4.319c5.153,0,8.627-3.777,9.047-5.039ZM101.871,137.1l14.438-2.58a7.949,7.949,0,0,0-7.668-4.438,7.559,7.559,0,0,0-6.59,6.056Z" transform="translate(-26.568 -113.883)" fill="#221814"/>
      <path id="パス_887" data-name="パス 887" d="M139.861,148.593l4.854-4.381a13.577,13.577,0,0,0,8.687,3.66c2.935,0,4.793-.959,4.793-2.458,0-3.182-17.912-2.76-17.912-12.719,0-5.338,4.255-9.115,12.1-9.115a18.443,18.443,0,0,1,13.422,5.935l-4.854,4.381a13.822,13.822,0,0,0-8.747-3.659c-2.877,0-4.794.959-4.794,2.457,0,3.179,17.972,2.76,17.972,12.719,0,5.338-4.311,9.115-12.161,9.115a18.393,18.393,0,0,1-13.361-5.936" transform="translate(-23.645 -113.861)" fill="#221814"/>
      <path id="パス_888" data-name="パス 888" d="M187.59,151.526a12.162,12.162,0,0,1-8.448,3.6c-5.153,0-9.107-2.519-9.107-8.757V131.551h-3.654v-6.9h3.654V114.638l7.669-.182v10.2h7.071v6.9H177.7v12.478c0,2.459,1.438,3.957,3.116,3.957,2.036,0,3.474-1.619,3.474-2.578Z" transform="translate(-21.95 -114.456)" fill="#221814"/>
      <path id="パス_889" data-name="パス 889" d="M218.131,144.233c-.542,1.382-5.032,9.959-15.457,9.959a15.7,15.7,0,0,1-14.38-9.9,14.693,14.693,0,0,1-1.078-5.578,15.432,15.432,0,0,1,30.853-.6,3.286,3.286,0,0,1,0,.78l-22.047,4.018a7.2,7.2,0,0,0,6.652,4.319c5.152,0,8.625-3.777,9.046-5.039ZM194.943,137.1l14.438-2.58a7.948,7.948,0,0,0-7.669-4.438,7.555,7.555,0,0,0-6.587,6.056Z" transform="translate(-20.618 -113.883)" fill="#221814"/>
      <path id="パス_890" data-name="パス 890" d="M252.569,139.052a15.465,15.465,0,0,1-15.458,15.476,14.845,14.845,0,0,1-8.386-2.519v16.676h-7.668V124.057h7.668v1.98a15.475,15.475,0,0,1,23.844,13.015m-7.909,0c0-4.857-3.3-8.277-7.788-8.277-4.553,0-7.789,3.419-7.789,8.277,0,4.8,3.236,8.22,7.789,8.22,4.493,0,7.788-3.419,7.788-8.22" transform="translate(-18.454 -113.861)" fill="#221814"/>
    </g>
  </g>
  <g id="グループ_605" data-name="グループ 605" transform="translate(83.649)" clip-path="url(#clip-path)">
    <rect id="長方形_79" data-name="長方形 79" width="104.625" height="102.507" transform="translate(0)" fill="url(#linear-gradient)"/>
  </g>
</svg>
