<svg id="グループ_582" data-name="グループ 582" xmlns="http://www.w3.org/2000/svg" xmlns:xlink="http://www.w3.org/1999/xlink" width="167.105" height="130.009" viewBox="0 0 167.105 130.009">
  <defs>
    <clipPath id="clip-path">
      <rect id="長方形_88" data-name="長方形 88" width="18.891" height="22.4" fill="none"/>
    </clipPath>
  </defs>
  <g id="グループ_583" data-name="グループ 583" transform="translate(0 0)">
    <path id="パス_823" data-name="パス 823" d="M216.529,83.276V77.59L210.556,78.8l-54.6,11.084v5.569l5.973-1.2,54.6-10.978" transform="translate(-77.035 -38.325)" fill="#fff"/>
    <path id="パス_824" data-name="パス 824" d="M216.529,50.588V44.027l-6.068,1.407-54.5,12.643v5.277l5.973-1.259,54.6-11.507" transform="translate(-77.035 -21.747)" fill="#fff"/>
    <path id="パス_825" data-name="パス 825" d="M216.529,230.8v-20.6l-6.432.8-54.138,6.745V230.8h60.57Z" transform="translate(-77.035 -103.823)" fill="#fff"/>
    <path id="パス_826" data-name="パス 826" d="M216.529,182.74V175.6l-5.953.931-54.618,8.537v5.69l6.356-.841,54.214-7.174" transform="translate(-77.035 -86.736)" fill="#fff"/>
    <path id="パス_827" data-name="パス 827" d="M216.529,115.467v-6.059l-5.973,1.155-54.6,10.556v6.062l5.973-1.155,54.6-10.558" transform="translate(-77.035 -54.041)" fill="#fff"/>
    <path id="パス_828" data-name="パス 828" d="M216.529,15.242V6.9l-5.993,1.542L155.959,22.486v7.276l6.068-1.455,54.5-13.064" transform="translate(-77.035 -3.41)" fill="#fff"/>
    <path id="パス_829" data-name="パス 829" d="M216.529,148.592v-6.64l-5.878,1.091L155.959,153.2v5.332l5.878-.964,54.693-8.972" transform="translate(-77.035 -70.116)" fill="#fff"/>
    <path id="パス_830" data-name="パス 830" d="M281.65,45.567v6.112L303.065,63.42V58.489L281.65,45.567" transform="translate(-139.119 -22.508)" fill="#fff"/>
    <path id="パス_831" data-name="パス 831" d="M281.65,176.548v6.9l21.415,7.372v-5.563l-21.415-8.708" transform="translate(-139.119 -87.205)" fill="#fff"/>
    <path id="パス_832" data-name="パス 832" d="M281.65,8.645v7.813L298.3,26.842c1.477.922,3.192,1.782,4.761,2.76V22.977L281.65,8.645" transform="translate(-139.119 -4.27)" fill="#fff"/>
    <path id="パス_833" data-name="パス 833" d="M303.065,219.038v-1.154l-21.415-6.941v20.224h21.415Z" transform="translate(-139.119 -104.194)" fill="#fff"/>
    <path id="パス_834" data-name="パス 834" d="M281.65,143.124v6.338l21.415,9.139v-5.135L281.65,143.124" transform="translate(-139.119 -70.695)" fill="#fff"/>
    <path id="パス_835" data-name="パス 835" d="M281.65,110.642v5.751l21.415,10.773v-5.753L281.65,110.642" transform="translate(-139.119 -54.651)" fill="#fff"/>
    <path id="パス_836" data-name="パス 836" d="M303.065,90.211,281.65,78.9v5.345l21.415,11.2V90.211Z" transform="translate(-139.119 -38.973)" fill="#fff"/>
    <path id="パス_837" data-name="パス 837" d="M241.054,17.9c-.29-1.55-2.473-2.462-3.679-3.27l-8.466-5.665L215.85.224a1.332,1.332,0,0,0-1.181-.15L158.989,14.4l-7.915,2.036a1.544,1.544,0,0,0-1.114,1.464V128.491a1.54,1.54,0,0,0,1.518,1.518h88.058a1.54,1.54,0,0,0,1.518-1.518V30.052c0-.5.027-.958,0-1.381v-6.02a27.292,27.292,0,0,0,0-4.752m-81.626,92.179-6.432.8v-3.823l54.214-7.174,6.356-.841v4.292l-54.138,6.745M216.6,99.447l21.415,7.372V110.5L216.6,103.56ZM153,44.706l54.6-11.507,5.973-1.259v4.234l-54.6,11.085L153,48.47Zm0,15.515,54.6-10.978,5.973-1.2v4.242l-54.6,10.556L153,63.993Zm0,16,54.6-10.558,5.973-1.155v4.248L158.873,78.912,153,80Zm0,15.25L207.688,82.5l5.878-.964v4.272l-54.618,8.537-5.953.93ZM216.6,86.087V82.044l21.415,9.139V94.8L216.6,86.087m0-7.32V72.429l21.415,10.342v5.135L216.6,78.768m0-9.7V65.135l21.415,10.773v3.5L216.6,69.067m0-7.325V55.991l21.415,10.771v5.753L216.6,61.742m0-9.143V48.7l21.415,11.2V63.37L216.6,52.6m0-7.325V39.928l21.415,11.31v5.237L216.6,45.273m0-8.777V32.634l21.415,11.742v3.432L216.6,36.5m0-7.325V23.06l21.415,12.923v4.931L216.6,29.172M153,31.547V29.473l54.5-13.064,6.068-1.455v4.211l-54.5,12.643L153,33.215Zm0,4.784,54.5-12.643,6.068-1.407v6.561l-54.6,11.507L153,41.608Zm0,15.232,54.6-11.084,5.973-1.213v5.686l-54.6,10.978L153,57.131Zm0,15.515,54.6-10.555,5.973-1.155v6.06l-54.6,10.558L153,73.14Zm0,16,54.693-10.154,5.878-1.091v6.64l-54.693,8.972L153,88.413Zm0,15.25,54.618-8.537,5.953-.93V96l-54.214,7.174L153,104.02ZM216.6,96.241v-6.9l21.415,8.708v5.563L216.6,96.241m0-76.728V15.765l21.415,13.353v3.317L216.6,19.513m16.654,3.059L216.6,12.188V4.375l21.415,14.332v6.625c-1.569-.978-3.284-1.838-4.761-2.76M153,19.076,207.573,5.035l5.993-1.542v8.339L159.063,24.9,153,26.352Zm0,94.84,54.138-6.745,6.432-.8v20.6H153Zm63.607-7.167,21.415,6.941v13.283H216.6Z" transform="translate(-74.071 0)" fill="#323232"/>
    <path id="パス_838" data-name="パス 838" d="M216.529,165.394v-4.272l-5.878.964-54.693,8.972v3.8l5.953-.93,54.618-8.537" transform="translate(-77.035 -79.585)" fill="#b9e6d3"/>
    <path id="パス_839" data-name="パス 839" d="M210.173,196.552l-54.214,7.174v3.823l6.432-.8L216.529,200v-4.292l-6.356.841" transform="translate(-77.035 -96.67)" fill="#b9e6d3"/>
    <path id="パス_840" data-name="パス 840" d="M216.529,131.724v-4.248l-5.973,1.155-54.6,10.559v3.779l5.878-1.091,54.693-10.154" transform="translate(-77.035 -62.966)" fill="#b9e6d3"/>
    <path id="パス_841" data-name="パス 841" d="M216.529,99.174V94.932l-5.973,1.2-54.6,10.979v3.773l5.973-1.155,54.6-10.556" transform="translate(-77.035 -46.891)" fill="#b9e6d3"/>
    <path id="パス_842" data-name="パス 842" d="M216.529,67.347V63.113l-5.973,1.259-54.6,11.507v3.765l5.973-1.213,54.6-11.084" transform="translate(-77.035 -31.174)" fill="#b9e6d3"/>
    <path id="パス_843" data-name="パス 843" d="M216.529,33.761V29.55L210.462,31l-54.5,13.065v3.742l6.068-1.408,54.5-12.642" transform="translate(-77.035 -14.596)" fill="#b9e6d3"/>
    <path id="パス_844" data-name="パス 844" d="M281.65,162.122v4.044l21.415,8.707v-3.613l-21.415-9.139" transform="translate(-139.119 -80.079)" fill="#b9e6d3"/>
    <path id="パス_845" data-name="パス 845" d="M303.065,203.885l-21.415-7.372v4.113l21.415,6.941Z" transform="translate(-139.119 -97.066)" fill="#b9e6d3"/>
    <path id="パス_846" data-name="パス 846" d="M281.65,128.71v3.933l21.415,10.342v-3.5L281.65,128.71" transform="translate(-139.119 -63.576)" fill="#b9e6d3"/>
    <path id="パス_847" data-name="パス 847" d="M281.65,96.227v3.9l21.415,10.77v-3.471l-21.415-11.2" transform="translate(-139.119 -47.531)" fill="#b9e6d3"/>
    <path id="パス_848" data-name="パス 848" d="M281.65,64.485v3.864l21.415,11.31V76.227L281.65,64.485" transform="translate(-139.119 -31.852)" fill="#b9e6d3"/>
    <path id="パス_849" data-name="パス 849" d="M281.65,31.152V34.9l21.415,12.922V44.505L281.65,31.152" transform="translate(-139.119 -15.387)" fill="#b9e6d3"/>
    <path id="パス_850" data-name="パス 850" d="M92.659,186.228V141.207l-17.237-9.2v59.267H92.659Z" transform="translate(-37.254 -65.206)" fill="#fff"/>
    <path id="パス_851" data-name="パス 851" d="M42.163,241.532l-8.848.651V245.2h8.848Z" transform="translate(-16.456 -119.303)" fill="#fff"/>
    <path id="パス_852" data-name="パス 852" d="M6,176.5l2.977-1.259V159.087L6,160.346Z" transform="translate(-2.964 -78.58)" fill="#fff"/>
    <path id="パス_853" data-name="パス 853" d="M44.237,190.867V131.18l-25.8,8.659v51.028h4.493v-4.6a1.55,1.55,0,0,1,1.518-1.518l11.885-.873a1.53,1.53,0,0,1,1.518,1.518v5.473Zm-24.468-47.7a1.558,1.558,0,0,1,1.115-1.464L39.8,135.72a1.532,1.532,0,0,1,1.922,1.464v5.568a1.389,1.389,0,0,1-.509,1.124,1.536,1.536,0,0,1-.606.34L21.691,149.9a1.533,1.533,0,0,1-1.922-1.464Zm0,10.249a1.548,1.548,0,0,1,1.115-1.464l18.92-5.188a1.534,1.534,0,0,1,1.922,1.464v5.568a1.5,1.5,0,0,1-.166.7,1.364,1.364,0,0,1-.949.763l-18.92,4.891a1.535,1.535,0,0,1-1.922-1.464Zm0,10.322a1.538,1.538,0,0,1,1.115-1.464l18.92-4.3a1.537,1.537,0,0,1,1.922,1.464V165a1.633,1.633,0,0,1-.049.39,1.272,1.272,0,0,1-1.066,1.073l-18.92,4.007a1.539,1.539,0,0,1-1.922-1.464Zm1.922,16.978a1.544,1.544,0,0,1-1.922-1.464v-5.272a1.527,1.527,0,0,1,1.115-1.464l18.92-3.217a1.542,1.542,0,0,1,1.922,1.464v5.568a1.634,1.634,0,0,1-.022.217,1.192,1.192,0,0,1-1.093,1.247l-18.92,2.921" transform="translate(-9.106 -64.796)" fill="#fff"/>
    <path id="パス_854" data-name="パス 854" d="M57.689,135.022,37.415,124.208c-.027-.015-.055-.025-.083-.037a1.341,1.341,0,0,0-1.087-.115L7.408,133.733A1.563,1.563,0,0,0,6.293,135.2v3.164L.751,140.705A1.485,1.485,0,0,0,0,142.016v19.426a1.54,1.54,0,0,0,2.284,1.311l4.009-1.7v27.776a1.54,1.54,0,0,0,1.518,1.518H56.923a1.4,1.4,0,0,0,1.027-.406c.018-.015.034-.033.052-.049s.019-.019.028-.029a1.4,1.4,0,0,0,.412-1.034v-52.5a1.513,1.513,0,0,0-.752-1.311m-40.83,49.1,8.848-.65v3.668H16.859Zm10.367-3.8-11.885.874a1.549,1.549,0,0,0-1.518,1.518v4.6H9.33V136.286l25.8-8.659v59.687H28.744v-5.473a1.531,1.531,0,0,0-1.518-1.518M6.012,157.905l-2.976,1.259V143.009l2.976-1.259Zm32.155-24.493v-5.365l17.237,9.2v50.072H38.167Z" transform="translate(0 -61.243)" fill="#323232"/>
    <path id="パス_855" data-name="パス 855" d="M42.955,212.929l-15.885,2.7v2.237l15.885-2.452Z" transform="translate(-13.371 -105.175)" fill="#b9e6d3"/>
    <path id="パス_856" data-name="パス 856" d="M43.006,213.719a1.635,1.635,0,0,0,.022-.217v-5.568a1.542,1.542,0,0,0-1.922-1.464l-18.92,3.217a1.526,1.526,0,0,0-1.115,1.464v5.272a1.544,1.544,0,0,0,1.922,1.464l18.92-2.921a1.192,1.192,0,0,0,1.093-1.247m-18.9-1.293,15.885-2.7v2.486l-15.885,2.452Z" transform="translate(-10.407 -101.971)" fill="#323232"/>
    <path id="パス_857" data-name="パス 857" d="M42.955,190.762,27.07,194.375v2.191L42.955,193.2Z" transform="translate(-13.371 -94.226)" fill="#b9e6d3"/>
    <path id="パス_858" data-name="パス 858" d="M22.992,196.576l18.92-4.007a1.273,1.273,0,0,0,1.066-1.073,1.634,1.634,0,0,0,.049-.391v-5.568a1.537,1.537,0,0,0-1.922-1.464l-18.92,4.3a1.538,1.538,0,0,0-1.115,1.464v5.272a1.539,1.539,0,0,0,1.922,1.464m1.114-5.526,15.885-3.613v2.439l-15.885,3.364Z" transform="translate(-10.407 -90.901)" fill="#323232"/>
    <path id="パス_859" data-name="パス 859" d="M42.955,168.8,27.07,173.151V175.3L42.955,171.2Z" transform="translate(-13.371 -83.376)" fill="#b9e6d3"/>
    <path id="パス_860" data-name="パス 860" d="M22.992,175.3l18.92-4.892a1.365,1.365,0,0,0,.949-.762,1.5,1.5,0,0,0,.166-.7v-5.569a1.534,1.534,0,0,0-1.922-1.464L22.185,167.1a1.548,1.548,0,0,0-1.115,1.464v5.272a1.535,1.535,0,0,0,1.922,1.464m1.114-5.578,15.885-4.355v2.4l-15.885,4.106Z" transform="translate(-10.407 -79.952)" fill="#323232"/>
    <path id="パス_861" data-name="パス 861" d="M42.955,147.138l-15.885,5.02v2.119l15.885-4.771Z" transform="translate(-13.371 -72.678)" fill="#b9e6d3"/>
    <path id="パス_862" data-name="パス 862" d="M22.992,154.269l18.92-5.683a1.525,1.525,0,0,0,.606-.34,1.386,1.386,0,0,0,.509-1.124v-5.568a1.532,1.532,0,0,0-1.922-1.464l-18.92,5.979a1.558,1.558,0,0,0-1.115,1.464v5.272a1.533,1.533,0,0,0,1.922,1.464m1.114-5.624,15.885-5.02v2.367l-15.885,4.771Z" transform="translate(-10.407 -69.165)" fill="#323232"/>
  </g>
  <g id="グループ_623" data-name="グループ 623" transform="translate(48.329 9.702)">
    <g id="グループ_623-2" data-name="グループ 623" transform="translate(0 0)" clip-path="url(#clip-path)">
      <path id="パス_961" data-name="パス 961" d="M12.206,15.493c.839-2.283,3.6-2.785,5.66-3.517a1.453,1.453,0,0,0-.384-2.838c-1.634-.188-3.758-.207-5.015-1.43-1.152-1.121-1.217-3.067-1.317-4.571.026-.585.034-1.168.035-1.741a1.446,1.446,0,0,0-2.89,0c0,.4,0,.815,0,1.234a1.472,1.472,0,0,0-.037.429c.006.089.013.177.019.266A6.771,6.771,0,0,1,7.057,7.389C5.7,9.088,3.41,9.21,1.392,9.309a1.446,1.446,0,0,0,0,2.89c2.658.331,4.824.7,5.75,3.492a39.643,39.643,0,0,1,1.146,5.676,1.456,1.456,0,0,0,2.787,0c.4-1.932.447-4.012,1.13-5.873M7.279,10.932a6.562,6.562,0,0,0,1.73-1.339A6.854,6.854,0,0,0,9.65,8.77a5.663,5.663,0,0,0,2.725,2.273,6.332,6.332,0,0,0-2.064,1.816,6.807,6.807,0,0,0-.659,1.191,8.637,8.637,0,0,0-.864-1.63,5.575,5.575,0,0,0-1.51-1.489" transform="translate(0 0)" fill="#2e2e2e"/>
    </g>
  </g>
</svg>
