<svg xmlns="http://www.w3.org/2000/svg" width="200.328" height="152.409" viewBox="0 0 200.328 152.409">
  <g id="グループ_576" data-name="グループ 576" transform="translate(0 0)">
    <g id="グループ_577" data-name="グループ 577">
      <path id="パス_764" data-name="パス 764" d="M355.37,247.242c-1.151.132-1.588-.914-1.334-1.8h-.517A1.4,1.4,0,0,1,352.1,247H332.355a1.38,1.38,0,0,1-1.418-1.381h-1.928c.251.5.5.977.752,1.411,1.218,2.092,2.505,4.6.185,6.434a4.092,4.092,0,0,1-1.443.755h11.563c.352,0,.7,0,1.056,0a15.379,15.379,0,0,1,2.536.067,17.144,17.144,0,0,0,2.621-1.462l3.632-1.925,3.959-2.1a1.4,1.4,0,0,1,1.513.079l1.9-1.826.324-.569a4.964,4.964,0,0,1-2.233.755" transform="translate(-166.859 -124.67)" fill="#fff"/>
      <path id="パス_765" data-name="パス 765" d="M237.988,238.98a39.52,39.52,0,0,0-5.087-4.863c-2.468-1.805-5.265-1.429-7.949-.408-5.611,2.133-10.333,6.289-16.555,6.421a1.417,1.417,0,0,1-.72-.169q.677,3.279,1.375,6.551l15.9-2.718a23.632,23.632,0,0,1,2.634-.45c1.556-.083,2.686,1.092,3.591,2.274a13.79,13.79,0,0,1,1.4,2.272c.281-.215.565-.424.853-.621a1.412,1.412,0,0,1,.312-2.232,16.3,16.3,0,0,0,5.093-4.675,8.3,8.3,0,0,0,.658-1.042,1.29,1.29,0,0,1-1.5-.341m-1.43,1.469c-.44,2.16-2.4,2.918-4.229,3.652-1.549.622-2.323-1.5-1.314-2.5a1.572,1.572,0,0,1,.529-.345c.684-.275,3.527-1.753,1.5-2.329-.927-.263-2.636.475-3.533.717-.045.012-.088.027-.133.039-1.478.409-2.892.969-4.329,1.507-1.508.565-2.294-1.458-1.436-2.467l2.39-2.81a1.41,1.41,0,0,1,2.439.889,14.411,14.411,0,0,1,4.744-.832,3.74,3.74,0,0,1,3.376,4.481" transform="translate(-105.486 -118.275)" fill="#fff"/>
      <path id="パス_766" data-name="パス 766" d="M249.164,260.041c.2.094.342-.048,0,0" transform="translate(-126.56 -132.079)" fill="#78c8e6"/>
      <path id="パス_767" data-name="パス 767" d="M291.869,245.807c-.595-1.069-1.292-2.078-1.878-3.152-.055-.1-.113-.207-.172-.317h0c-.928-1.716-2.387-4.365-4.416-2.163a1.5,1.5,0,0,1-2.467-.651c-.45-1.067-2.325-.167-3.277.651a1.5,1.5,0,0,1-2.319-.3c-.948-1.354-2.211-1.051-3.186.059a1.5,1.5,0,0,1-2.319-.3c-.745-.991-2.012.051-2.544,1.245a20.522,20.522,0,0,1-2.325,4.26,19.529,19.529,0,0,1-6.034,5.556,1.382,1.382,0,0,1-1.8-.318c-.288.2-.572.405-.853.621a17.579,17.579,0,0,1,.585,13.421,8.381,8.381,0,0,0,3.935-1.975,1.453,1.453,0,0,1,.588-2.481c5.517-1.368,10.694-3.233,14.606-7.515,2.5-2.742,4.422-6.457,7.237-8.869,3.055-2.618,3.856,3.331,5.916,4.206,2.081.883,1.261-1.021.727-1.981" transform="translate(-131.188 -121.386)" fill="#fff"/>
      <path id="パス_768" data-name="パス 768" d="M248.752,226.155a1.713,1.713,0,0,1-.937-.468l-.106.565.113-.018a9.254,9.254,0,0,1,.93-.079" transform="translate(-125.821 -114.635)" fill="#78c8e6"/>
      <path id="パス_769" data-name="パス 769" d="M311.283,258.829h4.137a5.307,5.307,0,0,1-2.573-1.779,22.71,22.71,0,0,1-1.976-2.538c-1.587,1.853-3,3.861-4.536,5.756h3.524a1.391,1.391,0,0,1,1.423-1.439" transform="translate(-155.6 -129.276)" fill="#fff"/>
      <path id="パス_770" data-name="パス 770" d="M156.57,18.638a1.413,1.413,0,0,1-1.973-.5C147.378,6.152,129.3,1.756,118.809,12a23.969,23.969,0,0,0-6.09,8.792c-1.332,3.761-.059,6.457,1.082,10.055a62.951,62.951,0,0,1,2.689,12.362c1.25.419,2.492.869,3.728,1.326,2.143-4.547,4.635-9.991,10.461-8.462a1.41,1.41,0,0,1,.678.391,10.465,10.465,0,0,1,.995-5.019c1.74-3.489,5.762-3.988,7.924-1.373a27.07,27.07,0,0,0,6.343-7.181c.99-1.621,3.542-.136,2.549,1.49-.072.118-.151.23-.224.347a11.429,11.429,0,0,0,5.973-4.224,1.336,1.336,0,0,1,2.294.448c.128-.1.251-.2.37-.3-.313-.673-.659-1.337-1.01-2.007" transform="translate(-56.965 -3.187)" fill="#d5d5d5"/>
      <path id="パス_771" data-name="パス 771" d="M198.723,35.477c-.119.106-.242.209-.37.3a1.5,1.5,0,0,1-.207,1.64,15.44,15.44,0,0,1-5,4.138,1.877,1.877,0,0,1,.8.169,14.258,14.258,0,0,1,3.576,1.927,13.172,13.172,0,0,0,.9-4.083,1.425,1.425,0,0,1,1.282-1.4,14.07,14.07,0,0,0-.981-2.691" transform="translate(-98.107 -18.02)" fill="#fff"/>
      <path id="パス_772" data-name="パス 772" d="M153.833,63.972a16.736,16.736,0,0,1-1.1-3.479,12.9,12.9,0,0,1,.578-6.946c.034-.1.071-.19.106-.285a1.434,1.434,0,0,1-.589-.38,10.183,10.183,0,0,0-3.393-1.856,1.488,1.488,0,0,1-.529-2.02,1.468,1.468,0,0,1,.178-.244,12.873,12.873,0,0,1-4.39.815,31.415,31.415,0,0,1-5.278,4.993,1.458,1.458,0,0,1-.382.2,1.579,1.579,0,0,1-2.51-.625c-.682-1.894-2.414-1.48-3.269-.078a6.324,6.324,0,0,0-.765,2.816,8.121,8.121,0,0,0,1.655,5.907c1.274,1.405-.809,3.5-2.088,2.087a10.411,10.411,0,0,1-2.394-5.132,1.379,1.379,0,0,1-1.646.746c-2.889-.758-3.919,1.2-5.216,3.51-.862,1.538-1.666,3.111-2.435,4.7a1.477,1.477,0,0,1-1.667.679c-1.526-.564-3.054-1.134-4.595-1.658q-1.151,5.559-2.3,11.117c-.348,1.685-2.7,1.193-2.866-.289a3.182,3.182,0,0,0-.482,1.764,199.939,199.939,0,0,1,21.879,7.434,1.48,1.48,0,0,1,.084-.449l2.087-5.847a1.494,1.494,0,0,1,2.169-.882c2.349,1.542,4.636,3.2,7.577,3.2,1.484,0,3.4-.394,4.265-1.751a19.709,19.709,0,0,0,1.066-2.884c.333-.771.642-1.585.957-2.406a8.106,8.106,0,0,1-2.4-2.028,1.511,1.511,0,0,1,0-2.088,1.486,1.486,0,0,1,2.087,0,6.146,6.146,0,0,0,1.449,1.357,15.13,15.13,0,0,1,1.281-2.3,10.5,10.5,0,0,1,2-2.16,13.081,13.081,0,0,1,1.412-.986c.749-.459,1.083-.332,1.068-1.225-.017-1.028-1.2-2.379-1.608-3.329m-3.344-4.461a1.477,1.477,0,0,1,0-2.952,1.477,1.477,0,0,1,0,2.952" transform="translate(-55.09 -24.768)" fill="#fff"/>
      <path id="パス_773" data-name="パス 773" d="M315.9,199.962c1.455-.168,1.694-3.689,1.893-4.706q.833-4.255,1.667-8.51l4.048-20.658q.567-2.893,1.133-5.784c.23-1.172.1-1.656-1.394-1.906-3.043-.509-6.61,0-9.686,0H262.433a13.948,13.948,0,0,0-2.734,0c-1.6.348-1.615,2.235-1.9,3.588q-2.99,14.417-5.98,28.835a1.232,1.232,0,0,1-1.034,1.037,9.309,9.309,0,0,1,3.821.917,1.443,1.443,0,0,1-.609-1.543l6.391-29.933a1.5,1.5,0,0,1,1.424-1.084h58.761A1.5,1.5,0,0,1,322,162.085q-3.426,17.487-6.853,34.976a1.493,1.493,0,0,1-1.424,1.084h-21.7a1.4,1.4,0,0,1-1.423-1.512h-4.09a15.682,15.682,0,0,1,3.024,4.661h1.928a1.4,1.4,0,0,1,1.418-1.571h19.745a1.381,1.381,0,0,1,1.419,1.392h.517a1.545,1.545,0,0,1,1.334-1.153" transform="translate(-127.386 -80.342)" fill="#fff"/>
      <path id="パス_774" data-name="パス 774" d="M296.4,200.35h20.49q3.138-16.011,6.274-32.024H267.389l-6.16,28.849a1.311,1.311,0,0,1-1.817.965c2.659,1.378,4.884,3.794,6.942,5.976a1.518,1.518,0,0,1,.324.514,12.2,12.2,0,0,1,1.4-2.581,4.091,4.091,0,0,1,5.535-1.012,4.219,4.219,0,0,1,5.727.2,4.744,4.744,0,0,1,3.542-1.1,4.318,4.318,0,0,1,2.29,1.053,4.905,4.905,0,0,1,5.044.091,5.036,5.036,0,0,1,.673.512h4.09a1.39,1.39,0,0,1,1.423-1.441M280.888,194.2c-2.841-.14-3.911-2.173-3.481-4.788.484-2.945,1.1-5.875,1.653-8.809.482-2.569,1.782-4.534,4.643-4.687,2.457-.131,4.958,0,7.417,0,2.8,0,5.612-.071,8.412,0,2.641.068,4.364,1.565,3.97,4.358-.384,2.724-1.02,5.435-1.527,8.14-.518,2.759-1.2,5.083-4.179,5.7a1.523,1.523,0,0,1-.5.088,1.5,1.5,0,0,1-.372,0c-5.327.012-10.714.26-16.031,0" transform="translate(-131.765 -85.499)" fill="#b9e6d3"/>
      <path id="パス_775" data-name="パス 775" d="M150.508,201.869a14.918,14.918,0,0,0,.682-9.292,14.682,14.682,0,0,0-.685-2.036,5.913,5.913,0,0,1-3.182,1.019,5.913,5.913,0,0,0,3.182-1.019,11.14,11.14,0,0,0-.643-1.31,7.709,7.709,0,0,0-1.077-1.493c-.069-.071-.37-.392-.54-.613-.348.076-.708.121-1.058.181l-3.794.649-15.175,2.594a1.588,1.588,0,0,1-1.626-2.35q-1.319-6.22-2.542-12.46c-1.414-7.179-2.777-14.374-3.872-21.608-.48-3.168-.927-6.34-1.446-9.5-.467-2.847-.8-5.132-2.353-7.546-3.839-5.957-9.491-9.147-15.761-12.01-7.23-3.3-14.985-5.39-22.576-7.674a1.375,1.375,0,0,1-.986-1,8.107,8.107,0,0,0-1.9.936,1.388,1.388,0,0,1-.507,1.952,45.474,45.474,0,0,0-8.637,5.913,32.834,32.834,0,0,0-6.873,10.286c-3.552,7.71-5.189,16.248-6.171,24.63a1.63,1.63,0,0,1-2.06,1.348c.059.491.117.982.141,1.472l20.291,2.622c2.85.368,6.208.353,8.95,1.324,4.759,1.685,5.014,6.478,5.713,10.669l4.653,27.913,19.493,2.644a22.679,22.679,0,0,1-1.12-2.942c-1.032-2.957-1.894-5.977-2.739-8.991-2.356-8.4-4.45-16.874-6.407-25.373-1.586-6.889-3.226-13.832-4.183-20.844a10.747,10.747,0,0,1,.43-5.911c1.661-4.367,4.28-10,8.977-11.741,1.788-.661,2.552,2.194.785,2.847-2.738,1.013-4.465,4.442-5.684,6.888a23.758,23.758,0,0,0-1.842,4.691,26.671,26.671,0,0,0,.8,6.294,440.617,440.617,0,0,0,10.374,43.78c.75,2.624,1.514,5.251,2.426,7.824.926,2.612,1.213,3.495,4.359,3.875,3.469.42,7.157-.594,10.552-1.216q3.522-.645,7.024-1.4c4.852-1.034,9.7-2.026,14.6-2.818a1.574,1.574,0,0,1,1.765,1.122,3.152,3.152,0,0,0,.7-.821,1.172,1.172,0,0,1-.452-1.509M96.156,168.206c.611,1.807-2.241,2.575-2.847.785q-2.9-8.577-5.8-17.155c-.611-1.807,2.242-2.575,2.847-.785l5.8,17.155" transform="translate(-25.859 -59.124)" fill="#fff"/>
      <path id="パス_776" data-name="パス 776" d="M60.045,225.428c-.541-3.248-.792-6.736-4.791-7.451-3.467-.62-7.029-.909-10.521-1.36L27.609,214.4c-.029.053-.052.105-.084.158.032-.053.055-.106.084-.158l-14.671-1.9c-2.569-.332-7.327-1.635-7.025,2.614.268,3.771,1.269,7.628,1.888,11.354q1.654,9.944,3.308,19.889l53.639,7.277-4.7-28.214" transform="translate(-2.997 -107.713)" fill="#fff"/>
      <path id="パス_777" data-name="パス 777" d="M254.239,291.906a1.619,1.619,0,0,0,2.394-.724c.064-.162.118-.329.177-.493a11,11,0,0,1-2.238.224,2.682,2.682,0,0,1-.333.993" transform="translate(-129.138 -147.651)" fill="#323232"/>
      <path id="パス_778" data-name="パス 778" d="M323.9,249.068l-1.271,1.222,1.271-1.222a1.4,1.4,0,0,0-1.513-.079l-3.959,2.1-3.632,1.926a17.142,17.142,0,0,1-2.621,1.462,15.323,15.323,0,0,0-2.536-.067c-.352,0-.7,0-1.056,0H297.018a4.1,4.1,0,0,0,1.443-.755c2.321-1.837,1.033-4.342-.185-6.434-.253-.435-.5-.915-.752-1.411H294l.172.317c.587,1.073,1.284,2.083,1.879,3.152.534.96,1.354,2.864-.727,1.981-2.059-.874-2.86-6.823-5.916-4.206-2.815,2.412-4.732,6.127-7.237,8.869-3.911,4.282-9.088,6.147-14.605,7.515a1.453,1.453,0,0,0-.588,2.481,10.107,10.107,0,0,0,1.175-1.244,10.107,10.107,0,0,1-1.175,1.244,1.38,1.38,0,0,0,1.372.366c6.965-1.727,12.7-4.377,17.352-9.933.138-.165.269-.336.4-.5h0c1.54-1.895,2.949-3.9,4.535-5.756a22.7,22.7,0,0,0,1.976,2.538,5.308,5.308,0,0,0,2.573,1.779h-4.137a1.39,1.39,0,0,0-1.423,1.439h0a1.4,1.4,0,0,0,1.423,1.514c5.957,0,11.914.013,17.872,0a12.55,12.55,0,0,0,7-1.609l7.947-4.214a1.419,1.419,0,0,0,.023-2.471" transform="translate(-135.374 -124.855)" fill="#323232"/>
      <path id="パス_779" data-name="パス 779" d="M245.425,75.1H190.673c-2.694,0-7-.779-8.9,1.6-1.264,1.58-1.444,4.364-1.85,6.321q-1.05,5.066-2.1,10.132-1.715,8.268-3.429,16.536a1.428,1.428,0,0,0,.4,1.357l.362-1.931-.362,1.931a1.711,1.711,0,0,0,.937.468,9.239,9.239,0,0,0-.93.079c-.038,0-.075.012-.113.018l-.608,3.24.608-3.24c-6.827.994-12,7.136-18.978,7.285a1.369,1.369,0,0,0-1.163.622c-1.669-8.191-3.213-16.412-4.485-24.668-.52-3.379-.989-6.764-1.543-10.138-.444-2.7-.765-5.174-2.2-7.536-3.722-6.115-9.03-9.875-15.377-12.894-.169-.08-.34-.156-.509-.236a1.49,1.49,0,0,0,.548-.737l1.434-4.017c4.031,2.39,9.044,4.22,13.13.839,1.79-1.481,2.266-4.079,3.169-6.119.586-1.322,1.021-2.712,1.618-4.028a7.918,7.918,0,0,1,1.483-2.305c1.02-1.08,2.395-1.488,3.491-2.42,2.215-1.885.6-4.018-.481-6.021a11.468,11.468,0,0,1-1.068-9.337c.955-2.828,2.211-5.311,2.313-8.356a1.371,1.371,0,0,0-1.67-1.4,8.468,8.468,0,0,1,.186,3.051,8.468,8.468,0,0,0-.186-3.051,1.425,1.425,0,0,0-1.282,1.4,13.166,13.166,0,0,1-.9,4.083,14.257,14.257,0,0,0-3.576-1.927,1.88,1.88,0,0,0-.8-.169,15.44,15.44,0,0,0,5-4.138,1.5,1.5,0,0,0,.207-1.64,25.428,25.428,0,0,0-2.891,1.992,25.428,25.428,0,0,1,2.891-1.992,1.336,1.336,0,0,0-2.295-.448,11.429,11.429,0,0,1-5.973,4.224c.074-.117.152-.229.224-.347.993-1.626-1.559-3.111-2.549-1.49a27.072,27.072,0,0,1-6.343,7.181c-2.162-2.615-6.183-2.116-7.923,1.373a10.465,10.465,0,0,0-.995,5.019,1.414,1.414,0,0,0-.678-.391c-5.825-1.528-8.317,3.915-10.461,8.463-1.237-.457-2.478-.907-3.728-1.327a62.959,62.959,0,0,0-2.689-12.362c-1.14-3.6-2.414-6.294-1.082-10.054a23.982,23.982,0,0,1,6.09-8.792c10.489-10.242,28.57-5.846,35.789,6.145a1.413,1.413,0,0,0,1.973.5c-.443-.846-.887-1.7-1.267-2.585.38.886.824,1.739,1.267,2.585a1.376,1.376,0,0,0,.577-1.985c-7.419-12.324-26.447-18.371-38.324-8.631-5.033,4.128-10.61,10.921-9.643,17.9a35.461,35.461,0,0,0,1.773,5.706q1,3.147,1.684,6.382c.377,1.765.71,3.555.909,5.353q-1.357,6.556-2.713,13.112a1.561,1.561,0,0,0-.019.5,1.922,1.922,0,0,1,.695-.57,1.922,1.922,0,0,0-.695.57c.162,1.482,2.517,1.975,2.866.289q1.15-5.558,2.3-11.117c1.541.524,3.069,1.093,4.595,1.657a1.478,1.478,0,0,0,1.667-.678c.769-1.586,1.573-3.159,2.435-4.7,1.3-2.316,2.327-4.269,5.216-3.51a1.378,1.378,0,0,0,1.646-.747,10.412,10.412,0,0,0,2.394,5.132c1.279,1.411,3.362-.682,2.088-2.088A8.12,8.12,0,0,1,130.2,32.12a6.328,6.328,0,0,1,.765-2.816c.856-1.4,2.588-1.816,3.269.078a1.579,1.579,0,0,0,2.51.626,1.473,1.473,0,0,0,.382-.2,31.456,31.456,0,0,0,5.278-4.993,12.885,12.885,0,0,0,4.39-.816,1.453,1.453,0,0,0-.178.244,1.488,1.488,0,0,0,.529,2.019,10.192,10.192,0,0,1,3.393,1.856,1.44,1.44,0,0,0,.589.38c-.035.095-.072.189-.106.285a12.9,12.9,0,0,0-.578,6.946,16.727,16.727,0,0,0,1.1,3.479c.408.95,1.59,2.3,1.608,3.329.015.894-.319.767-1.068,1.225a13.086,13.086,0,0,0-1.412.986,10.472,10.472,0,0,0-2,2.16,15.1,15.1,0,0,0-1.281,2.3,6.156,6.156,0,0,1-1.449-1.357,1.485,1.485,0,0,0-2.087,0,1.51,1.51,0,0,0,0,2.087,8.1,8.1,0,0,0,2.4,2.028c-.314.821-.623,1.635-.957,2.406a19.69,19.69,0,0,1-1.066,2.884c-.87,1.357-2.782,1.753-4.265,1.751-2.942,0-5.228-1.659-7.577-3.2a1.494,1.494,0,0,0-2.169.882l-2.087,5.847a1.482,1.482,0,0,0-.084.449,200.038,200.038,0,0,0-21.879-7.433c-.055.82-.088,1.625-.792,2.094.7-.469.737-1.274.792-2.094l-.4-.121A1.455,1.455,0,0,0,104,57.277c.131-.043.259-.092.4-.126-.136.034-.264.083-.4.126a1.374,1.374,0,0,0,.986,1c7.592,2.284,15.346,4.373,22.576,7.674,6.269,2.862,11.921,6.052,15.761,12.01,1.555,2.413,1.886,4.7,2.353,7.545.519,3.162.966,6.334,1.446,9.5,1.1,7.235,2.458,14.43,3.872,21.608q1.228,6.238,2.542,12.46a1.588,1.588,0,0,0,1.626,2.35l15.175-2.594,3.794-.649c.351-.06.71-.1,1.058-.181.17.22.47.542.539.613a7.711,7.711,0,0,1,1.078,1.493,11.142,11.142,0,0,1,.643,1.31c.848-.528,1.638-1.185,2.441-1.8a13.768,13.768,0,0,0-1.4-2.272c-.9-1.182-2.034-2.357-3.59-2.274a23.645,23.645,0,0,0-2.635.45l-15.9,2.718q-.7-3.273-1.375-6.551a1.418,1.418,0,0,0,.721.168c6.221-.132,10.943-4.288,16.554-6.421,2.685-1.02,5.481-1.4,7.949.408a39.519,39.519,0,0,1,5.087,4.863,1.29,1.29,0,0,0,1.5.341,8.32,8.32,0,0,1-.657,1.043,16.3,16.3,0,0,1-5.094,4.675,1.413,1.413,0,0,0-.312,2.232,7.7,7.7,0,0,1,1.89-.987,7.7,7.7,0,0,0-1.89.987,1.383,1.383,0,0,0,1.8.317,19.527,19.527,0,0,0,6.034-5.555,20.524,20.524,0,0,0,2.326-4.26c.532-1.195,1.8-2.236,2.544-1.245a1.5,1.5,0,0,0,2.318.3c.975-1.11,2.238-1.413,3.187-.06a1.5,1.5,0,0,0,2.318.3c.952-.818,2.827-1.718,3.277-.651a1.5,1.5,0,0,0,2.467.651c2.028-2.2,3.488.446,4.416,2.163h3.52a15.7,15.7,0,0,0-3.024-4.661h0a5.067,5.067,0,0,0-.673-.512,4.905,4.905,0,0,0-5.044-.091,4.319,4.319,0,0,0-2.29-1.053,4.741,4.741,0,0,0-3.542,1.1,4.218,4.218,0,0,0-5.726-.2,4.092,4.092,0,0,0-5.535,1.012,12.179,12.179,0,0,0-1.4,2.581,1.522,1.522,0,0,0-.324-.514c-2.058-2.181-4.283-4.6-6.942-5.976a1.311,1.311,0,0,0,1.817-.965l6.16-28.85H244.2l-6.274,32.024h-20.49a1.39,1.39,0,0,0-1.423,1.441h0a1.4,1.4,0,0,0,1.423,1.512h21.7a1.494,1.494,0,0,0,1.424-1.084q3.426-17.488,6.853-34.976a1.5,1.5,0,0,0-1.424-1.868H187.232a1.5,1.5,0,0,0-1.424,1.084q-3.2,14.967-6.391,29.934a1.441,1.441,0,0,0,.609,1.542,9.312,9.312,0,0,0-3.821-.917,1.231,1.231,0,0,0,1.033-1.037q2.99-14.418,5.98-28.835c.28-1.353.3-3.239,1.9-3.588a13.943,13.943,0,0,1,2.734,0h51.126c3.075,0,6.642-.509,9.686,0,1.492.249,1.623.734,1.394,1.905l-1.134,5.785q-2.023,10.329-4.047,20.658l-1.668,8.51c-.2,1.016-.437,4.538-1.892,4.706a1.545,1.545,0,0,0-1.334,1.153h0c-.254.886.183,1.932,1.334,1.8,2.782-.32,3.825-2.013,4.283-4.542.358-1.975.773-3.942,1.158-5.912l3.909-19.951c.8-4.073,2.061-8.311,2.439-12.45.441-4.82-4.42-4.614-7.675-4.614M124.567,34.024c.984.492,1.476-.984,2.46-.492-.984-.492-1.476.984-2.46.492M175.4,127.962c.343-.048.2.093,0,0" transform="translate(-52.8 0)" fill="#323232"/>
      <path id="パス_780" data-name="パス 780" d="M253.891,267.251a14.918,14.918,0,0,1-.683,9.292,1.172,1.172,0,0,0,.453,1.509,2.683,2.683,0,0,0,.333-.993h0a2.972,2.972,0,0,0-.033-.984,2.972,2.972,0,0,1,.033.984,10.992,10.992,0,0,0,2.238-.225,17.577,17.577,0,0,0-.585-13.421c-.8.616-1.593,1.273-2.441,1.8a14.681,14.681,0,0,1,.685,2.036" transform="translate(-128.559 -133.797)" fill="#323232"/>
      <path id="パス_781" data-name="パス 781" d="M192.4,64.607a1.477,1.477,0,0,0,0,2.952,1.477,1.477,0,0,0,0-2.952" transform="translate(-97.005 -32.816)" fill="#323232"/>
      <path id="パス_782" data-name="パス 782" d="M74.224,117.468c-.936.609-1.783,1.328-2.627,1.891.844-.563,1.691-1.282,2.627-1.891a1.4,1.4,0,0,0-2-.6,50.426,50.426,0,0,0-8.955,6.117,34.507,34.507,0,0,0-7.614,11.14c-3.788,8.222-5.527,17.179-6.574,26.12a1.158,1.158,0,0,0,.893,1.349,9.035,9.035,0,0,1-.03-2.873,9.035,9.035,0,0,0,.03,2.873,1.63,1.63,0,0,0,2.06-1.349c.982-8.382,2.619-16.921,6.171-24.63a32.841,32.841,0,0,1,6.872-10.286,45.479,45.479,0,0,1,8.638-5.913,1.388,1.388,0,0,0,.507-1.951" transform="translate(-24.926 -59.255)" fill="#323232"/>
      <path id="パス_783" data-name="パス 783" d="M128.045,185.769c-.605-1.79-3.458-1.022-2.847.785l5.8,17.155c.606,1.79,3.458,1.022,2.847-.785l-5.8-17.155" transform="translate(-63.55 -93.842)" fill="#323232"/>
      <path id="パス_784" data-name="パス 784" d="M196.277,220.519a5.4,5.4,0,0,1-3.428,1.139,5.4,5.4,0,0,0,3.428-1.139,1.574,1.574,0,0,0-1.765-1.122c-4.9.791-9.745,1.783-14.6,2.818q-3.5.747-7.023,1.4c-3.4.622-7.084,1.636-10.552,1.216-3.146-.381-3.433-1.264-4.359-3.875-.912-2.572-1.676-5.2-2.426-7.824a440.462,440.462,0,0,1-10.374-43.779,26.673,26.673,0,0,1-.8-6.294,23.788,23.788,0,0,1,1.842-4.691c1.219-2.446,2.946-5.876,5.685-6.889,1.767-.653,1-3.508-.785-2.847-4.7,1.738-7.316,7.375-8.977,11.741a10.746,10.746,0,0,0-.43,5.912c.956,7.011,2.6,13.954,4.183,20.844,1.957,8.5,4.051,16.974,6.406,25.373.845,3.015,1.707,6.034,2.739,8.991a22.844,22.844,0,0,0,1.12,2.942l3.23.438-3.23-.438a5.2,5.2,0,0,0,1.043,1.439c2.459,2.294,6.435,2.149,9.511,1.752,3.664-.473,7.317-1.2,10.938-1.927,5.88-1.184,11.715-2.494,17.64-3.45a1.233,1.233,0,0,0,.98-1.725" transform="translate(-71.877 -75.444)" fill="#323232"/>
      <path id="パス_785" data-name="パス 785" d="M353.034,244.006h2.995a1.382,1.382,0,0,0-1.42-1.392H334.864a1.4,1.4,0,0,0-1.418,1.571h0a1.38,1.38,0,0,0,1.418,1.381h19.745a1.4,1.4,0,0,0,1.42-1.56Z" transform="translate(-169.369 -123.233)" fill="#323232"/>
      <path id="パス_786" data-name="パス 786" d="M248.409,246.752c1.826-.734,3.789-1.491,4.229-3.652a3.74,3.74,0,0,0-3.376-4.481,14.423,14.423,0,0,0-4.744.832,1.41,1.41,0,0,0-2.439-.889l-2.39,2.81c-.858,1.009-.072,3.033,1.436,2.467,1.437-.538,2.851-1.1,4.329-1.507l.133-.039c.9-.242,2.606-.98,3.533-.717,2.031.577-.811,2.054-1.5,2.329a1.578,1.578,0,0,0-.529.345c-1.009,1-.235,3.124,1.314,2.5" transform="translate(-121.567 -120.926)" fill="#323232"/>
      <path id="パス_787" data-name="パス 787" d="M85.551,225.591c-.7-4.191-.955-8.985-5.713-10.67-2.741-.97-6.1-.956-8.95-1.324L50.6,210.975a5.206,5.206,0,0,1-.579,2.878l17.124,2.213c3.492.451,7.054.74,10.521,1.36,4,.715,4.249,4.2,4.79,7.451l4.7,28.214,3.047.413-4.653-27.913" transform="translate(-25.407 -107.162)" fill="#323232"/>
      <path id="パス_788" data-name="パス 788" d="M25.192,208.437l-13.889-1.8c-3.058-.4-7-1.6-9.553.722-3,2.724-1.355,7.406-.782,10.846q2.05,12.327,4.1,24.653l3.046.413Q6.459,233.331,4.8,223.387c-.62-3.725-1.62-7.583-1.888-11.354-.3-4.249,4.456-2.946,7.024-2.614l14.671,1.9a5.207,5.207,0,0,0,.579-2.878" transform="translate(0 -104.623)" fill="#323232"/>
      <path id="パス_789" data-name="パス 789" d="M269.176,54.424a17.342,17.342,0,0,0,7.3,10.962,19.346,19.346,0,0,0,6.277,2.6,2.25,2.25,0,0,1,1.9,1.722c.456,1.192.895,2.391,1.338,3.588.311-.67.66-1.324.827-1.771a18.415,18.415,0,0,1,.89-2.386c.848-1.547,3.3-1.463,4.866-2.093A17.1,17.1,0,0,0,297.9,63.6,17.494,17.494,0,0,0,303.3,51.09c-.193-10.738-10.13-19.191-20.839-16.842a17.4,17.4,0,0,0-13.28,20.177m10.367-3.566,4.4,3.482,8.051-9.11c1.261-1.427,3.342.669,2.088,2.087L285.17,57.4a1.5,1.5,0,0,1-2.088,0l-5.627-4.455c-1.49-1.179.614-3.255,2.088-2.088" transform="translate(-136.56 -17.195)" fill="#fff"/>
      <path id="パス_790" data-name="パス 790" d="M278.929,67.795l1.526,4.091c.483,1.3.894,3.079,2.627,3.079s2.143-1.782,2.627-3.079l1.523-4.085a20.447,20.447,0,0,0,16.023-19.723,20.4,20.4,0,0,0-23.927-19.819c-12.421,2.275-19.707,16-14.854,27.591a20.366,20.366,0,0,0,14.454,11.944m.534-36.559c10.709-2.348,20.646,6.1,20.839,16.842a17.5,17.5,0,0,1-5.394,12.515,17.1,17.1,0,0,1-5.327,3.443c-1.562.629-4.018.546-4.866,2.093a18.362,18.362,0,0,0-.89,2.386c-.167.447-.515,1.1-.827,1.771-.444-1.2-.882-2.4-1.339-3.589a2.25,2.25,0,0,0-1.9-1.722,19.33,19.33,0,0,1-6.277-2.6,17.224,17.224,0,0,1,5.984-31.139" transform="translate(-133.566 -14.184)" fill="#323232"/>
      <path id="パス_791" data-name="パス 791" d="M306.9,201.908h11.878c2.122-.278,2.27-5.931,2.527-7.3.225-1.2,1.57-4.616.059-5.078-1.553-.475-4,0-5.611,0h-7.658c-1.563,0-3.655-.533-4.477,1.322-.725,1.634-.749,3.993-1.077,5.74-.195,1.041-1.543,4.726-.319,5.317,1.033.5,3.562,0,4.678,0m-.012-10.3,4.392,4.148,6.71-4.379c1.6-1.043,3.075,1.515,1.49,2.549l-7.258,4.736a1.562,1.562,0,0,1-.15.078,1.424,1.424,0,0,1-1.965-.034L304.8,193.7c-1.385-1.308.707-3.392,2.088-2.088" transform="translate(-153.251 -96.162)" fill="#fff"/>
      <path id="パス_792" data-name="パス 792" d="M315.77,201.97a1.521,1.521,0,0,0,.5-.088c2.984-.616,3.661-2.939,4.179-5.7.507-2.7,1.143-5.415,1.527-8.14.394-2.792-1.329-4.29-3.97-4.358-2.8-.072-5.611,0-8.412,0-2.459,0-4.96-.131-7.417,0-2.861.153-4.161,2.118-4.643,4.687-.551,2.934-1.169,5.863-1.653,8.809-.43,2.614.64,4.647,3.481,4.787,5.317.263,10.7.014,16.031,0a1.518,1.518,0,0,0,.371,0m-16.237-8.27c.328-1.747.352-4.106,1.077-5.739.823-1.855,2.913-1.322,4.477-1.322h7.658c1.609,0,4.058-.475,5.611,0,1.511.462.167,3.876-.059,5.078-.257,1.369-.405,7.023-2.528,7.3H303.891c-1.116,0-3.644.5-4.678,0-1.223-.59.124-4.277.32-5.317" transform="translate(-150.245 -93.272)" fill="#323232"/>
      <path id="パス_793" data-name="パス 793" d="M312.82,200.579a1.424,1.424,0,0,0,1.965.034,1.559,1.559,0,0,0,.15-.078l7.258-4.736c1.585-1.035.107-3.592-1.49-2.549l-6.71,4.379L309.6,193.48c-1.381-1.3-3.472.78-2.088,2.088l5.306,5.011" transform="translate(-155.967 -98.034)" fill="#323232"/>
      <path id="パス_794" data-name="パス 794" d="M285.811,64.2l5.627,4.455a1.5,1.5,0,0,0,2.087,0l8.91-10.082c1.254-1.419-.826-3.515-2.087-2.088l-8.051,9.11-4.4-3.482c-1.474-1.167-3.577.909-2.088,2.088" transform="translate(-144.915 -28.447)" fill="#b9e6d3"/>
    </g>
  </g>
</svg>
