<svg xmlns="http://www.w3.org/2000/svg" width="109.748" height="140.595" viewBox="0 0 109.748 140.595">
  <g id="グループ_617" data-name="グループ 617" transform="translate(0)">
    <g id="グループ_618" data-name="グループ 618">
      <path id="パス_892" data-name="パス 892" d="M76.611,3.8c-.847.07-1.687.177-2.524.33A25.346,25.346,0,0,0,57.356,14.911a30.939,30.939,0,0,0-3.939,10.974c-.819,4.228-1.2,8.523-1.884,12.773-1.032,6.434-3.606,12.518-4.85,18.908-.066.339-.127.679-.181,1.019-.06.378-.052.3-.086.639a10.439,10.439,0,0,0-.023,1.715,12.2,12.2,0,0,0,.2,1.634c.113.646.252,1.287.406,1.925.677,2.815,1.609,5.562,2.265,8.383a18.744,18.744,0,0,1,.472,8.173,9.169,9.169,0,0,1-5.024,6.2,4.888,4.888,0,0,0,2.029.345c-.005-.017-.014-.031-.019-.048a1.085,1.085,0,0,1,.752-1.324A10.408,10.408,0,0,0,52.324,84.1a13.757,13.757,0,0,0,4.77-8.224c.8-4.153.075-8.453-.6-12.57a1.1,1.1,0,0,1,.752-1.324,1.085,1.085,0,0,1,1.324.752,67.649,67.649,0,0,1,.979,7.889,21.054,21.054,0,0,1-1.525,9.454,14.343,14.343,0,0,1,2.02-.762,5.105,5.105,0,0,0,.937-.92,1.069,1.069,0,0,1-.217-1.688,5.816,5.816,0,0,0,1.584-2.1A18.4,18.4,0,0,0,63.6,71.391a29.034,29.034,0,0,0,1.244-7.11,1.1,1.1,0,0,1,.137-.494A20.51,20.51,0,0,1,59.9,54.213c-.3-1.4-.476-2.814-.684-4.227a1.039,1.039,0,0,1-.837-.077A10.972,10.972,0,0,1,54.539,46.6a8.3,8.3,0,0,1-.9-8.019,6.994,6.994,0,0,1,2.245-3.147,3.7,3.7,0,0,1,3.463-.471V34.6a1.08,1.08,0,0,1-1.131-1.037,24.421,24.421,0,0,1,.341-5.5,21.385,21.385,0,0,1,8.757-13.483,1.085,1.085,0,0,1,1.473.386,1.108,1.108,0,0,1-.386,1.473A21.13,21.13,0,0,0,65.42,19.06a19.281,19.281,0,0,0-5.072,13.812,5.753,5.753,0,0,0,1.568-.558,1.05,1.05,0,0,1,.365-1.851,17.916,17.916,0,0,0,6.967-3.236A23.311,23.311,0,0,0,74.5,21.311c.749-1.162,2.612-.081,1.859,1.087a25.633,25.633,0,0,1-5.709,6.446A20.06,20.06,0,0,1,69,29.992,17.515,17.515,0,0,0,72.3,29.66,18.075,18.075,0,0,0,86.005,17.248,1.111,1.111,0,0,1,88,17.005a7.5,7.5,0,0,1,3.443,2.083,13.707,13.707,0,0,0-1.852-2.795,1.1,1.1,0,0,1,0-1.522,1.087,1.087,0,0,1,1.522,0,16.085,16.085,0,0,1,2.241,3.386,33.852,33.852,0,0,1,2.64,7.609,42.363,42.363,0,0,1,1.073,7.461.927.927,0,0,1-.353.818q.279.314.545.627a1.349,1.349,0,0,1,.426-.263c1.659-.635,3.185.5,4.145,1.76a6.9,6.9,0,0,1,1.272,4.946,9.706,9.706,0,0,1-5.339,7.661,25.929,25.929,0,0,1-4.047,12.458c-.257.375-.529.738-.808,1.093a1.129,1.129,0,0,1,.1.4,27.89,27.89,0,0,0,3.964,13.44A.922.922,0,0,1,97,77.207c.118.075.24.149.373.224a20.8,20.8,0,0,1-.133-3.734c.178-3.434.865-6.826,1.285-10.233A1.1,1.1,0,0,1,99.6,62.386a1.082,1.082,0,0,1,1.077,1.077c-.249,2.019-.561,4.028-.845,6.042a27.127,27.127,0,0,0-.218,8.573,14.7,14.7,0,0,0,.9,2.967,16.236,16.236,0,0,1,4.213,3.941,11.553,11.553,0,0,0,4.085,1.935,11.164,11.164,0,0,1-1.269-1.412c-3.747-4.961-.673-11.189.717-16.4a16.667,16.667,0,0,0,.648-3.878,26.826,26.826,0,0,0-.4-5.212c-.578-3.349-1.652-6.584-2.435-9.886-1.8-7.616-2.612-15.45-3.76-23.179-.858-5.772-2.5-11.519-6.539-15.909A24.61,24.61,0,0,0,88.765,5.8c-2.335-1.2-5.344-2.428-7.948-2.052A1.1,1.1,0,0,1,79.493,3a1.093,1.093,0,0,1,.008-.545A3.463,3.463,0,0,0,77.627,2.4a1.018,1.018,0,0,1,.06.324A1.1,1.1,0,0,1,76.611,3.8" transform="translate(-23.252 -1.193)" fill="#d5d5d5"/>
      <path id="パス_893" data-name="パス 893" d="M101.624,166.291a12.624,12.624,0,0,0-11.441,3.382c-1.667,1.611-3.143,3.448-4.689,5.174a1.084,1.084,0,0,1-1.522,0l-.693-.774c-1.99-2.222-3.89-4.765-6.487-6.308a12.365,12.365,0,0,0-11.872-.434c-7.512,3.829-9.863,13.619-6.517,20.977.051-.125.1-.25.153-.374a16.612,16.612,0,0,1,2.162-4.3,3.281,3.281,0,0,1,3.159-1.3,2.8,2.8,0,0,1,2.021,2.349,7.1,7.1,0,0,1-.678,3.619c-.258.714-.507,1.431-.754,2.15.729-1.283,1.491-2.545,2.322-3.756a4.14,4.14,0,0,1,2.081-1.779,2.645,2.645,0,0,1,2.533.511,3.143,3.143,0,0,1,1.015,2.377,6.575,6.575,0,0,1-.778,2.727c-.066.147-.134.292-.2.439a2.825,2.825,0,0,1,3.354,1.94,4.338,4.338,0,0,1,.016,2.119,2.8,2.8,0,0,1,2.456.666,3.738,3.738,0,0,1,.876,3.483A16.527,16.527,0,0,1,76.1,203.6c-.609,1.172-1.193,2.358-1.764,3.55l4.432,4.948,5.967,6.662c2.458-2.782,4.956-5.53,7.433-8.3L95.5,206.74c-.7-1.449-1.423-2.886-2.187-4.3-.742-1.37-1.6-2.775-1.532-4.4a3.146,3.146,0,0,1,1.666-2.817,2.834,2.834,0,0,1,1.782-.2,3.555,3.555,0,0,1,.625-3.26,2.985,2.985,0,0,1,2.693-.832c-.225-.5-.441-.994-.632-1.5-.645-1.707-.224-4.154,1.849-4.591,1.894-.4,3.063,1.187,3.958,2.583.633.987,1.24,1.993,1.832,3.008-.339-.987-.683-1.973-1.05-2.951a4.782,4.782,0,0,1-.154-3.569,2.6,2.6,0,0,1,2.453-1.651,3.876,3.876,0,0,1,2.928,1.931,17.558,17.558,0,0,1,1.628,3.448c.041-.1.085-.2.124-.3a17.107,17.107,0,0,0-.3-12.832,14.109,14.109,0,0,0-9.564-8.223" transform="translate(-29.599 -86.332)" fill="#b9e6d3"/>
      <path id="パス_894" data-name="パス 894" d="M202.368,214.567c-.551-4.146-1.121-8.433-1.745-12.652-.645-4.355-1.44-9.5-2.459-14.644-.468-2.369-.9-4.287-1.346-6.038a22.846,22.846,0,0,0-2.432-6.292,11.966,11.966,0,0,0-4.351-4.178,34.2,34.2,0,0,0-6.4-2.567l-.292-.095a1.285,1.285,0,0,0-1.542.539h0a1.591,1.591,0,0,0-.158,1.362,1.392,1.392,0,0,0,.907.858l.295.1A34.051,34.051,0,0,1,188.14,173c.344.18.67.366.968.555.165.1.328.213.487.325.078.056.157.113.232.169l.005,0,.006,0,.143.116a10.662,10.662,0,0,1,.837.781c.11.117.217.237.321.359.064.074.126.149.207.251l.109.148a16.788,16.788,0,0,1,2.334,5.316c.563,2,1.009,4.078,1.406,6.022,1.846,9.043,3.093,18.359,4.3,27.37l.569,4.263c.392,2.946.8,5.992,1.232,8.984a.36.36,0,0,0,.357.308h2.158a.36.36,0,0,0,.356-.413c-.644-4.328-1.23-8.736-1.8-13" transform="translate(-94.42 -87.382)" fill="#323232"/>
      <path id="パス_895" data-name="パス 895" d="M106.117,31.813a1.526,1.526,0,0,0-1.486-.668,1.373,1.373,0,0,0-1.154,1A17.626,17.626,0,0,1,90.044,44.3a16.518,16.518,0,0,1-1.958.27q.31-.222.6-.448a25.761,25.761,0,0,0,5.79-6.535,1.324,1.324,0,0,0-.425-1.885,1.442,1.442,0,0,0-2.039.408,22.714,22.714,0,0,1-5.169,5.827,17.5,17.5,0,0,1-6.828,3.171,1.286,1.286,0,0,0-1.005.945,1.57,1.57,0,0,0,.482,1.525h0a1.362,1.362,0,0,0,.912.347,1.552,1.552,0,0,0,.344-.04,20.564,20.564,0,0,0,2.713-.829,1.767,1.767,0,0,0,.808.3,20.461,20.461,0,0,0,21.97-14.439,1.32,1.32,0,0,0-.124-1.108h0" transform="translate(-41.068 -16.191)" fill="#323232"/>
      <path id="パス_896" data-name="パス 896" d="M139.022,32.046a27.816,27.816,0,0,1,1.914,5.1,39.549,39.549,0,0,1,1.519,8.89,1.388,1.388,0,0,0,.816,1.233,1.593,1.593,0,0,0,.666.144,1.477,1.477,0,0,0,.9-.29h0A1.288,1.288,0,0,0,145.326,46a42.785,42.785,0,0,0-1.081-7.525,33.96,33.96,0,0,0-2.669-7.69,16.545,16.545,0,0,0-2.291-3.461,1.306,1.306,0,0,0-.955-.433,1.5,1.5,0,0,0-1.093.416,1.461,1.461,0,0,0-.016,2.014,13.232,13.232,0,0,1,1.8,2.721h0" transform="translate(-71.156 -13.986)" fill="#323232"/>
      <path id="パス_897" data-name="パス 897" d="M124.824,56.876a1.467,1.467,0,0,0-.476,1.959,1.613,1.613,0,0,0,1.032.686,1.223,1.223,0,0,0,.957-.2,4.951,4.951,0,0,1,.67-.419l.307-.132c.078-.028.155-.056.236-.08.124-.037.249-.068.376-.094l.07-.013c.04-.007.08-.013.1-.02a5.129,5.129,0,0,1,.788-.012l.12.011.036,0c.131.024.26.049.388.082s.263.073.395.119l.215.084a5.367,5.367,0,0,1,.758.434,4.316,4.316,0,0,1,.625.535,1.477,1.477,0,0,0,1.033.413h.039a1.343,1.343,0,0,0,.968-.426,1.45,1.45,0,0,0-.013-2.022,7.176,7.176,0,0,0-4.412-2.095,6.276,6.276,0,0,0-4.212,1.193" transform="translate(-64.56 -28.946)" fill="#323232"/>
      <path id="パス_898" data-name="パス 898" d="M130.922,74.944a1.437,1.437,0,1,0,1.4,1.436,1.375,1.375,0,0,0-1.4-1.436" transform="translate(-67.358 -38.975)" fill="#323232"/>
      <path id="パス_899" data-name="パス 899" d="M95.184,76.381a1.4,1.4,0,1,0,1.4-1.437,1.374,1.374,0,0,0-1.4,1.437" transform="translate(-49.501 -38.975)" fill="#323232"/>
      <path id="パス_900" data-name="パス 900" d="M116.4,77.164h0l.042-.358h0l.012-.084c.03-.207.062-.414.1-.618a1.454,1.454,0,0,0-1.025-1.745,1.588,1.588,0,0,0-1.191.214,1.27,1.27,0,0,0-.567.82,20.353,20.353,0,0,0-.319,2.558,12.4,12.4,0,0,0,.39,4.569,1.521,1.521,0,0,0,.751.893,1.369,1.369,0,0,0,.632.157,1.284,1.284,0,0,0,.4-.062,1.45,1.45,0,0,0,.985-1.773,7.231,7.231,0,0,1-.226-.963l-.037-.291c-.017-.166-.03-.333-.039-.5a15.744,15.744,0,0,1,.019-1.98q.029-.418.074-.836" transform="translate(-58.977 -38.651)" fill="#323232"/>
      <path id="パス_901" data-name="パス 901" d="M145.9,81.116a6.939,6.939,0,0,1-.262-1.033h0a9.54,9.54,0,0,1-.055-2.678,29.2,29.2,0,0,1,1.443-5.8c.25-.774.508-1.574.733-2.364a23.641,23.641,0,0,0,.87-4.332,23.85,23.85,0,0,0-.211-5.262,60.532,60.532,0,0,0-1.717-7.72c-.212-.789-.424-1.578-.626-2.369-1-3.914-1.65-8-2.223-11.613-.616-3.878-1.16-7.836-1.685-11.664l-.036-.256c-.644-4.688-2.012-11.544-6.445-16.949a25.768,25.768,0,0,0-7.117-5.948A21.092,21.092,0,0,0,119.6.021a9.818,9.818,0,0,0-2.142.1,1.326,1.326,0,0,0-1.042,1.049h0a1.438,1.438,0,0,0-.005.726,1.445,1.445,0,0,0,1.723,1.013c1.99-.288,4.52.372,7.732,2.016a24.131,24.131,0,0,1,6.908,5.165c4.4,4.778,5.785,11.259,6.448,15.718.294,1.982.571,4.005.838,5.962.778,5.687,1.582,11.568,2.927,17.246.291,1.23.628,2.468.953,3.665.549,2.02,1.116,4.108,1.477,6.2a26.463,26.463,0,0,1,.4,5.142,16.394,16.394,0,0,1-.636,3.794c-.242.908-.531,1.832-.837,2.811-1.416,4.53-3.021,9.664.18,13.9a11.669,11.669,0,0,0,1.309,1.458c.139.131.281.26.428.385a1.577,1.577,0,0,0,1.022.393,1.386,1.386,0,0,0,.989-.412,1.5,1.5,0,0,0,.416-1.108,1.285,1.285,0,0,0-.437-.944,7.373,7.373,0,0,1-2.343-3.188" transform="translate(-60.517 0)" fill="#323232"/>
      <path id="パス_902" data-name="パス 902" d="M111.8,97.947a1.171,1.171,0,0,0-.12.571,1.439,1.439,0,0,0,.432,1.011,1.486,1.486,0,0,0,1,.41l1.322.013h.048a1.161,1.161,0,0,0,.521-.121,1.132,1.132,0,0,0,.452-.291,1.535,1.535,0,0,0,.43-1.041,1.436,1.436,0,0,0-.431-1.01,1.491,1.491,0,0,0-1-.41l-1.322-.012a1.176,1.176,0,0,0-.569.12,1.335,1.335,0,0,0-.761.761" transform="translate(-58.08 -50.479)" fill="#323232"/>
      <path id="パス_903" data-name="パス 903" d="M108.361,112.3h0l-.065-.031c-.055-.026-.109-.052-.164-.081-.132-.068-.26-.141-.386-.218a1.4,1.4,0,0,0-1.074-.151,1.43,1.43,0,0,0-.386,2.626,8.426,8.426,0,0,0,4.351,1.194,7.79,7.79,0,0,0,4.426-1.319,1.454,1.454,0,0,0,.492-1.951,1.5,1.5,0,0,0-.964-.683,1.292,1.292,0,0,0-1.025.183,5.466,5.466,0,0,1-.707.418l-.206.091q-.211.08-.427.143a6.335,6.335,0,0,1-.836.185l-.022,0-.21.019c-.155.012-.309.018-.464.02a7.279,7.279,0,0,1-.834-.041l-.037,0-.025,0-.206-.036q-.2-.038-.4-.089a6.392,6.392,0,0,1-.793-.255Z" transform="translate(-54.908 -58.066)" fill="#323232"/>
      <path id="パス_904" data-name="パス 904" d="M84.9,108.08c-.232-.528-.463-1.054-.682-1.578q-.49-1.181-.966-2.368c.114-.209.224-.42.328-.637a19.674,19.674,0,0,0,1.072-14.159,18.625,18.625,0,0,0-2.889-5.667h0a16.56,16.56,0,0,0-4.211-3.965,14.408,14.408,0,0,1-.836-2.791,26.954,26.954,0,0,1,.221-8.456q.13-.921.265-1.843c.2-1.376.407-2.8.581-4.205a1.215,1.215,0,0,0-.321-.956,1.541,1.541,0,0,0-1.113-.524,1.461,1.461,0,0,0-1.434,1.392c-.144,1.167-.323,2.354-.5,3.5-.332,2.206-.675,4.487-.792,6.758-.028.539-.032,1.073-.021,1.6a28.107,28.107,0,0,1-3.5-12.572,1.43,1.43,0,0,0-.053-.314c.261-.337.491-.65.7-.955a25.846,25.846,0,0,0,4.09-12.428A10.015,10.015,0,0,0,80.2,40.057a7.269,7.269,0,0,0-1.343-5.2c-1.335-1.759-3.04-2.462-4.561-1.879a1.7,1.7,0,0,0-.538.333h0a1.394,1.394,0,0,0-.431,1.422,1.511,1.511,0,0,0,.776.92,1.34,1.34,0,0,0,.605.15,1.162,1.162,0,0,0,.419-.077.68.68,0,0,1,.323-.042h0c.391.043.836.436,1.287,1.135a4.726,4.726,0,0,1,.544,3.465,7.338,7.338,0,0,1-4.028,5.22,1.471,1.471,0,0,0-1.2,1.385,24.637,24.637,0,0,1-2.915,10.623A20.2,20.2,0,0,1,60.9,65.358c-3.865,1.931-8,1.06-10.793-.012a17.5,17.5,0,0,1-8.486-6.8,18.658,18.658,0,0,1-2.488-5.808c-.27-1.2-.447-2.441-.619-3.644-.112-.782-.227-1.592-.368-2.385a1.26,1.26,0,0,0-.59-.842,1.509,1.509,0,0,0-1.184-.194,1.375,1.375,0,0,0-.755.517c-1.914-1.249-3.712-3.454-3.344-6.147A6.548,6.548,0,0,1,33.5,36.95a2.774,2.774,0,0,1,.839-.727,1.375,1.375,0,0,1,1.229.119,1.2,1.2,0,0,0,1-.051,1.543,1.543,0,0,0,.807-.937,1.4,1.4,0,0,0-.686-1.613,1.263,1.263,0,0,0,.778-1.29c-.01-.2-.013-.407-.017-.61v-.07h0A18.779,18.779,0,0,1,42.43,18.21a20.837,20.837,0,0,1,2.928-2.577,1.455,1.455,0,0,0,.486-1.947A1.51,1.51,0,0,0,44.856,13a1.253,1.253,0,0,0-1.007.193A21.756,21.756,0,0,0,34.95,26.9a24.863,24.863,0,0,0-.346,5.585,1.416,1.416,0,0,0,.283.8,4.025,4.025,0,0,0-2.468.761,7.28,7.28,0,0,0-2.366,3.3A8.687,8.687,0,0,0,31,45.714a11.405,11.405,0,0,0,3.962,3.417,1.405,1.405,0,0,0,.7.173l.068.47c.161,1.123.328,2.283.568,3.416A20.875,20.875,0,0,0,41.3,62.763a1.474,1.474,0,0,0-.073.406A28.657,28.657,0,0,1,40,70.19a17.893,17.893,0,0,1-1.226,3.15,5.412,5.412,0,0,1-1.489,1.985,1.231,1.231,0,0,0-.446.913,1.534,1.534,0,0,0,.416,1.145,1.445,1.445,0,0,0,.288.221h0c.019.012.04.015.06.025-.288.066-.587.142-.917.239h0c-.429.127-.847.271-1.252.429A21.977,21.977,0,0,0,36.655,69.5a67.979,67.979,0,0,0-.983-7.931,1.241,1.241,0,0,0-.578-.839,1.539,1.539,0,0,0-1.2-.2,1.463,1.463,0,0,0-1.012,1.73l.022.132c.669,4.064,1.36,8.266.582,12.312a13.421,13.421,0,0,1-4.641,8.011,10.105,10.105,0,0,1-4.684,2.061c-.036.006-.069.02-.1.029a9.052,9.052,0,0,0,2.775-4.775,19.145,19.145,0,0,0-.473-8.331c-.343-1.476-.767-2.952-1.178-4.379-.376-1.309-.765-2.663-1.089-4.006-.169-.7-.3-1.323-.4-1.9A11.924,11.924,0,0,1,23.5,59.82a10,10,0,0,1,.022-1.656c.026-.258.027-.263.055-.438l.029-.181c.053-.336.114-.672.179-1.007.573-2.944,1.447-5.878,2.292-8.716a81.085,81.085,0,0,0,2.561-10.2c.277-1.731.509-3.5.733-5.2.326-2.487.664-5.058,1.148-7.558a30.93,30.93,0,0,1,3.889-10.848A24.808,24.808,0,0,1,50.9,3.384a24.574,24.574,0,0,1,2.488-.326A1.458,1.458,0,0,0,54.8,1.623a1.353,1.353,0,0,0-.079-.438v0a1.416,1.416,0,0,0-1.386-1A28.589,28.589,0,0,0,34.211,9.529a26.186,26.186,0,0,0-5.324,9.884A76.664,76.664,0,0,0,26.58,31.739l-.18,1.375c-.217,1.668-.442,3.394-.766,5.065-.29,1.494-.693,3-1.048,4.3-.377,1.376-.773,2.747-1.17,4.117-.563,1.949-1.147,3.963-1.661,5.964A22.328,22.328,0,0,0,20.7,60.69a44.942,44.942,0,0,0,1.649,7.176l.315,1.1a32.353,32.353,0,0,1,1.576,8.07,8.726,8.726,0,0,1-.322,2.808v0c-.054.181-.114.367-.186.561a7.058,7.058,0,0,1-.62,1.176,1.409,1.409,0,0,0-.044-.468,1.5,1.5,0,0,0-1.026-1.01h0a1.251,1.251,0,0,0-.766.015c-6.6,2.369-11.032,5.988-13.175,10.758a29.814,29.814,0,0,0-1.974,7.793q-.543,3.494-1.066,6.99c-.705,4.685-1.446,9.694-2.4,16.245q-1.058,7.244-2.1,14.49L0,140.28a.359.359,0,0,0,.356.411H2.518a.36.36,0,0,0,.356-.309l.251-1.752q.983-6.841,1.98-13.68,1.171-8.047,2.37-16.091.544-3.639,1.1-7.277c.083-.543.16-1.089.238-1.637a43.729,43.729,0,0,1,.964-5.261,15.376,15.376,0,0,1,3.784-6.769,20.214,20.214,0,0,1,6.614-4.3c.486-.208,1.026-.419,1.669-.654l-.014.012A9.382,9.382,0,0,1,20.177,84a1.287,1.287,0,0,0-.585,1.805,1.506,1.506,0,0,0,1.324.855,1.566,1.566,0,0,0,.7-.173l0,0a11.122,11.122,0,0,0,1.652-1.023,1.517,1.517,0,0,0-.15,1.092.383.383,0,0,0,.023.065v0a1.457,1.457,0,0,0,1.706.946,11.543,11.543,0,0,0,1.578-.375,19.7,19.7,0,0,0-.943,13.14,18.115,18.115,0,0,0,1.872,4.338l-.037.092c-.194.48-.388.961-.586,1.44-.241.584-.5,1.169-.759,1.758a24.148,24.148,0,0,0-2.107,6.278,14.452,14.452,0,0,0,1.737,8.558c.5.961,1.042,1.906,1.571,2.819a30.249,30.249,0,0,1,2.985,6.212,15.208,15.208,0,0,1,.677,4.854q-.008.28-.025.561c0,.031,0,.074,0,.122a1.345,1.345,0,0,0-.058.244c-.005.03-.01.059-.015.08-.1.357-.234.718-.348,1.037q-.266.744-.549,1.481a.36.36,0,0,0,.336.488h2.29a.36.36,0,0,0,.336-.232c.2-.539.44-1.167.641-1.8a9.612,9.612,0,0,0,.239-3.475,22.428,22.428,0,0,0-3.079-9.447c-.335-.6-.686-1.191-1.037-1.782-.5-.836-1.011-1.7-1.462-2.574a13.822,13.822,0,0,1-1.368-4.126,9.926,9.926,0,0,1-.114-1.432q0-.357.024-.713a4.17,4.17,0,0,1,.07-.583,17.323,17.323,0,0,1,1.026-3.328c.874-2.216,1.812-4.456,2.718-6.622q.453-1.083.9-2.165c.313-.753.6-1.405.867-2a5.143,5.143,0,0,1,.929-1.536,1.128,1.128,0,0,1,.324-.256l.065-.038.031-.015.1-.024.032.029.017.015c.012.019.026.039.038.055l.02.056.024.09c.013.051.027.1.037.156v.027c0,.071.006.142,0,.214a4.436,4.436,0,0,1-.362,1.417c-.407,1.088-.775,2.152-1.082,3.048-1.12,3.271-2.258,6.791-3.69,11.411l-.073.236a1.4,1.4,0,0,0,.884,1.712,1.33,1.33,0,0,0,1.749-.615c2.129-4.253,4.428-8.767,7.067-13.084.388-.634.7-1.115,1-1.56a2.423,2.423,0,0,1,.5-.583c.146-.11.184-.108.314-.084l.02.019.014.023.024.035a.307.307,0,0,0,.027.051,1.778,1.778,0,0,1,.058.222c0,.043,0,.089,0,.142s0,.13,0,.16a2.259,2.259,0,0,1-.106.485,6.321,6.321,0,0,1-.293.73l-.05.111c-1.341,3-2.837,5.907-4.284,8.717-1.145,2.225-2.178,4.2-3.157,6.027a1.411,1.411,0,0,0,.582,1.947,1.369,1.369,0,0,0,1.9-.508l6.011-10.219c.223-.376.445-.752.663-1.13l.067-.12a1.5,1.5,0,0,1,.295-.419.87.87,0,0,1,.505-.2.982.982,0,0,1,.218.035.328.328,0,0,1,.065.037.886.886,0,0,1,.081.266,2.483,2.483,0,0,1-.081.867,6.6,6.6,0,0,1-.7,1.71c-.685,1.263-1.387,2.489-2.106,3.739-1.162,2.021-2.392,4.127-3.656,6.259a1.361,1.361,0,0,0,.485,1.907,1.409,1.409,0,0,0,1.988-.444q2.05-3.249,4.089-6.5c.23-.368.456-.741.682-1.113.364-.6.74-1.219,1.129-1.81a2.3,2.3,0,0,1,.278-.354c.075-.08.153-.156.235-.229l.038-.035.015-.011c.042-.03.086-.056.13-.083l.111-.063.082-.041.156-.053.139,0,.03,0c.017,0,.039.014.049.017l.032.022,0,0a1.1,1.1,0,0,0,.071.148.954.954,0,0,0,.074.111,3.055,3.055,0,0,1-.364,1.983c-.3.6-.629,1.206-.949,1.789-.281.511-.561,1.021-.825,1.54-.83,1.631-1.662,3.353-2.47,5.117a2.117,2.117,0,0,0-.115,1.613q.356,1.144.722,2.285c.366,1.141.774,2.287,1.167,3.394.408,1.15.831,2.338,1.206,3.517a10.568,10.568,0,0,1,.72,4.669,11.94,11.94,0,0,1-.82,2.753.36.36,0,0,0,.335.493H47a.359.359,0,0,0,.338-.238,13.227,13.227,0,0,0,.473-1.575A10.232,10.232,0,0,0,48,135.125a21.4,21.4,0,0,0-.915-3.532c-.3-.9-.622-1.807-.936-2.683-.324-.9-.659-1.838-.962-2.764q-.246-.752-.485-1.506l.869.97q1.4,1.562,2.782,3.14c1.823,2.068,3.708,4.207,5.626,6.248l.125.14a1.272,1.272,0,0,0,1.009.463,1.305,1.305,0,0,0,1.05-.463l10.258-11.453c-.546,1.7-1.135,3.405-1.706,5.06q-.425,1.227-.844,2.458a15.814,15.814,0,0,0-1.077,7.709,9.205,9.205,0,0,0,.416,1.539.36.36,0,0,0,.339.24h2.324a.36.36,0,0,0,.333-.5c-.076-.181-.152-.367-.232-.57a7.349,7.349,0,0,1-.338-3.975,33.313,33.313,0,0,1,1.674-5.571c.265-.725.529-1.448.773-2.177.336-1,.661-2.012.981-3.022.052-.166.109-.332.166-.5a11.8,11.8,0,0,0,.346-1.141,2.421,2.421,0,0,0-.363-1.595c-.038-.078-.076-.154-.111-.229q-.6-1.284-1.218-2.558c-.626-1.285-1.19-2.4-1.723-3.4-.129-.243-.268-.486-.407-.729a7.6,7.6,0,0,1-1.037-2.415,1.958,1.958,0,0,1-.023-.383c0-.068,0-.137.011-.2.008-.036.019-.088.031-.145h0c.018-.042.031-.081.041-.113l.061-.116.02-.022a.773.773,0,0,0,.177-.091h.006c.02,0,.05,0,.106.008l.153.049c.039.023.092.05.168.089l.055.028a2.576,2.576,0,0,1,.6.6c.1.138.187.286.274.433l.109.183q.391.641.79,1.276l.08.127q2.346,3.762,4.717,7.509a1.41,1.41,0,0,0,1.989.444,1.361,1.361,0,0,0,.484-1.907q-1.554-2.621-3.078-5.257c-.71-1.228-1.471-2.549-2.218-3.9l-.161-.288a5.929,5.929,0,0,1-1.082-3.132.557.557,0,0,1,.061-.222.592.592,0,0,0,.064-.069.756.756,0,0,1,.194-.049c.2-.02.5.027.839.618.163.282.329.563.495.843l6.251,10.627a1.369,1.369,0,0,0,1.905.507,1.411,1.411,0,0,0,.582-1.946c-2.324-4.346-4.78-8.991-7.012-13.8l-.185-.391a10.831,10.831,0,0,1-.587-1.391,3.331,3.331,0,0,1-.115-.742,2.556,2.556,0,0,1,.073-.273l.05-.084a.238.238,0,0,1,.078-.06c.1-.01.111-.01.265.106a3.724,3.724,0,0,1,.805,1.032c.059.1.116.189.173.278,1.687,2.631,3.159,5.409,4.582,8.094,1.122,2.118,2.105,4.022,3.006,5.824a1.333,1.333,0,0,0,1.756.612,1.4,1.4,0,0,0,.878-1.709c-.985-3.191-1.987-6.327-2.98-9.322-.366-1.1-.737-2.2-1.12-3.3-.118-.337-.248-.674-.378-1.012a17.151,17.151,0,0,1-.645-1.88,1.964,1.964,0,0,1-.034-1.03c.007-.024.021-.059.026-.078.02-.037.041-.074.048-.087a.456.456,0,0,0,.029-.04l.006,0h.011l.084.022.275.162a2.691,2.691,0,0,1,.434.471,13.261,13.261,0,0,1,1.422,2.936c.113.291.225.579.339.858q.4.964.785,1.932c.306.76.613,1.52.926,2.276.233.563.482,1.127.732,1.694a24.9,24.9,0,0,1,1.964,5.629,9.988,9.988,0,0,1,0,2.6,13.019,13.019,0,0,1-1.221,3.921c-.5,1-1.078,1.979-1.641,2.926-.239.4-.477.8-.71,1.206a32.084,32.084,0,0,0-2.13,4.4,19.46,19.46,0,0,0-1.164,4.584,11.665,11.665,0,0,0,.038,4.166,19.7,19.7,0,0,0,.681,2.124.36.36,0,0,0,.337.234h2.322a.36.36,0,0,0,.337-.487c-.267-.706-.476-1.288-.658-1.829-.05-.15-.093-.3-.135-.458s-.084-.3-.132-.452c0-.108-.012-.215-.02-.323-.007-.093-.014-.186-.018-.277-.017-.427-.016-.857,0-1.28a15.713,15.713,0,0,1,.913-4.507,31.8,31.8,0,0,1,2.7-5.4c.622-1.067,1.265-2.17,1.822-3.307a14.157,14.157,0,0,0,1.523-8.134A23.731,23.731,0,0,0,84.9,108.08M74.423,97.54a4.832,4.832,0,0,0,.026,3.492L74.428,101c-.722-1.125-2.062-3.219-4.335-2.741a2.829,2.829,0,0,0-1.951,1.45,4.525,4.525,0,0,0-.161,3.62c.127.336.264.666.394.965a3.208,3.208,0,0,0-2.384,1,3.621,3.621,0,0,0-.8,3.086,3.115,3.115,0,0,0-1.494.292,3.468,3.468,0,0,0-1.875,3.128,8.15,8.15,0,0,0,1.385,4.235l.19.348c.67,1.238,1.35,2.571,2.075,4.067L62.3,123.988q-1.273,1.42-2.55,2.837c-1.518,1.686-3.084,3.425-4.617,5.157l-9.969-11.13c.6-1.241,1.139-2.33,1.655-3.323.185-.356.388-.711.593-1.07A11.136,11.136,0,0,0,48.9,113a4.132,4.132,0,0,0-.987-3.812,3.066,3.066,0,0,0-2.262-.813,4.412,4.412,0,0,0-.108-1.8,3.114,3.114,0,0,0-3.112-2.257h-.005a6.586,6.586,0,0,0,.754-2.755,3.488,3.488,0,0,0-1.14-2.647,3,3,0,0,0-2.876-.58,4.478,4.478,0,0,0-2.268,1.918c-.178.26-.356.525-.534.8a5.617,5.617,0,0,0,.3-2.665,3.153,3.153,0,0,0-2.3-2.643,3.632,3.632,0,0,0-3.514,1.421,13.449,13.449,0,0,0-1.911,3.642l-.131.324c-2.6-6.726-.636-15.984,6.685-19.716a12.049,12.049,0,0,1,11.524.423,22.767,22.767,0,0,1,5.266,4.938c.38.439.757.876,1.138,1.3l.693.774a1.442,1.442,0,0,0,2.058,0c.467-.521.926-1.052,1.388-1.584,1.047-1.208,2.13-2.457,3.283-3.572a12.338,12.338,0,0,1,11.111-3.289,13.784,13.784,0,0,1,9.314,8.018,16.637,16.637,0,0,1,.495,11.982,14.029,14.029,0,0,0-1.321-2.646,4.231,4.231,0,0,0-3.214-2.09,2.943,2.943,0,0,0-2.8,1.87m-31.7-26.422a32.384,32.384,0,0,0,1.229-5.955,20.589,20.589,0,0,0,3.971,2.365c4.534,2.048,9.054,2.422,12.73,1.052a19.515,19.515,0,0,0,5.66-3.427c.391-.326.776-.666,1.149-1.016a28.566,28.566,0,0,0,4.092,12.219,1.4,1.4,0,0,0,1.185.661h.01A1.6,1.6,0,0,0,73.8,76.6c.067.481.149.959.251,1.425A14.869,14.869,0,0,0,61.914,79.3a25.287,25.287,0,0,0-6.059,5.576q-.361.414-.722.824l-1.278-1.427q-.3-.332-.591-.669a29.285,29.285,0,0,0-2.048-2.176,15.367,15.367,0,0,0-11.9-4.068c1.752-1.439,2.675-3.846,3.406-6.239" transform="translate(0 -0.095)" fill="#323232"/>
    </g>
  </g>
</svg>
