<svg id="グループ_620" data-name="グループ 620" xmlns="http://www.w3.org/2000/svg" xmlns:xlink="http://www.w3.org/1999/xlink" width="152.607" height="144.864" viewBox="0 0 152.607 144.864">
  <defs>
    <clipPath id="clip-path">
      <rect id="長方形_86" data-name="長方形 86" width="152.607" height="144.864" fill="none"/>
    </clipPath>
  </defs>
  <rect id="長方形_85" data-name="長方形 85" width="9.498" height="14.929" transform="translate(36.369 113.183) rotate(-29.998)" fill="#b9e6d3"/>
  <g id="グループ_621" data-name="グループ 621">
    <g id="グループ_620-2" data-name="グループ 620" clip-path="url(#clip-path)">
      <path id="パス_916" data-name="パス 916" d="M19.334,122.954l.017-.113c.109-.725,1.477-1.459,3.12-2.272.323-.159.6-.3.741-.382.643-.387.968-.568,1.292-.475.3.086.432.352.636.755.089.175.2.389.344.643l3.828,6.631-5.41,3.123Z" transform="translate(-9.539 -59.05)" fill="#b9e6d3"/>
      <path id="パス_917" data-name="パス 917" d="M131.306,138.406,152.575,17.783a2.246,2.246,0,0,0-.177-1.324,1.311,1.311,0,0,0-.955-.758h0L62.575.03c-.737-.13-1.909.14-2.084,1.133L43.188,99.3,24.913,67.644a1.706,1.706,0,0,0-1.995-.731L22.664,67l-2.515-4.356c-.221-.384-.439-.809-.67-1.258a9.826,9.826,0,0,0-2.622-3.678c-1.919-1.289-3.87-.108-5.757,1.034-.258.157-.512.31-.759.452-2.448,1.414-4.732,2.732-3.746,5.752a1.871,1.871,0,0,0,.174.416l1.716,2.971-.475.074a1.718,1.718,0,0,0-.609.214l-6.58,3.8a1.7,1.7,0,0,0-.6,2.292l13.165,22.8a1.55,1.55,0,0,0,2.24.551,1.587,1.587,0,0,0,.65-2.244L3.955,74.477l5.139-2.966a1.719,1.719,0,0,0,.476-.407l.3-.369,1.583,2.742-.215.177a1.42,1.42,0,0,0-.53.926,1.568,1.568,0,0,0,.188,1.181L41.6,128.94l.011.034a1.206,1.206,0,0,0,.334.51l.039.041h0a.4.4,0,0,1,.04.046l.1.079c.059.05.093.08.131.106l13.4,10.676,2.091,3.622a1.549,1.549,0,0,0,2.24.55,1.586,1.586,0,0,0,.65-2.243l-2.123-3.723-1.77-11.879.45.08,72.033,12.7c.736.132,1.908-.14,2.083-1.132M9.8,63.9l.017-.113c.109-.727,1.477-1.459,3.12-2.273.323-.16.6-.3.741-.382.643-.387.968-.568,1.292-.475.3.086.432.352.636.755.089.175.2.39.344.644l3.828,6.631-5.41,3.123Zm4.834,11.624,8.226-4.749L42.92,105.533l-8.226,4.749ZM36.37,113.182l8.225-4.749,7.465,12.929-8.226,4.749Zm78.471-79.929-47.75-8.42a.427.427,0,0,0-.066,0l-.439-.037,2.358-13.378,48.247,8.507ZM120.473,20.5l20.718,3.653-5.134,29.116-20.718-3.653Zm-6.211,16.035-2.2,12.5-.324-.057L64.308,40.617a.5.5,0,0,0-.066,0l-.439-.038,2.212-12.547.324.057ZM135.479,56.55,132.6,72.877,111.461,69.15l-50.61-8.924a.424.424,0,0,0-.062,0l-.089-.006-.353-.035,2.886-16.369Zm-3.458,19.608-9.168,52-5.124-.9L52.708,115.787l-1.659-2.875,8.727-49.492ZM46.177,128.627l6.89-3.978,1.6,10.725ZM128.347,136l-.324-.057-71.8-12.661L56,121.806c0-.042-.009-.067-.014-.093l-.033-.223a1.381,1.381,0,0,0-.436-.872l-.069-.085-.567-.981,68.847,12.14c.737.128,1.908-.141,2.084-1.133l13.2-74.856.014-.076,5.7-32.35c.13-.737-.14-1.909-1.132-2.084L68.069,7.876a2.247,2.247,0,0,0-1.325.177,1.311,1.311,0,0,0-.759.956L48.456,108.422l-2.677-4.636L63.451,3.569,149.037,18.66Z" transform="translate(0 0)" fill="#323232"/>
      <path id="パス_918" data-name="パス 918" d="M229.024,105.512Z" transform="translate(-112.993 -52.056)" fill="#323232"/>
    </g>
  </g>
</svg>
