<svg id="グループ_619" data-name="グループ 619" xmlns="http://www.w3.org/2000/svg" xmlns:xlink="http://www.w3.org/1999/xlink" width="191.037" height="107.449" viewBox="0 0 191.037 107.449">
  <defs>
    <clipPath id="clip-path">
      <rect id="長方形_84" data-name="長方形 84" width="191.037" height="107.449" fill="none"/>
    </clipPath>
  </defs>
  <g id="グループ_619-2" data-name="グループ 619" clip-path="url(#clip-path)">
    <path id="パス_905" data-name="パス 905" d="M262.706,63.764h.113a3.8,3.8,0,0,0,3.917-3.676v-.026a3.817,3.817,0,0,0-4.031-3.676,3.69,3.69,0,0,0,0,7.377" transform="translate(-129.888 -28.265)" fill="#b9e6d3"/>
    <path id="パス_906" data-name="パス 906" d="M266.6,95.658l-6.633-11.5c-.1-.167-.251-.515-.429-.919a7.268,7.268,0,0,0-1.359-2.41,2.788,2.788,0,0,0-1.549-.079c-.189.019-.353.036-.459.036h-3.522c-.374,0-.908-.048-1.475-.1-1.478-.131-3.156-.281-4.008.145-.754.376-1.356,1.648-1.84,2.671-.162.342-.3.636-.422.845l-3.674,6.364c-.255.442-.583.923-.93,1.432a12.38,12.38,0,0,0-1.851,3.4l-.029.111a1.553,1.553,0,0,0,.239,1.617c.244.373.519.72.87.733.387.014.662-.342,1.118-.933l-.177-.179.2.152a8.312,8.312,0,0,0,.733-1.226c.1-.2.209-.4.318-.59l2.858-4.95a1.353,1.353,0,0,1,1.561-.617,1.371,1.371,0,0,1,1.057,1.328v22.471c0,.422-.044.934-.09,1.476a9.654,9.654,0,0,0,.1,3.534c.35,1.032.884,1.222,1.229,1.222a1.011,1.011,0,0,0,.107-.006,1.858,1.858,0,0,0,1.333-1.78,12.641,12.641,0,0,0,.019-1.678c-.009-.27-.018-.539-.018-.8V103.054a1.424,1.424,0,0,1,1.405-1.405h2.733a1.424,1.424,0,0,1,1.406,1.405v12.373c0,.263-.009.531-.017.8a12.569,12.569,0,0,0,.019,1.679,1.842,1.842,0,0,0,1.318,1.745c.262.034.932,0,1.348-1.1a8.991,8.991,0,0,0,.1-3.457c-.045-.515-.087-1-.087-1.376V91.537a1.369,1.369,0,0,1,1.056-1.327,1.354,1.354,0,0,1,1.562.616l1.934,3.35c.137.238.274.511.416.795.625,1.246,1.4,2.8,2.89,2.587l.088-.013.061-.066a1.669,1.669,0,0,0,.489-1.821" transform="translate(-119.454 -40.378)" fill="#b9e6d3"/>
    <path id="パス_907" data-name="パス 907" d="M1.463,91.1A1.425,1.425,0,0,0,.057,92.5c0,.609-.014,1.238-.028,1.846-.074,3.237-.151,6.584,1.8,9.27a9.55,9.55,0,0,0,7.734,3.8c.766.021,1.6.031,2.563.031.857,0,1.715-.008,2.572-.015s1.715-.016,2.571-.016H181.732a9.42,9.42,0,0,0,8.938-7,22.359,22.359,0,0,0,.322-5.884c-.021-.674-.043-1.37-.043-2.036a1.425,1.425,0,0,0-1.406-1.405H170.377V9.337c0-5.575-2.79-9.02-7.462-9.216C160.972.04,158.842,0,156.4,0c-2.18,0-4.4.031-6.544.061s-4.354.061-6.523.061H30.5c-4.2,0-8.781,1.953-9.021,7.436-.071,1.624-.046,3.291-.023,4.9.012.805.024,1.638.024,2.455V91.1H1.463Zm22.832-.249V10.471c0-3.252,0-7.3,4.792-7.538,2.011-.1,4.219-.149,6.75-.149,2.259,0,4.555.038,6.777.075s4.493.074,6.726.074H160.707c3.2,0,6.639.369,6.858,4.769.1,1.978.065,4,.033,5.962-.016.971-.032,1.976-.032,2.958V91.1H162.42V10.358a1.424,1.424,0,0,0-1.406-1.405H30.846a1.424,1.424,0,0,0-1.406,1.405V91.1H24.295ZM159.609,11.764V91.1H32.252V11.764H159.609ZM65.138,93.907H188.147v.247c.03,4.04.075,10.144-6.4,10.452H11.044c-.194,0-.388,0-.582.007s-.4.008-.6.008c-.226,0-.423-.005-.6-.016-6.474-.386-6.433-6.2-6.4-10.452v-.247H65.138Z" transform="translate(0)" fill="#323232"/>
    <path id="パス_908" data-name="パス 908" d="M265.841,83.9a6.2,6.2,0,0,0,.721-1.482,4.322,4.322,0,0,0-.261-2.8l0-.011,0-.013a1.53,1.53,0,0,0-.144-.341l-5.381-9.321-2-3.468c-.122-.211-.24-.424-.357-.636-.813-1.474-1.515-2.746-3.305-2.916-.415-.039-.869-.066-1.428-.082l-.687-.02.541-.425a7.15,7.15,0,0,0,2.611-4.791v-.014l0-.014a1.461,1.461,0,0,0,.042-.421v-.027a1.447,1.447,0,0,0-.041-.417l0-.014v-.014a6.609,6.609,0,1,0-10.5,5.753l.586.438-.733.01a4.758,4.758,0,0,0-3.708,1.346,15.54,15.54,0,0,0-2.17,3.431c-.266.513-.517,1-.784,1.46l-4.62,8c-.1.181-.21.361-.317.541-.969,1.64-1.885,3.189-1.205,5.076a3.848,3.848,0,0,0,3.736,2.651,4.564,4.564,0,0,0,3.8-2.07c.26-.391.51-.8.752-1.2l.015-.024.463-.763V96.279c0,.605-.041,1.307-.084,2.049-.178,3.045-.4,6.835,1.828,8.435a4.137,4.137,0,0,0,6.253-1.864c.041-.107.074-.219.11-.345l.25-.881.231.887c.525,2.015,1.692,2.994,3.57,2.994a6.155,6.155,0,0,0,.636-.034c3.966-.407,3.854-4.5,3.763-7.782-.013-.471-.025-.917-.025-1.337V82.03l.453.64c1.317,1.863,2.674,2.769,4.147,2.769a4.472,4.472,0,0,0,1.69-.361,1.492,1.492,0,0,0,1.06-1.365h.5c0,.077,0,.139.007.188M245.747,57.128a3.548,3.548,0,0,1,3.709-3.691,3.78,3.78,0,0,1,3.917,3.678v.027a3.779,3.779,0,0,1-3.916,3.676,3.547,3.547,0,0,1-3.71-3.689M263.18,82.417l-.06.066-.088.013a1.934,1.934,0,0,1-.266.019c-1.318,0-2.042-1.445-2.624-2.606-.144-.287-.28-.559-.416-.795l-.283-.49-1.651-2.86a1.312,1.312,0,0,0-1.164-.669,1.54,1.54,0,0,0-1.006.375,1.3,1.3,0,0,0-.449,1V98.655c0,.377.042.862.087,1.376a8.992,8.992,0,0,1-.1,3.457c-.365.966-.921,1.11-1.22,1.11-.711,0-1.346-.77-1.445-1.753a12.735,12.735,0,0,1-.019-1.679c.009-.271.017-.539.017-.8V87.992a1.424,1.424,0,0,0-1.405-1.405h-2.733a1.424,1.424,0,0,0-1.405,1.405v12.373c0,.264.009.533.018.8a12.64,12.64,0,0,1-.019,1.678c-.1.985-.746,1.786-1.437,1.786-.3,0-.87-.159-1.231-1.222a9.645,9.645,0,0,1-.1-3.534c.046-.542.09-1.053.09-1.475V75.929a1.407,1.407,0,0,0-1.455-1.38,1.312,1.312,0,0,0-1.164.669l-1.412,2.445-1.446,2.5c-.109.189-.213.389-.318.589a8.29,8.29,0,0,1-.733,1.227l-.021.027c-.448.582-.719.933-1.1.933-.34,0-.6-.293-.891-.734a1.554,1.554,0,0,1-.239-1.616l.029-.111a12.37,12.37,0,0,1,1.852-3.4c.347-.509.675-.99.93-1.432l2.89-5.006.784-1.358c.12-.208.259-.5.421-.844.484-1.023,1.086-2.3,1.84-2.672a4.117,4.117,0,0,1,1.76-.28c.724,0,1.534.072,2.248.136.566.05,1.1.1,1.475.1h3.522c.1,0,.273-.017.459-.036.276-.028.59-.059.869-.059a1.215,1.215,0,0,1,.679.138,7.277,7.277,0,0,1,1.359,2.41c.179.4.333.751.43.918l4.33,7.5,2.28,3.949.015.025.008.028a1.668,1.668,0,0,1-.49,1.821" transform="translate(-116.524 -25.316)" fill="#323232"/>
    <path id="パス_909" data-name="パス 909" d="M298.888,117.1Z" transform="translate(-149.828 -58.698)" fill="#323232"/>
    <path id="パス_910" data-name="パス 910" d="M108,63.716a1.53,1.53,0,0,0-1.321-.941,1.22,1.22,0,0,0-.913.44l-4.045,4.413-.148.162-.18-.127-2.772-1.957a1.255,1.255,0,0,0-.724-.255,1.369,1.369,0,0,0-1.206,1.03,1.433,1.433,0,0,0,.547,1.675l1.923,1.358,1.923,1.357a1.119,1.119,0,0,0,.65.184,1.444,1.444,0,0,0,1.027-.407l4.977-5.43a1.345,1.345,0,0,0,.261-1.5" transform="translate(-48.43 -31.468)" fill="#b9e6d3"/>
    <path id="パス_911" data-name="パス 911" d="M168.043,69.144H133.626a1.407,1.407,0,0,0,0,2.811h34.417a1.407,1.407,0,0,0,0-2.811" transform="translate(-66.308 -34.661)" fill="#323232"/>
    <path id="パス_912" data-name="パス 912" d="M107.742,97.221a1.346,1.346,0,0,0,.261-1.5,1.53,1.53,0,0,0-1.321-.941,1.219,1.219,0,0,0-.913.441l-4.045,4.413-.149.162-.179-.127-1.957-1.381-.815-.576a1.256,1.256,0,0,0-.724-.255,1.368,1.368,0,0,0-1.206,1.03,1.434,1.434,0,0,0,.547,1.676l2.318,1.636,1.528,1.079a1.12,1.12,0,0,0,.65.183,1.442,1.442,0,0,0,1.028-.407L104,101.3Z" transform="translate(-48.431 -47.51)" fill="#b9e6d3"/>
    <path id="パス_913" data-name="パス 913" d="M168.043,101.146H133.626a1.407,1.407,0,0,0,0,2.811h34.417a1.407,1.407,0,0,0,0-2.811" transform="translate(-66.308 -50.703)" fill="#323232"/>
    <path id="パス_914" data-name="パス 914" d="M97.24,132.162l1.588,1.121,2.258,1.594a1.123,1.123,0,0,0,.65.183,1.441,1.441,0,0,0,1.027-.407l4-4.365.975-1.064a1.346,1.346,0,0,0,.261-1.5,1.53,1.53,0,0,0-1.321-.941,1.22,1.22,0,0,0-.913.44l-4.045,4.413-.148.162-.18-.127-2.772-1.957a1.255,1.255,0,0,0-.724-.255,1.369,1.369,0,0,0-1.206,1.03,1.434,1.434,0,0,0,.547,1.676" transform="translate(-48.43 -63.553)" fill="#b9e6d3"/>
    <path id="パス_915" data-name="パス 915" d="M168.043,133.148H133.626a1.407,1.407,0,0,0,0,2.811h34.417a1.407,1.407,0,0,0,0-2.811" transform="translate(-66.308 -66.745)" fill="#323232"/>
  </g>
</svg>
