<svg id="グループ_622" data-name="グループ 622" xmlns="http://www.w3.org/2000/svg" xmlns:xlink="http://www.w3.org/1999/xlink" width="174.912" height="112.502" viewBox="0 0 174.912 112.502">
  <defs>
    <clipPath id="clip-path">
      <rect id="長方形_87" data-name="長方形 87" width="174.912" height="112.502" fill="none"/>
    </clipPath>
  </defs>
  <g id="グループ_622-2" data-name="グループ 622" clip-path="url(#clip-path)">
    <path id="パス_919" data-name="パス 919" d="M328.128,54.176c-1.57-.027-3.144,0-4.715,0H313.387a.9.9,0,0,1-.793-.41H309.6v9.855h2.939a.993.993,0,0,1,.844-1.482h16.456V57.23c0-1.387.163-3.022-1.715-3.053" transform="translate(-157.468 -27.346)" fill="#e9e9e9"/>
    <path id="パス_920" data-name="パス 920" d="M66.868,94.879h0" transform="translate(-34.01 -48.252)" fill="#fff"/>
    <path id="パス_921" data-name="パス 921" d="M52.167,83.54c0-.008,0-.015,0-.026v-.005a.17.17,0,0,1,0,.031" transform="translate(-26.533 -42.474)" fill="#fff"/>
    <path id="パス_922" data-name="パス 922" d="M52.153,86.441v.009c-.007-.053-.027-.158,0-.009" transform="translate(-26.519 -43.926)" fill="#fff"/>
    <path id="パス_923" data-name="パス 923" d="M52.159,83.573c-.006.039-.008.056-.007.057,0-.014,0-.036.007-.057" transform="translate(-26.525 -42.506)" fill="#fff"/>
    <path id="パス_924" data-name="パス 924" d="M61.378,74.462l.006,0-.019,0h.013" transform="translate(-31.211 -37.871)" fill="#fff"/>
    <path id="パス_925" data-name="パス 925" d="M61.222,74.477l.065-.01h-.016c-.065.006-.067.009-.05.008" transform="translate(-31.134 -37.875)" fill="#fff"/>
    <path id="パス_926" data-name="パス 926" d="M151,5.043c-.093,0-.187,0-.281,0-2.124.052-4.256,0-6.381,0H7.529c-.159,0-.321-.008-.481,0A1.913,1.913,0,0,0,5.219,7.2c-.015,2.389,0,4.779,0,7.168,1.68-.092,3.433.058,5.094.058H152.8V10.05c0-1.613.611-4.892-1.8-5.007M15.434,10.325a3.325,3.325,0,1,1,0-.655,1.028,1.028,0,0,1,.032.326,1.028,1.028,0,0,1-.033.329m7.659,0a3.327,3.327,0,1,1,0-.655,1.028,1.028,0,0,1,.032.326,1.029,1.029,0,0,1-.032.329m7.659,0a3.325,3.325,0,1,1,0-.655,1.014,1.014,0,0,1,.031.326,1.015,1.015,0,0,1-.032.329" transform="translate(-2.651 -2.563)" fill="#e9e9e9"/>
    <path id="パス_927" data-name="パス 927" d="M16.572,13.781a1.346,1.346,0,0,0,2.69,0,1.346,1.346,0,0,0-2.69,0" transform="translate(-8.429 -6.348)" fill="#b9e6d3"/>
    <path id="パス_928" data-name="パス 928" d="M255.1,135.47v13.651h2.948v-14.8H255.1Z" transform="translate(-129.749 -68.318)" fill="#b9e6d3"/>
    <path id="パス_929" data-name="パス 929" d="M228.078,58.88h-30.9c0,.581-.018,1.165-.018,1.743v17.83c.2,0,.391,0,.586,0h33.891c0-.581.011-1.163.011-1.743V58.885c-.2,0-.391,0-.586,0Z" transform="translate(-100.276 -29.947)" fill="#b9e6d3"/>
    <path id="パス_930" data-name="パス 930" d="M128.642,62.341l-.046-.006.046.006" transform="translate(-65.406 -31.704)" fill="#00c8e7"/>
    <path id="パス_931" data-name="パス 931" d="M139.486,103.245h0" transform="translate(-70.939 -52.512)" fill="#00c8e7"/>
    <path id="パス_932" data-name="パス 932" d="M138.167,71.923c-.005-.03-.012-.066-.015-.093-.015-.09-.029-.179-.045-.269a12.147,12.147,0,0,0-.51-1.913c-.052-.146-.107-.29-.164-.434l-.039-.1c-.021-.049-.042-.1-.064-.147q-.176-.391-.378-.768A12.144,12.144,0,0,0,136,66.71c-.048-.064-.15-.194-.038-.054l-.122-.153q-.133-.165-.272-.325-.287-.332-.6-.644t-.62-.578q-.172-.15-.349-.293l-.123-.1L133.8,64.5a12.032,12.032,0,0,0-1.462-.932q-.391-.212-.8-.394l-.141-.061-.134-.055c-.134-.053-.269-.1-.4-.152a12.021,12.021,0,0,0-1.712-.472c-.155-.031-.312-.059-.468-.084l-.189-.028-.048,0-.038,0v4.307a7.2,7.2,0,0,1,3.04,1.429,7,7,0,0,1-1.17,11.634q1.093,1.823,2.187,3.645c.174-.1.347-.195.517-.3.208-.13.413-.266.613-.409.1-.069.193-.14.288-.212l.063-.049.109-.088a12.263,12.263,0,0,0,1.82-1.835c.021-.027.094-.122.086-.11l.031-.042c.063-.085.124-.17.185-.256q.172-.244.333-.5a12.275,12.275,0,0,0,.654-1.168c.052-.106.1-.213.151-.32l.057-.129s.043-.1.053-.124l.022-.056.052-.133q.051-.133.1-.267a12.028,12.028,0,0,0,.386-1.309q.078-.336.138-.676c.019-.108.035-.217.052-.325l0-.016c.006-.055.008-.07.007-.065l.006-.046a12.572,12.572,0,0,0,.081-1.413c0-.36-.016-.72-.047-1.079-.015-.162-.029-.325-.053-.486" transform="translate(-65.308 -31.694)" fill="#b9e6d3"/>
    <path id="パス_933" data-name="パス 933" d="M148.291,88.021c0,.019,0,.038-.007.057,0-.024.006-.051.007-.057" transform="translate(-75.419 -44.769)" fill="#00c8e7"/>
    <path id="パス_934" data-name="パス 934" d="M148.274,88.18c0-.014,0-.028.005-.042v.007c0,.011,0,.021,0,.035" transform="translate(-75.414 -44.828)" fill="#00c8e7"/>
    <path id="パス_935" data-name="パス 935" d="M148.282,88.085v-.007c0-.019,0-.038.007-.057s0,.01-.008.065" transform="translate(-75.418 -44.767)" fill="#353535"/>
    <path id="パス_936" data-name="パス 936" d="M40.016,88.071v0" transform="translate(-20.353 -44.794)" fill="#00c8e7"/>
    <path id="パス_937" data-name="パス 937" d="M71.653,106.14h0" transform="translate(-36.444 -53.973)" fill="#00c8e7"/>
    <path id="パス_938" data-name="パス 938" d="M51.088,80.436a7.134,7.134,0,0,1-4.606-1.728,7.039,7.039,0,0,1-1.909-7.9,7.19,7.19,0,0,1,2.768-3.332A6.962,6.962,0,0,1,50.695,66.4V62.17c-.1,0-.2,0-.3.009q-.276.015-.55.044c-.091.009-.182.02-.272.031l-.041,0-.059.01q-.534.082-1.06.211t-1.024.3c-.167.057-.333.118-.5.183-.077.03-.154.059-.229.093l-.1.048a12.112,12.112,0,0,0-1.827,1.022q-.229.156-.451.321c-.046.034-.123.1-.112.086l-.143.115q-.4.329-.775.693t-.713.756c-.121.14-.233.285-.352.426v0l-.037.049c-.053.069-.1.14-.154.21a12.192,12.192,0,0,0-1.069,1.8q-.064.133-.125.268l-.054.12-.007.017c-.01.023-.026.059-.031.073l-.049.123q-.043.108-.083.216-.186.5-.328,1.013T40,71.46q-.031.167-.057.335c0,.029-.008.058-.013.087-.019.164-.038.327-.052.491a12.318,12.318,0,0,0,.016,2.253q.014.137.03.274a.212.212,0,0,1,.012.088V75q.041.268.093.534.1.527.254,1.044t.342,1.006c.034.088.068.177.106.264.017.035.035.077.046.1q.1.225.212.445a12.14,12.14,0,0,0,1.092,1.78c.03.041.226.286.077.1.055.067.108.136.163.2q.155.189.316.371.346.388.723.747c.252.239.515.464.785.683l.042.034.06.045c.069.052.14.1.21.154q.2.143.4.277a16.124,16.124,0,0,0,1.842,1h0l.119.049c.082.033.164.064.247.1q.233.087.469.165.509.167,1.03.287.279.064.562.116.133.024.267.046l.1.016a.028.028,0,0,1,.013,0,4.778,4.778,0,0,1,.53.062c.184.015.368.027.552.034a12.211,12.211,0,0,0,1.265-.015c.228-.014.454-.036.68-.062l.034,0,.148-.022c.111-.017.222-.036.332-.056a12.068,12.068,0,0,0,1.3-.314q.316-.1.626-.208c.1-.037.205-.076.308-.116l.152-.061.018-.008a13.834,13.834,0,0,0,1.323-.682l-2.624-3.389a7.15,7.15,0,0,1-3.069.714" transform="translate(-20.26 -31.62)" fill="#b9e6d3"/>
    <path id="パス_939" data-name="パス 939" d="M59.509,107.743h0" transform="translate(-30.267 -54.799)" fill="#00c8e7"/>
    <path id="パス_940" data-name="パス 940" d="M40.022,88.111a.334.334,0,0,0,.009.056c0-.022-.008-.07-.012-.084l0,.028" transform="translate(-20.354 -44.8)" fill="#00c8e7"/>
    <path id="パス_941" data-name="パス 941" d="M59.517,107.739l.03,0c.119.018.022-.008-.019-.008l-.012,0" transform="translate(-30.271 -54.796)" fill="#00c8e7"/>
    <path id="パス_942" data-name="パス 942" d="M52.153,83.6a.31.31,0,0,0,.011-.083l0,.026c0,.02-.005.043-.007.057" transform="translate(-26.526 -42.48)" fill="#353535"/>
    <path id="パス_943" data-name="パス 943" d="M61.232,74.476a.319.319,0,0,0,.078-.011H61.3l-.065.01" transform="translate(-31.143 -37.874)" fill="#353535"/>
    <path id="パス_944" data-name="パス 944" d="M59.516,107.739l.012,0a.026.026,0,0,0-.013,0h0" transform="translate(-30.27 -54.796)" fill="#353535"/>
    <path id="パス_945" data-name="パス 945" d="M40.018,88.079c0,.014.009.062.012.084a.221.221,0,0,0-.012-.088v0" transform="translate(-20.354 -44.796)" fill="#353535"/>
    <path id="パス_946" data-name="パス 946" d="M218.862,56.474V55.452c0-.223,0-.445.006-.668.006-.451.013-.918-.007-1.38a4,4,0,0,0-3.022-3.805,11.012,11.012,0,0,0-3.011-.138c-.377.016-.747.033-1.1.033h-11.8a1.388,1.388,0,0,0-1.26.727,1.614,1.614,0,0,0,.053,1.6v0a1.4,1.4,0,0,0,1.205.636h10.026c.525,0,1.049,0,1.574-.006,1.027-.006,2.092-.012,3.133.006,1.14.02,1.248.665,1.234,2.248l0,4.732H199.932a1.4,1.4,0,0,0-1.221.659,1.607,1.607,0,0,0-.064,1.532v0a1.382,1.382,0,0,0,1.283.772H215.9v70.409c0,.317-.017.65-.034.99-.013.26-.027.525-.033.792H89.962c-.15,0-.3-.005-.459-.011v-6.172a1.39,1.39,0,0,0-.723-1.258,1.6,1.6,0,0,0-1.561.022,1.4,1.4,0,0,0-.683,1.236v7.667a1.5,1.5,0,0,0,1.484,1.483H201.539c1.73,0,3.464.019,5.2.039,1.716.019,3.462.039,5.214.039s3.5-.02,5.234-.078h.194a1.5,1.5,0,0,0,1.483-1.483V66.151c0-1.065.016-2.134.031-3.2.03-2.122.063-4.317-.032-6.473m-.491-.111Z" transform="translate(-44.013 -25.137)" fill="#353535"/>
    <path id="パス_947" data-name="パス 947" d="M147,100.22c.641.005,1.292.012,1.947.012s1.31-.006,1.961-.024c.05,0,.1,0,.148,0h.089a1.366,1.366,0,0,0,1.021-.409,1.413,1.413,0,0,0,.462-1.073V18.85c0-1.221.017-2.446.033-3.672.033-2.428.067-4.939-.033-7.4v-1.4c0-.238,0-.478.009-.718.011-.554.022-1.128-.023-1.7A4.3,4.3,0,0,0,148.626.029a1.641,1.641,0,0,0-.272-.024H5.43L5.086,0A7.724,7.724,0,0,0,3.616.08C-.256.777-.079,4.959.051,8.013c.022.513.042,1,.042,1.436V87.518c0,1.221-.017,2.445-.033,3.672-.033,2.428-.067,4.938.033,7.4v.134a1.5,1.5,0,0,0,1.483,1.483H145.059c.646,0,1.292.006,1.939.012m2.694-93.614c-.016.322-.031.622-.031.88v3.882h-142c-.625,0-1.263-.022-1.906-.043s-1.323-.045-1.99-.045q-.355,0-.707.01l0-1.094c0-1.853-.007-3.707,0-5.56,0-.728.244-1.609,1.364-1.667.1-.005.192,0,.287,0l136.982,0c.707,0,1.414.006,2.122.012,1.4.01,2.847.023,4.271-.012.057,0,.113,0,.171,0h.074a1.222,1.222,0,0,1,.9.371c.6.66.521,2.165.465,3.265M7.661,97.242c-.626,0-1.265-.022-1.908-.043-.886-.029-1.8-.059-2.693-.035V14.335h142c.629,0,1.259.005,1.889.01.889.007,1.8.016,2.712.007V87.518c0,1.212-.016,2.427-.032,3.644-.026,1.994-.053,4.05-.007,6.079H7.661Z" transform="translate(0 0)" fill="#353535"/>
    <path id="パス_948" data-name="パス 948" d="M15.355,7.352a3.818,3.818,0,0,0-.149,7.632c.057,0,.114,0,.171,0a3.82,3.82,0,0,0,3.756-3.39,1.54,1.54,0,0,0,.042-.427,1.494,1.494,0,0,0-.041-.423,3.857,3.857,0,0,0-3.779-3.4m-.066,4.627a.808.808,0,0,1,0-1.615h.024a.849.849,0,0,1,.9.807.871.871,0,0,1-.919.807" transform="translate(-5.867 -3.739)" fill="#353535"/>
    <path id="パス_949" data-name="パス 949" d="M30.942,7.352a3.818,3.818,0,0,0-.149,7.632c.057,0,.114,0,.171,0A3.82,3.82,0,0,0,34.72,11.6a1.54,1.54,0,0,0,.042-.427,1.494,1.494,0,0,0-.041-.423,3.857,3.857,0,0,0-3.779-3.4m-.066,4.627a.808.808,0,0,1,0-1.615H30.9a.85.85,0,0,1,.9.807.871.871,0,0,1-.919.807" transform="translate(-13.795 -3.739)" fill="#353535"/>
    <path id="パス_950" data-name="パス 950" d="M46.528,7.352a3.818,3.818,0,0,0-.149,7.632c.057,0,.114,0,.171,0a3.82,3.82,0,0,0,3.756-3.39,1.54,1.54,0,0,0,.042-.427,1.494,1.494,0,0,0-.041-.423,3.857,3.857,0,0,0-3.779-3.4m-.066,4.627a.808.808,0,0,1,0-1.615h.024a.85.85,0,0,1,.9.807.866.866,0,0,1-.919.807" transform="translate(-21.722 -3.739)" fill="#353535"/>
    <path id="パス_951" data-name="パス 951" d="M238.979,140.738h-4.734a1.5,1.5,0,0,0-1.483,1.483v11.055a1.368,1.368,0,0,0,.409,1.022,1.414,1.414,0,0,0,1.073.461h4.734a1.5,1.5,0,0,0,1.484-1.483V142.221a1.5,1.5,0,0,0-1.484-1.483M237.5,151.794h-1.768V143.7H237.5Z" transform="translate(-118.386 -71.581)" fill="#353535"/>
    <path id="パス_952" data-name="パス 952" d="M221.473,140.738H216.74a1.5,1.5,0,0,0-1.484,1.483v11.055a1.368,1.368,0,0,0,.41,1.022,1.414,1.414,0,0,0,1.074.461h4.733a1.5,1.5,0,0,0,1.483-1.483V142.221a1.5,1.5,0,0,0-1.483-1.483m-1.483,11.056h-1.768V143.7h1.768Z" transform="translate(-109.482 -71.581)" fill="#353535"/>
    <path id="パス_953" data-name="パス 953" d="M203.967,148.238h-4.734a1.5,1.5,0,0,0-1.483,1.483v7.37a1.368,1.368,0,0,0,.41,1.022,1.414,1.414,0,0,0,1.073.461h4.734a1.5,1.5,0,0,0,1.483-1.483v-7.37a1.5,1.5,0,0,0-1.483-1.483m-1.483,7.37h-1.768v-4.4h1.768Z" transform="translate(-100.578 -75.396)" fill="#353535"/>
    <path id="パス_954" data-name="パス 954" d="M227.521,112.86l-11.2,9.9H205.093a3.139,3.139,0,0,0-2.22,1.082l-3.135,2.775h-4.022a1.484,1.484,0,0,0,0,2.967h2.968c.152,0,.308.006.463.012s.333.013.5.013a2.687,2.687,0,0,0,1.723-.486c1.021-.788,1.988-1.682,2.923-2.545.309-.285.617-.57.926-.85,1.129,0,2.259.01,3.39.018,2.606.019,5.3.037,7.951-.019a4.077,4.077,0,0,0,2.612-1.51c.168-.164.331-.324.493-.467l2.418-2.138a1.347,1.347,0,0,0-.2.7V138.9a1.41,1.41,0,0,0,.442,1.009,1.3,1.3,0,0,0,.891.376H228a1.4,1.4,0,0,0,1.384-1.384V122.318A1.4,1.4,0,0,0,228,120.934h-4.733a1.341,1.341,0,0,0-.538.114L229.574,115a1.355,1.355,0,0,0,.109-1.975,1.5,1.5,0,0,0-2.161-.164M224.652,123.7h1.966v13.815h-1.966Z" transform="translate(-98.807 -57.205)" fill="#353535"/>
    <path id="パス_955" data-name="パス 955" d="M33.43,137.122H92.263a1.483,1.483,0,0,0,0-2.966H33.43a1.483,1.483,0,0,0,0,2.966" transform="translate(-16.265 -68.233)" fill="#353535"/>
    <path id="パス_956" data-name="パス 956" d="M33.43,149.334H92.263a1.483,1.483,0,0,0,0-2.966H33.43a1.483,1.483,0,0,0,0,2.966" transform="translate(-16.265 -74.445)" fill="#353535"/>
    <path id="パス_957" data-name="パス 957" d="M93.712,160.062a1.421,1.421,0,0,0-1.449-1.483H33.43a1.484,1.484,0,0,0,0,2.967H92.263a1.421,1.421,0,0,0,1.449-1.484" transform="translate(-16.265 -80.655)" fill="#353535"/>
    <path id="パス_958" data-name="パス 958" d="M193.9,78.374l35.263,0,.476,0c.161,0,.322,0,.483,0l-.01-.491.06.491a1.406,1.406,0,0,0,1.008-.442,1.289,1.289,0,0,0,.375-.942V58.262c0-.286,0-.574.006-.861,0-.574.011-1.167-.006-1.756v-.019a1.4,1.4,0,0,0-1.384-1.384l-35.263,0c-.32,0-.639,0-.959,0l.01.491-.06-.491a1.4,1.4,0,0,0-1.384,1.384V74.354c0,.286,0,.573-.006.86-.005.574-.011,1.167.006,1.775a1.4,1.4,0,0,0,1.384,1.384m1.384-2.768V58.262c0-.284,0-.57.009-.855,0-.132,0-.264.005-.4h33.49V74.354c0,.282,0,.565,0,.847,0,.135,0,.27,0,.4h-33.5Z" transform="translate(-97.908 -27.586)" fill="#353535"/>
    <path id="パス_959" data-name="パス 959" d="M108.511,84.244a14.625,14.625,0,0,0,2.935.3A14.225,14.225,0,0,0,117.3,83.27a1.414,1.414,0,0,0,.5-.366,13.522,13.522,0,0,0-1.344-24.537h0a13.216,13.216,0,0,0-3.881-.9,1.519,1.519,0,0,0-.574-.137,13.628,13.628,0,0,0-3.5,26.915m13.663-11.885a.458.458,0,0,0-.011.052l-.051.317q-.057.326-.132.649a11.564,11.564,0,0,1-.371,1.256c-.03.086-.062.171-.1.257l-.05.126-.016.04-.108.247q-.07.155-.145.307a11.616,11.616,0,0,1-.627,1.121q-.154.242-.319.475c-.058.083-.117.164-.207.285h0l0,0h0l-.006.008-.016.019-.053.068a11.784,11.784,0,0,1-1.748,1.763l-.155.123c-.092.069-.184.138-.278.2q-.289.2-.59.392l-.082.051-1.682-2.8a7.481,7.481,0,0,0,.8-12.194,7.707,7.707,0,0,0-2.854-1.433V60.347l.157.029a11.767,11.767,0,0,1,1.643.453c.13.047.259.1.387.146l.254.108q.389.175.765.378a11.815,11.815,0,0,1,1.4.892l.195.151q.17.137.336.281.307.267.6.555t.574.617q.133.155.26.312l.07.088.015.02.064.084A11.654,11.654,0,0,1,121,65.894q.195.361.363.738l.1.224q.083.207.158.418a11.6,11.6,0,0,1,.488,1.835c.016.086.03.172.044.258l0,.015.013.077c.022.141.034.284.049.455.029.33.045.679.046,1.033a12.12,12.12,0,0,1-.078,1.358l-.007.056Zm-11.4,6.15a7.89,7.89,0,0,0,1.978-.074l1.657,2.763a10.8,10.8,0,0,1-3.933.354ZM112.458,66.3a5.819,5.819,0,0,1,.712.205l.257.106c.067.031.134.063.2.1a5.667,5.667,0,0,1,.621.374l.2.153c.061.052.122.1.182.156a5.751,5.751,0,0,1,.5.516l.167.209c.044.061.087.122.129.185a5.673,5.673,0,0,1,.36.63l.106.239c.028.075.057.15.082.225a5.648,5.648,0,0,1,.189.717l.04.262c.008.084.016.168.021.251a5.691,5.691,0,0,1-.01.788l-.01.1c0,.009,0,.018,0,.028l-.011.088c-.017.107-.038.213-.062.318a5.658,5.658,0,0,1-.221.738l-.083.2q-.067.143-.142.282a5.666,5.666,0,0,1-.4.635l-.051.064a.389.389,0,0,0-.028.037h0l-.075.089q-.133.155-.277.3c-.088.088-.18.175-.273.257-.048.041-.1.082-.144.121l-.058.047a6.886,6.886,0,0,1-.7.441c-.07.037-.141.071-.213.105a.95.95,0,0,0-.4.059,5.024,5.024,0,0,1-3.16-.006,4.751,4.751,0,0,1-3.057-4.369,4.694,4.694,0,0,1,1.515-3.385,4.822,4.822,0,0,1,3.6-1.241,1.321,1.321,0,0,0,.405-.04l.094.019m-1.951-5.955v3.067a7.7,7.7,0,0,0-6.619,7.337,1.57,1.57,0,0,0-.01.189,1.262,1.262,0,0,0,.011.2,7.734,7.734,0,0,0,4,6.477l-.314,3.224a10.635,10.635,0,0,1,2.928-20.5" transform="translate(-49.787 -29.154)" fill="#353535"/>
    <path id="パス_960" data-name="パス 960" d="M44.6,83.839a13.26,13.26,0,0,0,4.085.635,13.712,13.712,0,0,0,6.692-1.73c.233-.132.476-.281.754-.465a1.179,1.179,0,0,0,.473-.2,13.933,13.933,0,0,0,5.76-10.965,1.517,1.517,0,0,0,0-.172l-.005-.229a13.72,13.72,0,0,0-13.1-13.375h0a1.365,1.365,0,0,0-.552.092A13.669,13.669,0,0,0,40.1,60.548a13.471,13.471,0,0,0-4.671,8,13.527,13.527,0,0,0,9.172,15.3M51.344,74.8a1.739,1.739,0,0,0-.357.33q-.115.063-.234.122c-.057.028-.115.054-.2.09-.132.051-.264.1-.4.14-.187.057-.374.1-.563.135l-.217.045c-.066.007-.133.014-.2.019-.147.011-.294.016-.435.017s-.279,0-.418-.015c-.072,0-.144-.012-.216-.02l-.076-.011a5.731,5.731,0,0,1-.838-.21c-.057-.019-.114-.039-.168-.058l-.209-.086c-.073-.034-.145-.069-.217-.107a6.247,6.247,0,0,1-.72-.446l-.045-.033-.121-.1q-.159-.136-.309-.284c-.1-.1-.195-.2-.286-.3-.039-.045-.078-.091-.116-.138l-.38.312.342-.359a6.513,6.513,0,0,1-.451-.721c-.037-.071-.07-.142-.1-.214l-.062-.129s-.016-.044-.018-.05c-.029-.076-.057-.153-.082-.229a5.537,5.537,0,0,1-.2-.805l-.009-.056c0-.046-.013-.114-.02-.172C44,71.306,44,71.146,44,70.988c0-.139,0-.278.013-.417,0-.073.011-.147.02-.224l0-.022c0-.01,0-.026,0-.034l0-.012a5.632,5.632,0,0,1,.195-.809l.031-.1a1.509,1.509,0,0,1,.077-.22c.014-.027.03-.056.044-.087q.05-.109.105-.217a5.6,5.6,0,0,1,.437-.716l.137-.175c.09-.107.183-.21.282-.31s.2-.2.3-.289c.044-.039.089-.077.135-.115l.2-.14a6.6,6.6,0,0,1,.644-.4c.072-.036.144-.072.252-.121l.023-.01c.146-.055.291-.109.44-.154s.3-.083.446-.115c.081-.017.162-.034.236-.046l.049-.007.031-.005.022,0c.2-.019.4-.029.6-.029a1.786,1.786,0,0,0,.467.114A4.648,4.648,0,0,1,51.344,74.8M41.987,62.57l.139-.112.014-.01.084-.065c.143-.106.286-.209.433-.309a11.734,11.734,0,0,1,1.748-.978l.107-.049c.063-.028.129-.053.21-.084q.236-.094.477-.175c.323-.111.654-.209.982-.289s.677-.15,1.016-.2l.029-.007.057-.005.263-.03c.1-.01.207-.02.311-.027V63.5A7.393,7.393,0,0,0,44.731,64.6a7.69,7.69,0,0,0-2.957,3.557,7.571,7.571,0,0,0,2.043,8.463,7.469,7.469,0,0,0,7.843,1.248L53.7,80.5c-.26.138-.523.267-.786.385l-.15.06q-.146.058-.294.111-.3.108-.6.2a11.9,11.9,0,0,1-1.242.3c-.106.019-.211.037-.319.054l-.162.024c-.218.025-.436.046-.655.06a11.822,11.822,0,0,1-1.216.014c-.176-.007-.353-.018-.521-.032l-.087-.013a3.491,3.491,0,0,0-.467-.053h-.026l-.293-.05q-.271-.049-.54-.111c-.332-.077-.664-.17-.987-.276q-.228-.074-.452-.158c-.079-.029-.158-.06-.237-.091l-.15-.065a15.161,15.161,0,0,1-1.724-.936c-.131-.086-.26-.174-.385-.265l-.291-.218c-.285-.231-.533-.446-.755-.657-.241-.229-.475-.47-.694-.717-.1-.116-.2-.234-.3-.355l-.114-.143,0-.006h0l0,0c-.011-.016-.022-.031-.035-.048l-.068-.087a11.7,11.7,0,0,1-1.048-1.708q-.106-.212-.2-.427l-.046-.1c-.029-.064-.054-.13-.1-.241-.123-.315-.233-.64-.327-.965s-.178-.665-.244-1q-.049-.251-.087-.5v0a.493.493,0,0,0-.011-.06c0-.007,0-.014,0-.021h0v-.019l-.028-.257a11.819,11.819,0,0,1-.015-2.163c.013-.159.032-.317.051-.476l-.488-.057.5-.012c.017-.108.034-.215.054-.321.061-.336.139-.674.23-1.006s.2-.652.315-.971l.212-.518q.059-.129.121-.257a11.644,11.644,0,0,1,1.026-1.724c.049-.067.1-.134.17-.231l.155-.188c.063-.078.127-.157.193-.233.217-.251.448-.495.685-.725s.488-.456.744-.666m17.329,9.641a10.748,10.748,0,0,1-3.271,6.5l-1.9-2.45a7.63,7.63,0,0,0,2.091-4.054Zm-3.184-2.966a7.66,7.66,0,0,0-5.408-5.6V60.491a10.764,10.764,0,0,1,8.525,8.754Z" transform="translate(-17.914 -29.163)" fill="#353535"/>
  </g>
</svg>
