<svg xmlns="http://www.w3.org/2000/svg" xmlns:xlink="http://www.w3.org/1999/xlink" width="638.379" height="209.103" viewBox="0 0 638.379 209.103">
  <defs>
    <clipPath id="clip-path">
      <rect id="長方形_169" data-name="長方形 169" width="7.18" height="7.18" transform="translate(135.627 59.005)" fill="none"/>
    </clipPath>
    <clipPath id="clip-path-2">
      <rect id="長方形_170" data-name="長方形 170" width="7.18" height="7.18" transform="translate(201.354 59.005)" fill="none"/>
    </clipPath>
    <clipPath id="clip-path-3">
      <rect id="長方形_171" data-name="長方形 171" width="7.179" height="7.18" transform="translate(315.459 59.005)" fill="none"/>
    </clipPath>
    <clipPath id="clip-path-4">
      <rect id="長方形_172" data-name="長方形 172" width="7.18" height="7.18" transform="translate(386.421 59.005)" fill="none"/>
    </clipPath>
    <clipPath id="clip-path-5">
      <rect id="長方形_177" data-name="長方形 177" width="112.932" height="97.367" fill="#333"/>
    </clipPath>
  </defs>
  <g id="グループ_780" data-name="グループ 780" transform="translate(-9.729 -5.903)">
    <g id="グループ_785" data-name="グループ 785">
      <path id="パス_1194" data-name="パス 1194" d="M647.976,148.508c.286-.3.125-.982-.666-.847l-.561,1.155Z" fill="#ffd24a"/>
      <path id="パス_1195" data-name="パス 1195" d="M642.656,146.368c-.93.561-2,1.545-1.4,2.606.921-1.111,1.144-.648,2.135-1.968.792-.135,1.381.37,1.248.795.28-.3,1.229.254,1.655-.472a3.078,3.078,0,0,0-3.7-.192c-.292-.253-.009-.555.058-.769" fill="#ffd24a"/>
      <path id="パス_1196" data-name="パス 1196" d="M565.354,144.567l.5.137a1.306,1.306,0,0,0-.5-.137" fill="#ffd24a"/>
      <path id="パス_1197" data-name="パス 1197" d="M517.458,143.934c.365-.028.517-.142.535-.247-.338.076-.616.146-.535.247" fill="#ffd24a"/>
      <path id="パス_1198" data-name="パス 1198" d="M509.28,142.66c.176.038.323.054.482.08-.184-.108-.369-.166-.482-.08" fill="#ffd24a"/>
      <path id="パス_1199" data-name="パス 1199" d="M565.354,144.567l-1.28-.363c-.089.377.656.28,1.28.363" fill="#ffd24a"/>
      <path id="パス_1200" data-name="パス 1200" d="M632,149.155a1.907,1.907,0,0,0,.694-.3c-.22.05-.433.092-.652.123-.013.062-.023.116-.042.181" fill="#ffd24a"/>
      <path id="パス_1201" data-name="パス 1201" d="M586.468,143.631l.389,0a2.851,2.851,0,0,0,.323-.469Z" fill="#ffd24a"/>
      <path id="パス_1202" data-name="パス 1202" d="M602.671,143.454c-.366-.043-.494.938-.634,1.367a1.168,1.168,0,0,1,.8-.672,1.645,1.645,0,0,0-.165-.7" fill="#ffd24a"/>
      <path id="パス_1203" data-name="パス 1203" d="M628.365,145.18l.456-.135c-.119.041-.318.081-.456.135" fill="#ffd24a"/>
      <path id="パス_1204" data-name="パス 1204" d="M574.87,143.419a.81.81,0,0,0-.148-.351.568.568,0,0,0,.148.351" fill="#ffd24a"/>
      <path id="パス_1205" data-name="パス 1205" d="M121.656,150.791a1.114,1.114,0,0,0,0-.174c-.094.1-.124.168,0,.174" fill="#ffd24a"/>
      <path id="パス_1206" data-name="パス 1206" d="M102.873,145.932l.26-.053a3.706,3.706,0,0,0,.057-.549Z" fill="#ffd24a"/>
      <path id="パス_1207" data-name="パス 1207" d="M494.315,141.4a.68.68,0,0,0,.066.019c.394-.112.171-.092-.066-.019" fill="#ffd24a"/>
      <path id="パス_1208" data-name="パス 1208" d="M356.926,142.127c1.556.877-2.533,1.126-.19,2.1-.218-.383,2.13-1.529.19-2.1" fill="#ffd24a"/>
      <path id="パス_1209" data-name="パス 1209" d="M631.577,149.026c-.219.011-.441.02-.664.01a1.971,1.971,0,0,0,.664-.01" fill="#ffd24a"/>
      <path id="パス_1210" data-name="パス 1210" d="M356.737,144.226v.009l.242.092c-.1-.04-.157-.067-.242-.1" fill="#ffd24a"/>
      <path id="パス_1211" data-name="パス 1211" d="M459.832,141.993a1.193,1.193,0,0,0,.352.43c-.012-.1-.092-.223-.352-.43" fill="#ffd24a"/>
      <path id="パス_1212" data-name="パス 1212" d="M485.521,143.389l-.636-.131a2.268,2.268,0,0,0,.636.131" fill="#ffd24a"/>
      <path id="パス_1213" data-name="パス 1213" d="M446.494,143.378a1.39,1.39,0,0,0-.935-.079.609.609,0,0,0,.143.12.728.728,0,0,1,.792-.041" fill="#ffd24a"/>
      <path id="パス_1214" data-name="パス 1214" d="M432.611,143.384a2.679,2.679,0,0,0,.256.2c.138-.02.3-.036.44-.053Z" fill="#ffd24a"/>
      <path id="パス_1215" data-name="パス 1215" d="M163.847,150.319a2.821,2.821,0,0,1-.641-.882c.214.7-1.826.947.641.882" fill="#ffd24a"/>
      <path id="パス_1216" data-name="パス 1216" d="M631.989,148.6a.547.547,0,0,1-.413.423c.16-.012.313-.031.462-.053a.344.344,0,0,0-.049-.37" fill="#ffd24a"/>
      <path id="パス_1217" data-name="パス 1217" d="M445.929,151.117l-2.206-.145a15.35,15.35,0,0,0,2.206.145" fill="#ffd24a"/>
      <path id="パス_1218" data-name="パス 1218" d="M263.445,150.179l-.506.118a.647.647,0,0,0,.506-.118" fill="#ffd24a"/>
      <path id="パス_1219" data-name="パス 1219" d="M437.178,151.117a3.267,3.267,0,0,0-1.242-.678.907.907,0,0,0-.256.253Z" fill="#ffd24a"/>
      <path id="パス_1220" data-name="パス 1220" d="M163.2,149.426a.016.016,0,0,1,.005.01.016.016,0,0,0-.005-.01" fill="#ffd24a"/>
      <path id="パス_1221" data-name="パス 1221" d="M148.673,151.756c2.1.028.987-1.262,1.433-2,2.508-.366,1.161.949,2.014,1.608,1.567-.341,2.768-1.524,3.936-1.474.087.213.314.289.048.555,1.656-1.024,4.916-.049,6.845-1.337a.741.741,0,0,1,.252.319,3.173,3.173,0,0,1-.3-1.768c.942-.023,1.748-.815,2.1.028-.578-.025-.626.316-.9.578l.987-.367c.889,1.212-1.347.42-1.347,1.318,1.925-.4,4.168-1.4,5.643-1.055.309,1.184-3.449.4-1.481,1.453l-2.282-.453c1.744,1.869-1.387-.132.215,1.869,3,.343,3.36-.6,6.356-.258.675-.658-.223-.974.452-1.634,4.259-1.183,3.353,2.981,6.484,1.4.81-.79,1.124-2.29,3.354-1.495l-.76,1.339c2.908.133,1.66-1.927,4.706-1.025-.542.526-2.286.444-1.846.6,1.973,1.057,1.4-.761,2.912-.761l.314,1.187c3.1-.187,6.507-1.044,9.936-1.259-.189.352-.777.724.025,1.086,4.325-.593,9.233.145,13.4.849l1.594-1.025c.371.012.688.464.286.662,1.626.388.085-.65.866-1.052.925-.072,1.222.589.636.9,2.869-.87,8.172-1.872,11.2-.775l-.589.305c2.353.416,2.656-2.1,4.839-1.144l-.419.181c5.109.444,10.754-.5,14.652,1.052.741-1.476,5.057.659,5.385-1.4,2.917,1.019,2.082,1.386,6.19,2.073,1.1.094,1.635-1.286,2.992-1.5l.033,1.075,1.842-1.128.98,1.287,1.272-.276c-.507-.064-1.077-.484-1-.793,1.987-.487,4.845.75,4.894,1.3l4.7-.909c-.1.432-.891.581-1.514.857,2.51-1.1.456,1.132,2.756.127-.308-.245.167-.641.219-.858,1.147.65,3.756.655,5.687.381l-.371.742c3.488.188,7.353-.356,11.267-.343-1.4-.346-1.082-1.63.066-1.753l.459,1.137c.741-.7-1.2-.43.323-1.29,1.462.131.983,1.293.143,1.663l1.778-.4c.1.341-.313.519-.421.952.729-.705,3.068,1.141,4.121-.085l.1.338c3.912.009,5.687-.382,8.874-.439.063-.98,1.309-.763,2.259-1.557,2.342.314,4.942,1.084,7.764,1,1.983-.489.579-.83,1.471-1.413.146.893,2.964.81,1.5,1.45a51.225,51.225,0,0,0,8.611-.9c-.465-.366-.988-.526-.717-.831.777-.146,1.768.375,1.657.805l-.2.092c4.808-1.34,11.1,2.606,14.927.742l-.215.094,3.971-.972c1.827.154-1.1.671.256,1.224,4.283-1.49,6.768.218,10.3-.777,2.73,2.637,9.689-.184,13.374,1.5l-.213-.621c.952-.609,1.152.355,1.854.5-.1-.483-1.033-.558-.442-.9,8.069-.748,16.655.907,24.927,1.467,3.026.167,1.717-3.213,5.531-1.729l-1.082,1.152c6.1-1.382,12.484.047,18.462-1.125-.357.266-.367.612-.95.607,1.262.837,4.668.04,4.69-.644.931.08.215.62.789.966,1.266.495,3.178-1.068,3.851-.234.115.135-.355.27-.587.335.825-.4,3.845.1,3.054-.862,2.244.46,4.292-.43,6.081.141,1.167-1.08,3.841.521,4.211-1.008-.16,1.579,3.933,1.274,5.352.532-.475.476,1.233.493.677,1.154,1.619-.022,3.1-.315,2.82-1.125,2.982,1.888,5.994-1.521,7.673.9,4.809-.85,9.258-1.424,13.584-1.793-.156,1.574-4.781.157-4.6,1.81,4.1-.65,6.471-2,10.54-1.621,1.053.216-.6.682-.954.953,4.1-.65,7.926.142,11.574-.715-.01.147-.4.306-.776.427.72-.052,1.672.232,1.591-.485l-.7.194c-1.148-1.038,2.855-2.169,2.984-2.718-1.22,2.051,3.6.517,1.665,3.107.473-.135,1.066-.474.958-.952.7.14.925.419.213.964,2.575-.39,1.66-1.152,3.993-1.136-.008.347-.479.482-.72.888a6.073,6.073,0,0,1,4.339-1.058c-.119.209.11.482-.478.476,3.386-.1,5.772-1.8,9.486-1.146-1.1,1.5,1.264.495,1.46,1.8l2-.388-.8-.631c1.75.021,3.3-.927,4.8-.5l-1.3.535,3.279-.247-1.856-.493c1.771-.671-.189-1.65,2.14-1.287-.474.134,1.75.016,2.662.785,0,0-.006,0-.006,0a4.121,4.121,0,0,1,3.05-.529c.336.417-.271,1.442-.052,1.72.854-1.09,4.1-.3,5.179-1.464a1.035,1.035,0,0,0-.261,1.1l.717-.884c.811.282.929.42.8.965,2.438.162-.775-1.653,2.119-.941-.227.073-.119.2-.592.339,2.906.372,5.615-.562,8.285-.126.788,1.31-2.333.321-1.431,1.426,3.85-.237,7.973-1.572,11.7-1.261l-.7-.146c.517-1.85,2.775.915,4.659.041-.461.138-.6,1.028-.48.822,2.552.3,5.217-.455,9.084-1.037l-.48.476c1.5.424,3.96.244,5.585.46.482-.473,1.411-.4.847-1.088,5.008,2.708,9.553-1.452,14,.805-.531,0-1.266.415-.844.418l3.786-.44c-.3-.806-.5-.487-1.292-1.115a3.913,3.913,0,0,1,2.486-.849c-1.7.534.015,1.3.75,1.744-.124-.247.128-.518.066-.77,1.977,1.434.332-1.622,3.031-.657l-.143.424c1.011-.217,1.941-.776,3.031-.654.452.932-1.075.434-1.145,1.2,1.531-.053,3.02-1.768,4.4-.838-.65.261-1.585.264-2.235.523a4.02,4.02,0,0,0,2.8.99l-.11-.025,2.591.5-.66-.3c1.915-2.434,3.9-.445,6.479-2.038-2.507,1.507-.414.872-.606,1.93.658.293,1.66.622,1.375.918,1.219-.852,2.035.671,3.756-.574.077.34,1.3.032,1.029.888,1.585-.269-.375-.592-.241-1.02,2.443-1.163,5.743,1.411,9.258-.185,3.031-.656,3.591-1.8,6.4-2.375.949.543-.777,1.238-.777,1.238a6.544,6.544,0,0,0,4.126.02c-.292.3.009.549.449.93,1.158-.089.775-1.239,2.3-.738a4.76,4.76,0,0,1-1.157,1.369c1.365-.315,2.713-.95,4.126-1.257.374.593-.853.9-1.351,1.287,1.588-.266,4.114-.537,4.6-1.475l-1.018-.335c.579-.047.3.806-.129.977a1.286,1.286,0,0,1-2.04-.667l1.006-.219c-1.033-1.995-4.041.32-6.067.205l.845-1.452-2.078,1.2c-.441-.377-.744-1.187.256-1.4-1.452-.717-1.285.516-2.533-.283-.137-.125-.075-.194.053-.253l-1.419.432c.278-.3-.236-1.024.635-.814-2.546-.837-4.106,1.088-5.065-.012l.213-.088c-3.533.49-.341,1.065-2.992,2.315l-1.783-2.629-.348,1.067c-.364-.04-1.085-.12-.952-.545-1.356.729.231.463-.556,1.152-1.754-.97-4.838.453-5.233-1.244-.63.81,1.678.625-.2,1.189-.534-1.827-2.165.312-3.768-.525.492-.942,2.01-.443.407-1.286-.967,1.594-3.121-.348-4.473-.043-.064,1.268-2.94.528-5.208.951.143-.425-4.269-.7-6.379-1.155l.062-.213c-.409,1.281-2.586,1.04-4.171,1.3.063-.767.348-1.07,1.206-1.413l-1.49.007a2.6,2.6,0,0,1-1.783.772l.375-.956c-1.983.052-3.994,1.128-6.546.488-.143.893,2.03,2.488-.668,3.085-.1-.484-.2-1.309.506-1.508-.231.065-.825.4-1.291.195l1.078-.812c-1.162-.358-.608.679-1.537.6.019-.689-.688-.491-.554-1.039.237-.066.81.285,1.166.014a4.831,4.831,0,0,1-2.733-1.053.777.777,0,0,1-.767,1.018c-1.983.049-.679-.83-1.835-1.183-.481.477-1.746-.019-1.779,1.012-.581-.006-.688-.486-.912-.765-1.026.454-4.794.13-3.638,1.226l.264.072c-.05.022-.108.023-.168.045h0c-3.364,1.024-6.989-.584-10.327-.143l.006-.345c-1.993.394-4.435.234-5.858.974-.59,0-1.391-.629-1.139-1.039-1.524.259-1.694.647-3.9.077,1.532-.6-.528-.532,1.57-.44-1.979-.3-2.428-.85-4.553.093.724-.884-1.49-1.111-2.43-.848l1.386.631a13.846,13.846,0,0,1-2.922-.024l.508-1.162c-4.05-1.412-7.3,2.4-10.387.04-1.072.812,2.2.571,1.241,1.521-1.863-.157-3.8-1.823-4.387-1.826-2.552-.643-2.381,1.7-5.052,1.256.342.413.664,1.52-1.331,1.911-1.865-.154-2.292-1.738-1.115-2.07.447-.036.663.1.644.237.6-.152,1.393-.329.654-.777l-.241.414c-.925-.424-3.49-.378-2.888-1.058-1.409.394-.6.68.441.894-2.391-.6-3.736-.017-6.2-.421.391.228.752.714.362.711-3.61-.513-1.589.785-4.036.966-1.389-.631.5-1.506-1.964-.978-1.5-.428-.318-1.1.279-1.436-2.243.8-4.192-.525-5.473-.672l1.182-.334a6.348,6.348,0,0,1-1.875.191l.675.829c-.694-.145-1.282-.148-1.268-.493-.715.542.547,1.377-.872,2.12-.925-.422-2.817.451-3.137-.648,2.91.373-.321-1.1,2.141-1.281a3.738,3.738,0,0,1-1.75-.02c-.1-.122.1-.228.288-.29-2.783-.982-1.279,1.242-4.164,1.217.366-.619-.669-1.174-1.14-1.043,1.163.013.556,1.033-.51,1.509-1.85-.483-2.011.359-2.98.3l1.106.227c-.375.618-1.3.538-2.589.733-.11-.483,1.171-.332.711-.546-1.432,1.09-3.236-1.127-5.232-.393-.925-.42-.09-1.164-.9-1.448-2.238.8-2.423-.848-4.775-.186.678.833.8.63-.86,1.441l3.866-.586-2.481,1.211c1.167.012,2.463-.525,3.162-.381-1.183.679-1.061.472-.5,1.162-1.6-1.248-3.165.729-5.011-.116l.056-2.061c-2.774-.918-4.93,1.058-8.533.539l1.158.358c-.483.82-2.224.114-3.391.447.108-.689-.621-.938-1.119-1.368.06.512-2.637-.047-2.965,1.33l-1.608-.909c-2.91-.372-3.32,1.964-6.117,1.73.842-.749-.429-1.237,1.445-1.774-.934-.006-1.774-.132-1.788.346-.546-.432-2.59.928-3.448.273-.394.3-.523,1.024-1.571.966-.114-.139,0-.34,0-.34,0,.34-1.641.463-.725,1.226-2.876-2.15-8.039.155-10.544-1.69-2.037.232-4.493.454-6.342.5.118-.206.005-.344.355-.272-2.552-.641-1.569,1.976-4.473,1.263-1.483-1.114,1.542-.6.618-1.025-.4-2.267-3.5.31-5.459-1.015l.473-.132c-1.494-.771-3.645.858-6.085.7,0,0,.118-.2.014-.344-1.669,1.157-4.829,1.54-7.177,1.861.731-.888,1.067-.47.621-1.372-1.052.128.309,1.448-1.792,1.7-.683-.486-2.2-.911-2.4-1.872l1.982-.053c-1.015-1.245-2.565.043-3.609-.173l.133-.544c-3.037.176-3.079,1.548-6.343,1.45l.338.411c-1.784,1.358-1.5-.764-3.275.246l-.538-1.377a45.175,45.175,0,0,1-6.234,1.59c1.2-1.021,3.666-1.544,5.194-2.15-1.167-.01-3.965.1-4.572.782.47-.134,1.062-.472,1.526-.259a8.957,8.957,0,0,1-5.639,1.592c.412-2.67-6.059-.674-7.745-2.749-4.113.989-8.159-.42-12.95-.262,1.7,2.078-1.4.059-1.105,2.193-1.116.136-1.541.1-1.641-.037l-3.382-1.274c-.8-.621,1.061-.47.959-.95-2.444-.164-1.025-.9-2.642-1.472.331.764-.85,1.093-2.243.8l1.962.985c-3.415,1.136-2.952-1.791-6.394-.666l1.089-.671c-1.766.4-6.515-.014-8.247,1.7-.312-.246-.725-.83.052-.984-4.22-.256-9.395,1.825-12.676.768l.32-.521c-.787.152-1.371.981-2.357.456.051-.216.318-.522-.047-.552-.417.18-2.092.915-3.135.61l.891-.586c-4.117-.685-6.318,1.43-9.771,1.786.009-1.535-3.23-2.034-4.847-2.283l.056-.218c-4.794-.189-8.144,1.274-12.583,1.876-2.756-1.668-9.336-.7-13.765-1.632.677.278-.11,1.2-.9,1.35-1.04-.311-2.874,1.067-2.709-.343l.371.027c-.783-1.381-2.92-1.015-4.588-1.051l-.275,1.842c-4.362-2.681-11.43.984-13.812-1.417-1.052.461-2.356.456-3.4.917l.056-.989a42.451,42.451,0,0,0-7.978-.14l.735-.707c-2.034-.062-2.568,2.849-4.444,2.907l-.564-1.475c-3.548.024-7.14-1.271-10.645.067a.8.8,0,0,1,.736-.7c-1.67-.038-6.46-1-5.854,1.026-.041-1.318-3.66-.129-5.577.453l.3-.972c-1.617,1.241-1.669,1.582-3.927,1.925-.535-.126-.469-.778.242-.529-1.784-.509-1.39.922-3.552.4l.806-.621c-1.835-.076-1.69.258-2.7.983-1.154.389-3.481-.245-3.752-1.126a2.2,2.2,0,0,1-2.334,1c-.145-.333.248-.538.446-.639-3.068-.661-4.562,1.131-6.672.175a.707.707,0,0,0-.357-.58,33.742,33.742,0,0,1,4.217.148c0-.9-1.969-1.054-.4-2.292-1.581.675-4.284,2.144-6.2,1.723a1.089,1.089,0,0,1-.254-.31l.2-.1a2.07,2.07,0,0,0-1.213.146,6.747,6.747,0,0,0-1.59-.27c-.227-.741-2.257-.4-3.239-.436.081.982-1.205.823,0,1.632-.156-.069.185-.116.838-.157a1.589,1.589,0,0,0,.419-.1.956.956,0,0,1-.067.085c.644-.028,1.485-.05,2.44-.065a2.455,2.455,0,0,1-2.672.373,20.867,20.867,0,0,1-1.37,1.583c-1.344-1.368-3.934-2.108-4.294-2.951-3,.55-7.062.363-8.947,2.2-.853.238-.98-.528-1.3-.817.492-.186,1.078-.157,1.344-.422-1.7.473-5.049.184-5.456,1.471-2.148-.581,1.207-1.184-1.744-.974l.4-.393c-5.806-2.059-9.44,3.285-15.877.644.446.163.669.237.76.453-7.339-1.165-15.124,1.092-22.366-.755-2.058-.371-2.281.451-3.537,1.076l-.446-1.054-2.148,1.215c-3.046.892-5.275-2.586-9.131-.9l.5.711c-1.385-.135-4.387.418-4.156-.4-.141.128-.454.737-1,.367l-.042-.55-3.4.945c-2.637-.4.412-2.19-3.436-2.3-1.431.214-4.074,1.606-3.537,1.976.578.027,1.475.342,1.519.895l-1.309.288c-.237,1.625-1.243,3.289,1.969,4.423l2.238-.993.721.787-1.884.05c1.068.742,1.746.086,2.5-.364a1.529,1.529,0,0,0,.937.867l2.2-1.551c.266.635-.986,1.261.489,1.613,1.029-.721-.987-1.426.717-1.9,1.071.737.758,1.339,2.015.708.176.419-.09.686-.588.87,1.119-.5,2.96-.213,3.538-1.076,1.116.912,3.777-.237,3.666,1.3a6.512,6.512,0,0,1,3-1.273c-1.877,1.841,3.846.108,3.35,2.083,1.389-1.656,5.018-.736,7.479-1.654-.138.132-.408.4-.625.314a8.162,8.162,0,0,1,2.678.948c.178-1.366,2.335-1.68,3.5-2.523,1.7,1.319-1.031,1.606-.5,2.873-.085-1.109,2.95-1.1,2.372-2.03,1.3.818,1.119.4,1.788,1.53.228-1.71,1.209-.289,2.286-1.339,1.879.842.484,1.6,2.547,1.081.982.524-.853,1.129-.853,1.129m49.088-2.956v.019c-.422.023-.783.042-1.013.056.211-.014.5-.033,1.013-.075m4.126-.015c-.5-.039-1.128-.045-1.79-.039a.442.442,0,0,1,.427-.67c-.225.226.747.422,1.363.709m-8.726-6.8c.653-.139.872.054.961.256-.308.016-.669.049-1.142.116-.019.038-.058.08-.077.121a1.262,1.262,0,0,1,.258-.493" fill="#ffe26d"/>
      <path id="パス_1222" data-name="パス 1222" d="M191.987,143.273a1.351,1.351,0,0,1-.269.072,3.366,3.366,0,0,0,.389.22c.08-.1.161-.207.232-.307-.119.006-.242.008-.352.015" fill="#ffd24a"/>
      <path id="パス_1223" data-name="パス 1223" d="M565.939,144.727l-.087-.022a.493.493,0,0,1,.182.139c-.058-.047-.058-.078-.095-.117" fill="#ffd24a"/>
      <path id="パス_1224" data-name="パス 1224" d="M258.85,150.662l-.006-.247-.36.217Z" fill="#ffd24a"/>
      <path id="パス_1225" data-name="パス 1225" d="M588.659,148.094a.566.566,0,0,0,.3.251c-.013-.064-.142-.154-.3-.251" fill="#ffd24a"/>
      <path id="パス_1226" data-name="パス 1226" d="M598.473,148.314l1.388.349a8.751,8.751,0,0,0-1.388-.349" fill="#ffd24a"/>
      <path id="パス_1227" data-name="パス 1227" d="M606.019,148.8a1.361,1.361,0,0,0,.148-.42c-.006,0-.01,0-.015-.008Z" fill="#ffd24a"/>
      <path id="パス_1228" data-name="パス 1228" d="M486.041,149.953a1.283,1.283,0,0,0-.291.044c-.683.191-.219.115.291-.044" fill="#ffd24a"/>
      <path id="パス_1229" data-name="パス 1229" d="M521.745,147.661a7.367,7.367,0,0,1-1.148.463c.636.075,1.13.1,1.148-.463" fill="#ffd24a"/>
      <path id="パス_1230" data-name="パス 1230" d="M446.171,151.134c0-.006,0-.008,0-.017-.085,0-.16,0-.246,0Z" fill="#ffd24a"/>
      <path id="パス_1231" data-name="パス 1231" d="M518.937,148.108a2.83,2.83,0,0,0,1.66.017,4.312,4.312,0,0,0-1.66-.017" fill="#ffd24a"/>
      <path id="パス_1232" data-name="パス 1232" d="M638.725,149.245l.363.041a.241.241,0,0,1,.044-.158Z" fill="#ffd24a"/>
      <path id="パス_1233" data-name="パス 1233" d="M639.132,149.128l.4-.116c-.186,0-.346.008-.4.116" fill="#ffd24a"/>
      <path id="パス_1234" data-name="パス 1234" d="M640.385,148.765l-.85.247c.294,0,.657.033.85-.247" fill="#ffd24a"/>
      <path id="パス_1235" data-name="パス 1235" d="M628.735,148.792l-.114.356a.612.612,0,0,0,.114-.356" fill="#ffd24a"/>
      <path id="パス_1236" data-name="パス 1236" d="M625.7,148.9c.724.081,1.817.759,2.827.536l.094-.283c-.475.529-2.233-.853-2.921-.253" fill="#ffd24a"/>
      <path id="パス_1237" data-name="パス 1237" d="M613.029,144.5l2.544.284c-.445-.379-1.03-.888.127-.979-3.206-1.131.662.848-2.671.7" fill="#ffd24a"/>
      <path id="パス_1238" data-name="パス 1238" d="M605.142,143.948c1.367-.176-.016-.55.056-.765-.866.346-1.076.433-.056.765" fill="#ffd24a"/>
      <path id="パス_1239" data-name="パス 1239" d="M548.143,143.944l.138-.893c-1.054.128-.01.346-.138.893" fill="#ffd24a"/>
      <path id="パス_1240" data-name="パス 1240" d="M537.247,148.559l1.025.555.488-.818Z" fill="#ffd24a"/>
      <path id="パス_1241" data-name="パス 1241" d="M530.81,142.2l.46-.128-1.757.324Z" fill="#ffd24a"/>
      <path id="パス_1242" data-name="パス 1242" d="M435.08,142.517l.318,1.1c.712-.2.862-1.433-.318-1.1" fill="#ffd24a"/>
      <path id="パス_1243" data-name="パス 1243" d="M393.753,143.636a1.865,1.865,0,0,0-2.329-.363c.929.076,1.856.5,2.329.363" fill="#ffd24a"/>
      <path id="パス_1244" data-name="パス 1244" d="M269.811,141.845l.831-.368-1.566.307Z" fill="#ffd24a"/>
      <path id="パス_1245" data-name="パス 1245" d="M445.773,211.677c.18-.3.078-.982-.419-.847L445,211.985Z" fill="#ffd24a"/>
      <path id="パス_1246" data-name="パス 1246" d="M442.426,209.537a2.545,2.545,0,0,0-.881,2.6c.58-1.111.72-.647,1.343-1.968a.667.667,0,0,1,.785.795c.176-.3.773.254,1.041-.472a1.412,1.412,0,0,0-2.325-.192c-.183-.253-.005-.555.037-.768" fill="#ffd24a"/>
      <path id="パス_1247" data-name="パス 1247" d="M393.8,207.736l.313.137a.608.608,0,0,0-.313-.137" fill="#ffd24a"/>
      <path id="パス_1248" data-name="パス 1248" d="M363.669,207.1c.229-.028.325-.142.337-.247-.213.076-.388.146-.337.247" fill="#ffd24a"/>
      <path id="パス_1249" data-name="パス 1249" d="M358.525,205.829c.11.037.2.053.3.079-.115-.107-.232-.166-.3-.079" fill="#ffd24a"/>
      <path id="パス_1250" data-name="パス 1250" d="M393.8,207.736l-.8-.363c-.056.377.413.28.8.363" fill="#ffd24a"/>
      <path id="パス_1251" data-name="パス 1251" d="M435.721,212.323a1.048,1.048,0,0,0,.437-.3,3.323,3.323,0,0,1-.411.123c-.007.062-.013.116-.026.181" fill="#ffd24a"/>
      <path id="パス_1252" data-name="パス 1252" d="M407.08,206.8l.245,0a3.293,3.293,0,0,0,.2-.469Z" fill="#ffd24a"/>
      <path id="パス_1253" data-name="パス 1253" d="M417.273,206.622c-.23-.043-.311.938-.4,1.367.13-.4.3-.6.5-.672a2.526,2.526,0,0,0-.1-.7" fill="#ffd24a"/>
      <path id="パス_1254" data-name="パス 1254" d="M433.436,208.348l.287-.135c-.075.041-.2.081-.287.135" fill="#ffd24a"/>
      <path id="パス_1255" data-name="パス 1255" d="M399.785,206.587a1.118,1.118,0,0,0-.093-.351.779.779,0,0,0,.093.351" fill="#ffd24a"/>
      <path id="パス_1256" data-name="パス 1256" d="M114.688,213.959a1.665,1.665,0,0,0,0-.174c-.059.1-.077.168,0,.174" fill="#ffd24a"/>
      <path id="パス_1257" data-name="パス 1257" d="M102.873,209.1l.164-.053c.017-.185.035-.368.035-.549Z" fill="#ffd24a"/>
      <path id="パス_1258" data-name="パス 1258" d="M349.111,204.572a.307.307,0,0,0,.042.019c.247-.112.107-.092-.042-.019" fill="#ffd24a"/>
      <path id="パス_1259" data-name="パス 1259" d="M262.686,205.295c.979.877-1.593,1.126-.119,2.1-.138-.383,1.339-1.529.119-2.1" fill="#ffd24a"/>
      <path id="パス_1260" data-name="パス 1260" d="M435.457,212.194a2.785,2.785,0,0,1-.419.01.8.8,0,0,0,.419-.01" fill="#ffd24a"/>
      <path id="パス_1261" data-name="パス 1261" d="M262.567,207.4v.009l.152.092c-.063-.04-.1-.067-.152-.1" fill="#ffd24a"/>
      <path id="パス_1262" data-name="パス 1262" d="M327.419,205.162a1.245,1.245,0,0,0,.221.429.816.816,0,0,0-.221-.429" fill="#ffd24a"/>
      <path id="パス_1263" data-name="パス 1263" d="M343.579,206.557l-.4-.131a.985.985,0,0,0,.4.131" fill="#ffd24a"/>
      <path id="パス_1264" data-name="パス 1264" d="M319.029,206.546c-.217-.075-.291-.21-.588-.079a.489.489,0,0,0,.09.12c.107-.135.25-.2.5-.041" fill="#ffd24a"/>
      <path id="パス_1265" data-name="パス 1265" d="M310.3,206.552a1.936,1.936,0,0,0,.161.2c.087-.02.188-.036.277-.053Z" fill="#ffd24a"/>
      <path id="パス_1266" data-name="パス 1266" d="M141.229,213.487a3.154,3.154,0,0,1-.4-.882c.134.7-1.149.947.4.882" fill="#ffd24a"/>
      <path id="パス_1267" data-name="パス 1267" d="M435.716,211.772c-.051.248-.126.37-.26.423a2.632,2.632,0,0,0,.291-.053.513.513,0,0,0-.031-.37" fill="#ffd24a"/>
      <path id="パス_1268" data-name="パス 1268" d="M318.674,214.285l-1.387-.145a6.135,6.135,0,0,0,1.387.145" fill="#ffd24a"/>
      <path id="パス_1269" data-name="パス 1269" d="M203.882,213.347l-.319.118a.3.3,0,0,0,.319-.118" fill="#ffd24a"/>
      <path id="パス_1270" data-name="パス 1270" d="M313.169,214.285a2.027,2.027,0,0,0-.781-.678.829.829,0,0,0-.162.253Z" fill="#ffd24a"/>
      <path id="パス_1271" data-name="パス 1271" d="M140.823,212.6l0,.01,0-.01" fill="#ffd24a"/>
      <path id="パス_1272" data-name="パス 1272" d="M133.99,214.925c1.429.028.671-1.262.974-2,1.7-.365.788.95,1.368,1.609,1.065-.341,1.88-1.525,2.674-1.474.059.212.214.289.032.555,1.125-1.025,3.34-.05,4.65-1.337a.788.788,0,0,1,.172.319,4.526,4.526,0,0,1-.2-1.769c.64-.022,1.188-.814,1.429.028-.392-.024-.424.316-.608.579l.671-.367c.6,1.212-.916.42-.916,1.317,1.308-.395,2.832-1.4,3.834-1.055.21,1.185-2.343.4-1.006,1.453l-1.55-.453c1.185,1.87-.943-.131.146,1.87,2.041.343,2.283-.6,4.319-.258.458-.659-.152-.975.307-1.634,2.893-1.183,2.278,2.981,4.4,1.4.551-.79.765-2.29,2.279-1.5l-.516,1.34c1.975.132,1.127-1.927,3.2-1.025-.367.526-1.553.444-1.254.6,1.34,1.058.948-.76,1.978-.76l.214,1.187c2.1-.187,4.42-1.044,6.75-1.26-.129.353-.528.724.017,1.087,2.937-.593,6.271.145,9.106.849l1.082-1.025c.252.012.468.463.194.662,1.1.388.057-.65.589-1.052a.507.507,0,0,1,.432.9c1.948-.869,5.552-1.871,7.6-.774l-.4.3c1.6.416,1.8-2.1,3.288-1.144l-.285.181c3.471.444,7.306-.494,9.954,1.053.5-1.476,3.435.658,3.658-1.4,1.983,1.02,1.415,1.387,4.205,2.073.745.094,1.111-1.285,2.032-1.5l.023,1.076,1.252-1.128.665,1.286.865-.276c-.344-.063-.732-.483-.68-.793,1.351-.487,3.292.75,3.325,1.3l3.194-.91c-.071.433-.606.581-1.029.857,1.705-1.1.31,1.133,1.873.127-.21-.244.112-.641.148-.858.78.65,2.552.656,3.864.382l-.252.742c2.368.188,4.995-.356,7.653-.343a.915.915,0,0,1,.045-1.754l.311,1.137c.5-.7-.814-.43.219-1.29.994.132.668,1.293.1,1.663l1.208-.4c.07.34-.213.519-.286.952.5-.706,2.084,1.141,2.8-.085l.068.338c2.658.009,3.864-.382,6.029-.439.042-.981.889-.763,1.534-1.557,1.592.313,3.357,1.084,5.274,1,1.348-.489.394-.831,1-1.414.1.893,2.014.81,1.021,1.451a24.164,24.164,0,0,0,5.849-.9c-.315-.367-.671-.526-.487-.831.528-.147,1.2.375,1.126.8l-.139.091c3.266-1.339,7.539,2.607,10.141.743l-.146.093,2.7-.972c1.241.155-.744.672.174,1.225,2.91-1.491,4.6.217,6.994-.777,1.855,2.637,6.582-.185,9.087,1.5l-.145-.621c.647-.609.782.355,1.259.5-.068-.483-.7-.558-.3-.9,5.482-.748,11.313.908,16.933,1.468,2.055.167,1.166-3.213,3.758-1.73l-.735,1.153c4.147-1.382,8.481.047,12.541-1.126-.242.266-.248.612-.645.608.857.837,3.171.04,3.186-.644.632.079.147.619.536.966.861.495,2.16-1.069,2.617-.235.078.136-.242.271-.4.336.56-.406,2.611.1,2.075-.863,1.524.461,2.916-.43,4.131.142.793-1.08,2.609.521,2.861-1.008-.109,1.579,2.672,1.274,3.636.531-.323.477.837.494.46,1.155,1.1-.022,2.107-.315,1.915-1.126,2.026,1.889,4.072-1.52,5.213.9a72.27,72.27,0,0,1,9.228-1.793c-.106,1.574-3.247.157-3.122,1.81,2.788-.649,4.4-2,7.16-1.62.716.215-.406.682-.648.952,2.785-.649,5.384.143,7.863-.714-.007.146-.274.306-.527.426.488-.052,1.136.232,1.081-.484l-.476.194c-.78-1.038,1.94-2.169,2.027-2.718-.829,2.051,2.447.516,1.131,3.107a.95.95,0,0,0,.651-.953c.476.14.629.419.145.964,1.748-.39,1.127-1.151,2.713-1.135-.006.347-.326.481-.49.888a3.194,3.194,0,0,1,2.948-1.058c-.08.209.076.481-.324.476,2.3-.1,3.92-1.8,6.444-1.147-.745,1.5.859.5.991,1.8l1.357-.388-.544-.632c1.188.022,2.239-.927,3.26-.5l-.883.536,2.228-.247-1.261-.494c1.2-.671-.129-1.649,1.454-1.286-.321.134,1.189.016,1.809.784l0,0a2.081,2.081,0,0,1,2.072-.529c.228.417-.184,1.441-.036,1.719.58-1.089,2.784-.3,3.518-1.463a1.4,1.4,0,0,0-.177,1.1l.487-.885c.551.283.631.42.542.966,1.656.161-.527-1.653,1.44-.941-.154.072-.081.2-.4.338,1.975.372,3.814-.561,5.629-.126.536,1.311-1.584.321-.972,1.427,2.616-.237,5.416-1.572,7.947-1.262l-.472-.145c.351-1.851,1.886.914,3.165.041-.313.138-.41,1.028-.326.822,1.733.3,3.544-.455,6.171-1.038l-.325.476c1.021.425,2.69.245,3.794.461.327-.474.958-.4.574-1.089,3.4,2.708,6.49-1.451,9.509.805-.361,0-.86.416-.572.418l2.571-.439c-.2-.806-.338-.488-.878-1.116a2.207,2.207,0,0,1,1.689-.849c-1.157.535.01,1.3.51,1.745-.084-.247.086-.519.044-.771,1.343,1.435.226-1.622,2.059-.656l-.1.424c.687-.217,1.319-.776,2.059-.655.307.933-.731.435-.778,1.2,1.039-.054,2.051-1.768,2.991-.838-.441.26-1.077.264-1.517.522a2.234,2.234,0,0,0,1.9.991l-.075-.025,1.76.5-.448-.3c1.3-2.433,2.649-.445,4.4-2.038-1.7,1.508-.282.872-.413,1.93.447.293,1.127.622.934.919.828-.853,1.382.671,2.552-.575.052.341.886.033.7.888,1.078-.268-.254-.592-.164-1.019,1.66-1.163,3.9,1.41,6.29-.186,2.059-.656,2.44-1.805,4.351-2.375.645.544-.528,1.239-.528,1.239a3.111,3.111,0,0,0,2.8.02c-.2.3.005.548.3.93.787-.089.526-1.239,1.564-.738a4.788,4.788,0,0,1-.786,1.368c.928-.314,1.843-.949,2.8-1.256.255.593-.579.9-.917,1.286,1.079-.266,2.795-.536,3.127-1.475l-.691-.335c.393-.046.2.806-.089.977-.924.736-1.333-.325-1.386-.667l.684-.218c-.7-2-2.745.32-4.121.205l.573-1.452-1.411,1.2c-.3-.377-.505-1.188.174-1.4-.986-.717-.873.516-1.72-.284-.094-.125-.051-.194.036-.252l-.964.432c.189-.3-.16-1.025.432-.815-1.73-.837-2.789,1.089-3.441-.011l.145-.089c-2.4.49-.232,1.066-2.032,2.316l-1.212-2.629-.237,1.066c-.247-.039-.738-.119-.647-.545-.921.73.158.464-.378,1.152-1.191-.97-3.286.454-3.555-1.244-.428.811,1.14.626-.132,1.189-.363-1.826-1.471.313-2.559-.525.334-.942,1.365-.443.275-1.285-.657,1.593-2.12-.348-3.038-.043-.043,1.268-2,.528-3.538.95.1-.425-2.9-.7-4.334-1.154l.042-.213c-.278,1.281-1.757,1.04-2.834,1.305a1.433,1.433,0,0,1,.82-1.413l-1.012.006a1.606,1.606,0,0,1-1.212.773l.255-.957c-1.348.052-2.713,1.128-4.447.488-.1.894,1.379,2.488-.454,3.085-.068-.483-.136-1.309.343-1.507-.157.064-.56.4-.877.2l.732-.813c-.789-.357-.413.679-1.044.6.013-.69-.467-.492-.376-1.039.161-.067.551.285.792.014a2.819,2.819,0,0,1-1.856-1.054c.063.392,0,.928-.521,1.018-1.348.05-.461-.829-1.247-1.183-.326.478-1.186-.018-1.208,1.012-.394-.005-.468-.486-.62-.765-.7.455-3.256.13-2.471,1.226l.179.073c-.033.021-.073.022-.114.045h0c-2.285,1.024-4.747-.584-7.015-.144l0-.344c-1.354.394-3.013.233-3.98.974-.4,0-.945-.63-.774-1.039-1.035.259-1.15.646-2.645.077,1.04-.6-.36-.533,1.066-.44-1.344-.3-1.649-.85-3.093.092.491-.883-1.012-1.111-1.651-.848l.942.632a6.41,6.41,0,0,1-1.985-.025l.346-1.161c-2.752-1.412-4.962,2.4-7.057.039-.728.813,1.495.572.843,1.522-1.265-.157-2.584-1.823-2.981-1.827-1.733-.643-1.617,1.7-3.431,1.257a1.27,1.27,0,0,1-.9,1.91c-1.267-.154-1.557-1.738-.757-2.07.3-.035.45.1.437.237.409-.151.946-.328.445-.777l-.165.414c-.627-.423-2.37-.378-1.961-1.059-.957.4-.409.681.3.9-1.625-.6-2.538-.017-4.211-.421.266.229.511.715.246.711-2.453-.513-1.08.786-2.742.967-.944-.631.339-1.507-1.334-.978-1.022-.428-.217-1.1.189-1.437-1.524.8-2.848-.525-3.718-.671l.8-.334a2.982,2.982,0,0,1-1.274.19l.459.829c-.471-.144-.87-.148-.862-.492-.486.542.372,1.377-.592,2.119-.629-.421-1.914.452-2.131-.647,1.976.373-.218-1.1,1.455-1.282a1.753,1.753,0,0,1-1.189-.019c-.071-.123.067-.228.2-.291-1.891-.982-.869,1.243-2.829,1.218.249-.62-.455-1.175-.774-1.043.791.013.378,1.033-.347,1.508-1.257-.482-1.366.359-2.024.3l.752.227c-.255.619-.883.538-1.759.733-.076-.483.795-.332.483-.545-.973,1.089-2.2-1.127-3.554-.393-.629-.421-.06-1.164-.612-1.449-1.521.8-1.647-.848-3.244-.185.46.833.541.629-.584,1.441l2.626-.586-1.686,1.211c.793.012,1.673-.525,2.148-.382-.8.679-.72.472-.341,1.163-1.085-1.249-2.15.728-3.4-.116l.038-2.062c-1.886-.918-3.349,1.058-5.8.54l.787.358c-.328.82-1.512.114-2.3.447.073-.69-.421-.94-.76-1.369.041.512-1.792-.047-2.014,1.33l-1.092-.908c-1.977-.372-2.256,1.963-4.156,1.729.572-.749-.292-1.237.982-1.773-.635-.007-1.205-.133-1.215.345-.37-.432-1.759.928-2.342.273-.268.3-.355,1.025-1.067.967a.465.465,0,0,1,0-.341c0,.341-1.115.464-.492,1.227-1.954-2.15-5.461.155-7.162-1.69a38.054,38.054,0,0,1-4.309.5c.08-.206,0-.344.241-.272-1.733-.641-1.065,1.977-3.038,1.263-1.008-1.114,1.048-.6.419-1.024-.273-2.268-2.381.31-3.708-1.015l.322-.133c-1.015-.77-2.476.859-4.134.7a.489.489,0,0,0,.01-.343c-1.134,1.157-3.281,1.539-4.876,1.86.5-.887.725-.469.422-1.371-.715.128.21,1.448-1.218,1.7-.463-.486-1.494-.91-1.63-1.872l1.346-.052c-.689-1.245-1.742.043-2.451-.174l.091-.543c-2.063.176-2.092,1.547-4.309,1.449l.229.412c-1.212,1.358-1.015-.764-2.225.246l-.365-1.378a23.294,23.294,0,0,1-4.234,1.591c.812-1.022,2.489-1.544,3.528-2.151-.793-.01-2.693.1-3.106.782.319-.133.721-.471,1.037-.259a4.8,4.8,0,0,1-3.831,1.592c.28-2.67-4.117-.673-5.263-2.748-2.794.989-5.542-.421-8.8-.262,1.154,2.077-.95.059-.751,2.193-.758.135-1.048.1-1.114-.037l-2.3-1.275c-.544-.621.721-.47.651-.949-1.66-.164-.7-.9-1.795-1.472.226.764-.577,1.093-1.523.8l1.333.984c-2.32,1.136-2.005-1.791-4.343-.666l.74-.671c-1.2.4-4.427-.014-5.6,1.7-.213-.246-.492-.83.036-.984-2.867-.257-6.383,1.824-8.611.768l.217-.521c-.535.151-.931.98-1.6.455.035-.216.215-.521-.032-.551-.283.18-1.421.914-2.131.61l.606-.587c-2.8-.684-4.292,1.43-6.637,1.787.005-1.536-2.2-2.035-3.294-2.284l.039-.217c-3.257-.19-5.532,1.273-8.549,1.876-1.872-1.668-6.341-.7-9.35-1.633.46.278-.076,1.2-.61,1.351-.706-.312-1.951,1.066-1.84-.343l.252.027c-.531-1.382-1.983-1.015-3.116-1.052l-.187,1.843c-2.964-2.681-7.766.984-9.383-1.417-.715.461-1.6.456-2.31.916l.039-.988a19.655,19.655,0,0,0-5.42-.141l.5-.706c-1.381-.063-1.744,2.849-3.018,2.907l-.383-1.475c-2.41.023-4.85-1.272-7.232.066.039-.216.11-.642.5-.7-1.134-.039-4.388-1-3.976,1.026-.028-1.318-2.487-.129-3.788.452l.2-.972c-1.1,1.242-1.134,1.582-2.669,1.926-.364-.126-.319-.778.164-.529-1.212-.51-.944.921-2.413.4l.548-.622c-1.247-.075-1.148.259-1.835.984a2.108,2.108,0,0,1-2.549-1.126c-.167.536-.85,1.253-1.585,1a.588.588,0,0,1,.3-.639c-2.084-.662-3.1,1.13-4.534.175a.779.779,0,0,0-.242-.58,15.512,15.512,0,0,1,2.865.147c0-.9-1.338-1.054-.274-2.292-1.073.676-2.909,2.145-4.213,1.723a1.078,1.078,0,0,1-.173-.31l.135-.1a1,1,0,0,0-.824.145,3.294,3.294,0,0,0-1.08-.269c-.154-.742-1.533-.4-2.2-.437.055.982-.818.824,0,1.633-.106-.069.126-.116.57-.157a.792.792,0,0,0,.284-.1c-.013.027-.029.058-.045.086.437-.028,1.009-.05,1.658-.065-.527.5-1.078.917-1.815.373-.342.63-.719,1.279-.931,1.583-.913-1.369-2.672-2.108-2.917-2.952-2.037.551-4.8.363-6.078,2.206-.58.237-.666-.528-.882-.818.334-.185.732-.156.913-.421-1.158.473-3.43.184-3.706,1.471-1.459-.581.82-1.185-1.185-.975l.27-.393c-3.944-2.058-6.413,3.286-10.785.645.3.162.455.237.516.452-4.986-1.165-10.274,1.093-15.194-.754-1.4-.372-1.55.45-2.4,1.075l-.3-1.054-1.46,1.216c-2.068.891-3.582-2.586-6.2-.9l.338.71c-.942-.135-2.981.418-2.824-.4-.1.129-.308.738-.676.368l-.028-.551-2.311.945c-1.792-.4.28-2.189-2.335-2.3-.972.213-2.767,1.606-2.4,1.975a1.1,1.1,0,0,1,1.031.9l-.889.287c-.162,1.625-.846,3.289,1.337,4.424l1.521-.994.489.788-1.28.05c.726.742,1.187.086,1.7-.365a1.334,1.334,0,0,0,.637.868l1.492-1.552c.181.636-.67,1.262.333,1.613.7-.721-.671-1.425.487-1.9.727.738.515,1.34,1.368.709a.688.688,0,0,1-.4.869c.76-.5,2.012-.212,2.4-1.075.758.911,2.566-.237,2.49,1.3a3.91,3.91,0,0,1,2.037-1.272c-1.275,1.841,2.613.108,2.275,2.083.944-1.656,3.409-.736,5.081-1.654-.093.131-.276.4-.424.313.941.138,1.215.637,1.819.949.121-1.367,1.586-1.68,2.377-2.523,1.152,1.319-.7,1.6-.339,2.873-.057-1.109,2-1.106,1.612-2.03.881.817.759.4,1.214,1.53.154-1.71.821-.289,1.553-1.34,1.276.843.328,1.6,1.73,1.081.667.525-.58,1.13-.58,1.13m33.348-2.956v.019c-.287.023-.532.042-.689.056.144-.014.342-.033.689-.075m2.8-.016a10.162,10.162,0,0,0-1.216-.038c-.1-.339.009-.687.29-.67-.153.226.508.422.926.708m-5.928-6.8c.444-.139.592.054.653.255a6.212,6.212,0,0,0-.776.117c-.013.037-.039.079-.052.12a1.544,1.544,0,0,1,.175-.492" fill="#ffe26d"/>
      <path id="パス_1273" data-name="パス 1273" d="M158.931,206.442c-.059.021-.092.063-.169.072a2.093,2.093,0,0,0,.245.22c.05-.1.1-.207.145-.307-.074.006-.152.008-.221.015" fill="#ffd24a"/>
      <path id="パス_1274" data-name="パス 1274" d="M394.167,207.9l-.055-.022a.385.385,0,0,1,.115.139.653.653,0,0,1-.06-.117" fill="#ffd24a"/>
      <path id="パス_1275" data-name="パス 1275" d="M200.991,213.83l0-.247-.226.217Z" fill="#ffd24a"/>
      <path id="パス_1276" data-name="パス 1276" d="M408.459,211.262a.473.473,0,0,0,.188.251.624.624,0,0,0-.188-.251" fill="#ffd24a"/>
      <path id="パス_1277" data-name="パス 1277" d="M414.633,211.482l.873.349a3.938,3.938,0,0,0-.873-.349" fill="#ffd24a"/>
      <path id="パス_1278" data-name="パス 1278" d="M419.379,211.969a1.954,1.954,0,0,0,.093-.42s-.006,0-.009-.008Z" fill="#ffd24a"/>
      <path id="パス_1279" data-name="パス 1279" d="M343.906,213.121a.534.534,0,0,0-.183.044c-.43.191-.138.115.183-.044" fill="#ffd24a"/>
      <path id="パス_1280" data-name="パス 1280" d="M366.366,210.829a3.891,3.891,0,0,1-.722.463c.4.075.71.095.722-.463" fill="#ffd24a"/>
      <path id="パス_1281" data-name="パス 1281" d="M318.826,214.3c0-.006,0-.008,0-.017-.054,0-.1,0-.155,0Z" fill="#ffd24a"/>
      <path id="パス_1282" data-name="パス 1282" d="M364.6,211.276a1.157,1.157,0,0,0,1.044.017,1.738,1.738,0,0,0-1.044-.017" fill="#ffd24a"/>
      <path id="パス_1283" data-name="パス 1283" d="M439.953,212.413l.229.041a.335.335,0,0,1,.027-.158Z" fill="#ffd24a"/>
      <path id="パス_1284" data-name="パス 1284" d="M440.209,212.3l.254-.116c-.117,0-.218.008-.254.116" fill="#ffd24a"/>
      <path id="パス_1285" data-name="パス 1285" d="M441,211.934l-.534.247c.185,0,.413.033.534-.247" fill="#ffd24a"/>
      <path id="パス_1286" data-name="パス 1286" d="M433.669,211.96l-.072.356a.862.862,0,0,0,.072-.356" fill="#ffd24a"/>
      <path id="パス_1287" data-name="パス 1287" d="M431.76,212.063c.455.081,1.143.759,1.778.536l.06-.283c-.3.529-1.4-.853-1.838-.253" fill="#ffd24a"/>
      <path id="パス_1288" data-name="パス 1288" d="M423.789,207.666l1.6.284c-.28-.379-.647-.888.08-.979-2.017-1.131.416.848-1.68.7" fill="#ffd24a"/>
      <path id="パス_1289" data-name="パス 1289" d="M418.828,207.116c.86-.176-.01-.55.034-.765-.544.346-.677.433-.034.765" fill="#ffd24a"/>
      <path id="パス_1290" data-name="パス 1290" d="M382.972,207.113l.087-.893c-.663.128-.007.346-.087.893" fill="#ffd24a"/>
      <path id="パス_1291" data-name="パス 1291" d="M376.118,211.727l.645.555.307-.818Z" fill="#ffd24a"/>
      <path id="パス_1292" data-name="パス 1292" d="M372.069,205.368l.289-.128-1.1.324Z" fill="#ffd24a"/>
      <path id="パス_1293" data-name="パス 1293" d="M311.849,205.685l.2,1.1c.448-.2.542-1.433-.2-1.1" fill="#ffd24a"/>
      <path id="パス_1294" data-name="パス 1294" d="M285.853,206.8c-.284-.55-1.014-.9-1.466-.363.584.076,1.168.5,1.466.363" fill="#ffd24a"/>
      <path id="パス_1295" data-name="パス 1295" d="M207.886,205.014l.523-.368-.985.307Z" fill="#ffd24a"/>
      <path id="パス_1296" data-name="パス 1296" d="M121.578,117.78c-6.351,0-8.166-2.024-8.166-6.142V97.749c-1.256,1.186-2.513,2.3-3.768,3.28a4.14,4.14,0,0,1-2.583.977,3.425,3.425,0,0,1-3.42-3.42,3.5,3.5,0,0,1,1.466-2.791,57.526,57.526,0,0,0,13.679-15.564,3.476,3.476,0,0,1,3.141-1.815c1.884,0,3.769,1.4,3.769,3.28a3.385,3.385,0,0,1-.628,1.885c-.559.907-1.117,1.744-1.745,2.652h10.19c.768-1.605,1.465-3.281,2.163-5.165a3.549,3.549,0,0,1,3.42-2.373c1.815,0,3.63,1.187,3.63,3.071a3.541,3.541,0,0,1-.28,1.4c-.418,1.047-.907,2.094-1.4,3.071h20.171a2.442,2.442,0,0,1,2.373,2.722,2.479,2.479,0,0,1-2.373,2.722h-20.8v3.28h16.123a2.679,2.679,0,0,1,0,5.305H140.422v3.35h16.123a2.638,2.638,0,0,1,0,5.234H140.422v3.49h22.893a2.441,2.441,0,0,1,2.372,2.721,2.478,2.478,0,0,1-2.372,2.723H138.538v3.769H162.9a2.955,2.955,0,0,1,0,5.862H143.075a83.437,83.437,0,0,0,21.705,7.677,3.314,3.314,0,0,1,2.792,3.35,3.276,3.276,0,0,1-3.35,3.42,7.85,7.85,0,0,1-1.186-.139,81.259,81.259,0,0,1-24.847-10.679l.349,6.631v4.187c0,1.815-1.745,2.722-3.56,2.722-1.745,0-3.559-.907-3.559-2.722v-4.187l.279-6.351a85.121,85.121,0,0,1-24.5,10.957,6.945,6.945,0,0,1-1.117.14,3.155,3.155,0,0,1-3.211-3.211,3.074,3.074,0,0,1,2.583-3.071,83.7,83.7,0,0,0,21.356-8.724H107.27a2.955,2.955,0,0,1,0-5.862h24.149V117.78Zm11.795-22.823v-3.28H123.044c-2.025,0-2.443.349-2.443,1.6v1.675ZM120.6,103.612h12.772v-3.35H120.6Zm12.772,5.234H120.6v1.745c0,1.326.418,1.745,2.443,1.745h10.329Z" fill="#3aaea7"/>
      <path id="パス_1297" data-name="パス 1297" d="M185.3,91.467c-1.814,0-2.373.559-2.373,1.885v3.839c0,1.954-1.884,3-3.838,3-1.885,0-3.839-1.047-3.839-3V92.166c0-4.607,2.3-6.631,8.724-6.631h16.96V81.208c0-1.954,1.954-2.862,3.839-2.862,1.954,0,3.838.908,3.838,2.862v4.327h17.309c6.421,0,8.724,2.024,8.724,6.631v4.816c0,1.954-1.884,2.931-3.838,2.931-1.885,0-3.839-.977-3.839-2.931v-3.63c0-1.326-.628-1.885-2.373-1.885H202.124a2.879,2.879,0,0,1,1.4,2.373,3.168,3.168,0,0,1-.628,1.815c-.139.21-.349.489-.488.7h10.818c4.4,0,6.909,2.024,6.909,4.816,0,1.815-1.116,3.978-3.49,6.072a51.469,51.469,0,0,1-4.676,3.629,92.666,92.666,0,0,0,22.334,7.608,3.545,3.545,0,0,1,3.211,3.489,3.407,3.407,0,0,1-4.328,3.351,97.257,97.257,0,0,1-27.428-10.539,118.635,118.635,0,0,1-29.1,11.376,5.373,5.373,0,0,1-1.047.14,3.237,3.237,0,0,1-.558-6.421,104.809,104.809,0,0,0,24.637-9.074,51.424,51.424,0,0,1-6.142-4.955,53.208,53.208,0,0,1-9.283,6.561,3.88,3.88,0,0,1-2.024.558,3.2,3.2,0,0,1-3.21-3.21,3.3,3.3,0,0,1,1.814-2.862A55.877,55.877,0,0,0,197.03,92.445a4.336,4.336,0,0,1,.977-.978Zm9.981,51.229c-6,0-8.515-1.815-8.515-6.211v-7.468c0-4.4,2.513-6.282,8.515-6.282h19.682c6,0,8.514,1.885,8.514,6.282v7.468c-.139,5.443-3.838,6.142-8.514,6.211Zm18.565-5.583c1.954,0,2.373-.489,2.373-1.745v-5.3c0-1.257-.419-1.745-2.373-1.745H196.4c-1.954,0-2.373.488-2.373,1.745v5.3c0,1.605.978,1.745,2.373,1.745ZM198.286,101.8a56.317,56.317,0,0,0,7.328,5.583c1.954-1.326,3.839-2.721,5.514-4.117.419-.349.628-.629.628-.907,0-.35-.349-.559-1.047-.559Z" fill="#3aaea7"/>
      <path id="パス_1298" data-name="パス 1298" d="M322.6,134.391a83.046,83.046,0,0,0,8.863.419c4.537,0,9.841-.279,14.587-.768a3.485,3.485,0,0,1,4.118,3.56,3.41,3.41,0,0,1-3.141,3.489,134.644,134.644,0,0,1-15.424.7c-15.843,0-23.939-3.071-29.8-11.795a51.152,51.152,0,0,1-7.258,11.028,4.138,4.138,0,0,1-3.211,1.535,3.72,3.72,0,0,1-3.839-3.49,3.8,3.8,0,0,1,.977-2.442,54.516,54.516,0,0,0,10.958-21.218,3.291,3.291,0,0,1,3.42-2.512c2.234,0,4.467,1.535,3.908,4.118a47.453,47.453,0,0,1-1.884,5.862c2.373,4.258,5.444,7.747,10.05,9.632V107.59H299.077c-1.744,0-2.652-1.6-2.652-3.21s.908-3.211,2.652-3.211h39.294c1.815,0,2.652,1.605,2.652,3.211s-.837,3.21-2.652,3.21H322.6v8.934h15.075c1.885,0,2.862,1.6,2.862,3.28a3.016,3.016,0,0,1-2.862,3.281H322.6Zm-8.306-52.764c0-1.954,1.955-2.931,3.909-2.931,1.884,0,3.838.977,3.838,2.931v5.025h17.1c6.56,0,9.073,2.3,9.073,7.189v4.816c0,2.024-1.954,3-3.839,3-1.954,0-3.908-.977-3.908-3v-3.63c0-1.465-.629-2.093-2.583-2.093H298.868c-1.954,0-2.582.628-2.582,2.093v3.979c0,2.024-1.955,3.071-3.839,3.071-1.954,0-3.909-1.047-3.909-3.071V93.841c0-4.885,2.513-7.189,9.073-7.189h16.681Z" fill="#3aaea7"/>
      <path id="パス_1299" data-name="パス 1299" d="M362.315,91.118a2.469,2.469,0,0,1-2.3-2.722c0-1.4.767-2.722,2.3-2.722h14.517a29.85,29.85,0,0,0-2.3-2.861,2.833,2.833,0,0,1-.7-1.814,3.385,3.385,0,0,1,3.489-3,3.88,3.88,0,0,1,2.653,1.118,21.47,21.47,0,0,1,2.791,3.209,2.915,2.915,0,0,1,.628,1.886,2.57,2.57,0,0,1-.419,1.464h8.655a46.177,46.177,0,0,0,3.42-5.792,3.525,3.525,0,0,1,3.35-2.023c1.814,0,3.559,1.116,3.559,2.86a2.819,2.819,0,0,1-.488,1.536c-.7,1.257-1.4,2.373-2.094,3.419h15.7a2.443,2.443,0,0,1,2.373,2.722,2.479,2.479,0,0,1-2.373,2.722H391.488v3.141h17.658a2.407,2.407,0,0,1,2.3,2.652c0,1.4-.767,2.722-2.3,2.722H391.488v3.21H417.1a2.48,2.48,0,0,1,2.374,2.723c0,1.4-.769,2.791-2.374,2.791H379.344c-.558,1.466-1.116,2.862-1.745,4.328a17.582,17.582,0,0,1,4.189-.419h20.379c6.63,0,8.863,2.093,8.863,6.979v17.03c0,4.885-2.233,6.909-8.863,6.909H381.788c-6.632,0-8.865-2.024-8.865-6.909V121.688a59.324,59.324,0,0,1-10.049,12.563,4.141,4.141,0,0,1-2.862,1.187,3.746,3.746,0,0,1-3.7-3.56,3.5,3.5,0,0,1,1.325-2.722,52.413,52.413,0,0,0,13.96-20.8H359.034c-1.535,0-2.3-1.4-2.3-2.791a2.469,2.469,0,0,1,2.3-2.723H384.3v-3.21H367.13c-1.535,0-2.3-1.326-2.3-2.722a2.408,2.408,0,0,1,2.3-2.652H384.3V91.118ZM403.7,119.385c0-1.4-.419-1.815-2.3-1.815H382.486c-1.886,0-2.233.419-2.233,1.815v1.745H403.7Zm-23.449,10.05H403.7v-3.559h-23.45ZM401.4,137.88c1.883,0,2.3-.419,2.3-1.814v-1.885H380.253v1.885c0,1.674.767,1.814,2.233,1.814Z" fill="#3aaea7"/>
      <path id="パス_1300" data-name="パス 1300" d="M128.927,172.8c4.711,0,6.631,1.745,6.631,4.973a13.055,13.055,0,0,1-.088,1.309c-1.482,12-8.114,21.158-18.54,25.87a2.874,2.874,0,0,1-1.309.3,2.568,2.568,0,0,1-2.53-2.574,2.651,2.651,0,0,1,1.7-2.4c9.118-4.406,14.048-11.386,15.356-21.027.175-1.44-.218-1.832-2.006-1.832H111.957c-1.527,0-1.964.479-1.964,1.788v6.8c0,1.353-1.264,2.007-2.573,2.007-1.265,0-2.574-.654-2.574-2.007v-7.852c0-3.664,1.832-5.366,6.544-5.366Z" fill="#333"/>
      <path id="パス_1301" data-name="パス 1301" d="M153.618,178.9a2.573,2.573,0,0,1,.785,1.876,2.949,2.949,0,0,1-2.792,2.88,2.767,2.767,0,0,1-1.963-.873,63.84,63.84,0,0,0-5.933-5.279,2.427,2.427,0,0,1-1.047-1.963,2.82,2.82,0,0,1,2.792-2.661,3.173,3.173,0,0,1,1.746.567,39.226,39.226,0,0,1,6.412,5.453m19.2-1.265a2.537,2.537,0,0,1,2.661,2.4,2.6,2.6,0,0,1-.436,1.4,52.386,52.386,0,0,1-26.96,22.947,3.075,3.075,0,0,1-1.178.218,2.659,2.659,0,0,1-2.617-2.661,2.353,2.353,0,0,1,1.7-2.312c9.9-3.752,19.37-11.3,24.6-20.634a2.484,2.484,0,0,1,2.225-1.353" fill="#333"/>
      <path id="パス_1302" data-name="パス 1302" d="M203.438,173.015c3.4-.087,5.147,1.4,5.147,3.751a7.276,7.276,0,0,1-.48,2.356,40.464,40.464,0,0,1-5.976,10.427,64.786,64.786,0,0,1,11.691,10.339,3.06,3.06,0,0,1,.829,1.963,2.781,2.781,0,0,1-2.792,2.618,2.718,2.718,0,0,1-2.094-1.048,67.275,67.275,0,0,0-10.731-10.251,50.477,50.477,0,0,1-14.222,10.819,2.826,2.826,0,0,1-1.265.305,2.559,2.559,0,0,1-2.53-2.53,2.425,2.425,0,0,1,1.483-2.225c9.074-4.581,16.708-12,20.154-20.46a1.626,1.626,0,0,0,.175-.7c0-.393-.349-.567-1.091-.567l-15.617.305a2.2,2.2,0,0,1-2.181-2.355,2.242,2.242,0,0,1,2.137-2.444Z" fill="#333"/>
      <path id="パス_1303" data-name="パス 1303" d="M232.4,183.18a2.493,2.493,0,0,1,2.138-1.353,2.7,2.7,0,0,1,1.134.262,51.235,51.235,0,0,1,9.249,5.584,2.806,2.806,0,0,1,1.221,2.269,2.533,2.533,0,0,1-2.487,2.574,2.951,2.951,0,0,1-1.832-.655,77.065,77.065,0,0,0-8.158-5.235A3.11,3.11,0,0,1,232.4,185.4v18.8a2.594,2.594,0,0,1-5.147,0V170.921a2.588,2.588,0,0,1,5.147,0Z" fill="#333"/>
      <path id="パス_1304" data-name="パス 1304" d="M259.32,187.106a2.48,2.48,0,0,1,.131.785,2.369,2.369,0,0,1-2.486,2.138,2.066,2.066,0,0,1-2.007-1.352,42.251,42.251,0,0,0-2.792-5.628,1.922,1.922,0,0,1-.305-1.047,2.278,2.278,0,0,1,2.4-2.007,2.327,2.327,0,0,1,2.006,1.135,33.409,33.409,0,0,1,3.054,5.976m17.668-7.809a2.347,2.347,0,0,1,2.531,2.094,2.958,2.958,0,0,1-.088.567c-2.748,10.3-9.684,19.457-18.06,23.994a2.753,2.753,0,0,1-1.222.349,2.31,2.31,0,0,1-2.225-2.312,2.348,2.348,0,0,1,1.353-2.094c7.809-4.406,12.956-11.6,15.574-21.071a2.021,2.021,0,0,1,2.137-1.527m-9.292,5.715a2.433,2.433,0,0,1,.131.742,2.28,2.28,0,0,1-2.4,2.094,2.058,2.058,0,0,1-2.007-1.44,38.268,38.268,0,0,0-2.618-5.54,1.9,1.9,0,0,1-.305-1,2.17,2.17,0,0,1,2.356-1.92,2.255,2.255,0,0,1,2.05,1.134,30.615,30.615,0,0,1,2.792,5.933" fill="#333"/>
      <path id="パス_1305" data-name="パス 1305" d="M310.71,174.324c4.58-.044,6.369,1.614,6.369,4.537a10.717,10.717,0,0,1-.305,2.486c-2.4,10.339-9.991,19.239-20.286,24.256a3.147,3.147,0,0,1-1.439.348,2.54,2.54,0,0,1-2.531-2.573,2.6,2.6,0,0,1,1.527-2.312c9.641-5.017,15.094-12,17.363-19.806a3.54,3.54,0,0,0,.131-.872c0-.83-.568-1.135-1.833-1.135l-21.027.262a2.459,2.459,0,0,1-2.53-2.574,2.287,2.287,0,0,1,2.312-2.4Zm13.349-3.665a4.69,4.69,0,1,1-4.668-4.667,4.628,4.628,0,0,1,4.668,4.667m-7.2,0a2.532,2.532,0,0,0,2.53,2.53,2.5,2.5,0,0,0,2.487-2.53,2.458,2.458,0,0,0-2.487-2.486,2.494,2.494,0,0,0-2.53,2.486" fill="#333"/>
      <path id="パス_1306" data-name="パス 1306" d="M337.5,182.307a2.882,2.882,0,0,1,.174,1,2.63,2.63,0,0,1-2.748,2.486,2.508,2.508,0,0,1-2.4-1.657,50.239,50.239,0,0,0-3.446-6.849,2.779,2.779,0,0,1-.392-1.309,2.562,2.562,0,0,1,2.661-2.356,2.857,2.857,0,0,1,2.443,1.4,42.392,42.392,0,0,1,3.708,7.285m21.943-9.554a2.606,2.606,0,0,1,2.792,2.443,2.169,2.169,0,0,1-.087.742c-3.359,12.564-11.692,23.645-21.944,29.185a3.3,3.3,0,0,1-1.57.436,2.569,2.569,0,0,1-2.574-2.53,2.993,2.993,0,0,1,1.7-2.53c9.511-5.366,15.924-14.309,19.108-25.826a2.5,2.5,0,0,1,2.574-1.92m-11.648,6.937a2.419,2.419,0,0,1,.175.916,2.663,2.663,0,0,1-2.749,2.53,2.447,2.447,0,0,1-2.356-1.745,42.019,42.019,0,0,0-3.184-6.762,2.778,2.778,0,0,1-.393-1.309,2.487,2.487,0,0,1,2.618-2.312,2.812,2.812,0,0,1,2.443,1.44,37.991,37.991,0,0,1,3.446,7.242" fill="#333"/>
      <path id="パス_1307" data-name="パス 1307" d="M400.839,185.274a2.32,2.32,0,0,1,2.356,2.486,2.344,2.344,0,0,1-2.356,2.487H368.993a2.344,2.344,0,0,1-2.356-2.487,2.32,2.32,0,0,1,2.356-2.486Z" fill="#333"/>
      <path id="パス_1308" data-name="パス 1308" d="M415.105,174.237a2.393,2.393,0,0,1,2.617-2.269,2.313,2.313,0,0,1,2.53,2.269v4.929c0,12.04-3.1,19.195-9.117,24.343a2.914,2.914,0,0,1-1.963.785,2.6,2.6,0,0,1-2.574-2.53,2.781,2.781,0,0,1,1.047-2.094c5.191-4.668,7.46-10.034,7.46-20.678Zm16.272,22.946c0,.654.174,1,.611,1a2.306,2.306,0,0,0,.872-.305,26.389,26.389,0,0,0,8.2-7.372,2.647,2.647,0,0,1,2.137-1.179,2.51,2.51,0,0,1,2.574,2.356,2.792,2.792,0,0,1-.523,1.527,30.771,30.771,0,0,1-10.688,9.554,8.313,8.313,0,0,1-3.752,1.047c-2.661,0-4.581-1.876-4.581-5.1V173.146a2.344,2.344,0,0,1,2.574-2.225,2.321,2.321,0,0,1,2.574,2.225Z" fill="#333"/>
      <path id="パス_1309" data-name="パス 1309" d="M432.421,105.528a2.288,2.288,0,0,1,2.487,2.705,91.087,91.087,0,0,0-2.007,19.282,85.616,85.616,0,0,0,.785,10.252,2.346,2.346,0,0,1-2.487,2.661,2.385,2.385,0,0,1-2.53-2.138,85.833,85.833,0,0,1-.741-10.775,98.334,98.334,0,0,1,2.05-20.155,2.341,2.341,0,0,1,2.443-1.832m19.805,26.829a35.835,35.835,0,0,0,6.588-.654,2.331,2.331,0,0,1,2.835,2.4,2.263,2.263,0,0,1-1.919,2.312,38.083,38.083,0,0,1-7.547.742c-8.071,0-11.43-2.443-11.91-7.722a2.441,2.441,0,0,1,2.531-2.661,2.13,2.13,0,0,1,2.224,1.876c.393,2.705,1.745,3.708,7.2,3.708m6.893-20.678a2.391,2.391,0,0,1-2.225,2.4,110.5,110.5,0,0,1-12.3.96,2.359,2.359,0,1,1-.174-4.711,106.046,106.046,0,0,0,12-.96,2.3,2.3,0,0,1,2.7,2.312" fill="#333"/>
      <path id="パス_1310" data-name="パス 1310" d="M479.448,111.679c1.134,0,1.7,1.047,1.7,2.094s-.567,2.094-1.7,2.094H476.7v6.238c.742-.305,1.44-.61,2.051-.916a2.633,2.633,0,0,1,1.047-.262,2.187,2.187,0,0,1,2.137,2.225,2.109,2.109,0,0,1-1.221,1.876c-1.222.611-2.574,1.222-4.014,1.832v13.917c0,1.221-1.134,1.832-2.268,1.832-1.178,0-2.313-.611-2.313-1.832V128.606c-1.57.523-3.053.959-4.318,1.308a3.39,3.39,0,0,1-.611.088,2.211,2.211,0,0,1-2.094-2.356,2.066,2.066,0,0,1,1.614-2.094c1.658-.437,3.533-1,5.409-1.658v-8.027H469.5c-.261.872-.567,1.7-.829,2.4a2.135,2.135,0,0,1-1.963,1.527,1.781,1.781,0,0,1-1.876-1.745,2.422,2.422,0,0,1,.131-.741,39.481,39.481,0,0,0,2.181-8.813,1.791,1.791,0,0,1,1.876-1.527,1.813,1.813,0,0,1,1.92,2.007c-.088.873-.262,1.789-.436,2.705h1.613v-8.027c0-1.222,1.135-1.789,2.313-1.789,1.134,0,2.268.567,2.268,1.789v8.027Zm24.866,3.926a2.107,2.107,0,0,1,0,4.188h-4.537v4.232H503.7a2.131,2.131,0,0,1,0,4.231h-3.926v8.856c0,3.752-1.7,5.1-5.1,5.1a15.539,15.539,0,0,1-3.577-.349,2.172,2.172,0,0,1-1.7-2.181,2.115,2.115,0,0,1,2.53-2.268,9.909,9.909,0,0,0,2.051.218c.829,0,1.134-.262,1.134-1.091v-8.289H483.592a2.131,2.131,0,0,1,0-4.231h11.517v-4.232H482.938a2.107,2.107,0,0,1,0-4.188H490.7v-3.926h-5.5a2.107,2.107,0,0,1,0-4.188h5.5v-3.708a2.1,2.1,0,0,1,2.312-2.007,2.078,2.078,0,0,1,2.312,2.007v3.708h5.89a2.107,2.107,0,0,1,0,4.188h-5.89v3.926Zm-13.655,17.232a2.236,2.236,0,0,1,.437,1.309,2.434,2.434,0,0,1-2.4,2.312,2.062,2.062,0,0,1-1.7-.916,26.493,26.493,0,0,0-2.224-2.662,2.056,2.056,0,0,1-.568-1.4,2.265,2.265,0,0,1,2.313-2.093,2.568,2.568,0,0,1,1.614.654,15.537,15.537,0,0,1,2.53,2.792" fill="#333"/>
      <path id="パス_1311" data-name="パス 1311" d="M516.4,120.143a41.161,41.161,0,0,1-3.14,4.057,2.478,2.478,0,0,1-4.363-1.484,2.464,2.464,0,0,1,.742-1.7c3.752-4.232,7.372-11.037,9.336-16.8a2.359,2.359,0,0,1,2.355-1.614,2.446,2.446,0,0,1,2.618,2.225,2.475,2.475,0,0,1-.131.785,58.477,58.477,0,0,1-4.537,9.947,1.965,1.965,0,0,1,1.919,1.919v22.9c0,1.222-1.178,1.833-2.4,1.833-1.178,0-2.4-.611-2.4-1.833Zm17.494-3.229a50.046,50.046,0,0,0,8.813-5.889,2.392,2.392,0,0,1,1.57-.611,2.607,2.607,0,0,1,2.443,2.53,2.218,2.218,0,0,1-.96,1.833,56.465,56.465,0,0,1-11.866,7.154V134.8c0,1.571.523,2.007,4.319,2.007,4.668,0,5.671-.785,6.064-4.057a2.1,2.1,0,0,1,2.225-1.876,2.2,2.2,0,0,1,2.443,2.356c-.7,6.238-3.36,7.852-10.688,7.852-7.5,0-9.249-1.439-9.249-5.714V104.7a2.465,2.465,0,0,1,4.886,0Z" fill="#333"/>
      <path id="パス_1312" data-name="パス 1312" d="M558.451,106.008a2.345,2.345,0,0,1,2.53-2.182,2.282,2.282,0,0,1,2.531,2.4c-.48,6.456-.916,14.745-.916,21.463,0,5.846,1.788,7.417,4.886,7.417,4.057,0,7.852-1.658,11.865-6.631a2.641,2.641,0,0,1,2.1-1.091,2.517,2.517,0,0,1,2.573,2.4,2.589,2.589,0,0,1-.61,1.615c-4.974,6.194-10.252,8.55-15.923,8.55-6.5,0-9.947-3.228-9.947-12.3,0-6.937.437-15.225.916-21.638" fill="#333"/>
      <path id="パス_1313" data-name="パス 1313" d="M590.865,116.87a2.146,2.146,0,0,1-2.4-2.268,2.292,2.292,0,0,1,2.224-2.4,55.525,55.525,0,0,0,6.2-.741c.393-2.4.568-4.319.829-6.718a2.441,2.441,0,0,1,4.843.436c-.219,2.094-.437,3.665-.7,5.322,1.222-.261,2.487-.567,3.752-.872a3.347,3.347,0,0,1,.655-.088,2.216,2.216,0,0,1,2.181,2.313,2.148,2.148,0,0,1-1.7,2.137c-2.007.567-3.927,1.047-5.672,1.44a132.55,132.55,0,0,1-6.107,22.947A2.868,2.868,0,0,1,592.3,140.3a2.3,2.3,0,0,1-2.4-2.225,3.25,3.25,0,0,1,.262-1.221,116.082,116.082,0,0,0,5.846-20.5c-1.876.262-3.621.436-5.148.523M607.225,129a1.973,1.973,0,0,1,2.093,1.832c.306,2.792,1.876,3.578,6.632,3.578a39.071,39.071,0,0,0,5.888-.437,2.337,2.337,0,0,1,2.749,2.4,2.284,2.284,0,0,1-2.006,2.312,41.025,41.025,0,0,1-6.544.48c-7.5,0-10.95-2.312-11.256-7.678A2.324,2.324,0,0,1,607.225,129m13.131-13.131a2.263,2.263,0,0,1,2.355,2.356,2.126,2.126,0,0,1-2.224,2.225,58.935,58.935,0,0,0-10.645,1.134,2.187,2.187,0,0,1-2.7-2.225,2.336,2.336,0,0,1,2.007-2.312,60.373,60.373,0,0,1,11.212-1.178" fill="#333"/>
      <path id="パス_1314" data-name="パス 1314" d="M249.94,105.222a2.537,2.537,0,0,1,5.061,0A76.332,76.332,0,0,0,256,118a59.772,59.772,0,0,1,8.594-3.4,2.479,2.479,0,0,1,.785-.13,2.374,2.374,0,0,1,2.269,2.442,2.145,2.145,0,0,1-1.614,2.138,51.423,51.423,0,0,0-11.473,5.061c-3.752,2.443-5.061,4.842-5.061,7.067,0,2.705,1.789,4.1,8.725,4.1a47.91,47.91,0,0,0,9.03-.786,2.34,2.34,0,0,1,2.923,2.356,2.4,2.4,0,0,1-1.963,2.443,50.43,50.43,0,0,1-10.034.829c-9.161,0-13.742-2.792-13.742-8.681,0-3.577,1.658-7.111,7.111-10.819a69.482,69.482,0,0,1-1.614-15.4" transform="translate(4.787)" fill="#333"/>
      <g id="グループ_769" data-name="グループ 769" style="isolation: isolate">
        <g id="グループ_768" data-name="グループ 768">
          <g id="グループ_767" data-name="グループ 767" clip-path="url(#clip-path)">
            <path id="パス_1315" data-name="パス 1315" d="M142.807,62.6a3.59,3.59,0,1,1-3.591-3.59,3.59,3.59,0,0,1,3.591,3.59" fill="#3aaea7"/>
          </g>
        </g>
      </g>
      <g id="グループ_772" data-name="グループ 772" style="isolation: isolate">
        <g id="グループ_771" data-name="グループ 771">
          <g id="グループ_770" data-name="グループ 770" clip-path="url(#clip-path-2)">
            <path id="パス_1316" data-name="パス 1316" d="M208.534,62.6a3.59,3.59,0,1,1-3.59-3.59,3.59,3.59,0,0,1,3.59,3.59" fill="#3aaea7"/>
          </g>
        </g>
      </g>
      <g id="グループ_775" data-name="グループ 775" style="isolation: isolate">
        <g id="グループ_774" data-name="グループ 774">
          <g id="グループ_773" data-name="グループ 773" clip-path="url(#clip-path-3)">
            <path id="パス_1317" data-name="パス 1317" d="M322.638,62.6a3.589,3.589,0,1,1-3.59-3.59,3.59,3.59,0,0,1,3.59,3.59" fill="#3aaea7"/>
          </g>
        </g>
      </g>
      <g id="グループ_778" data-name="グループ 778" style="isolation: isolate">
        <g id="グループ_777" data-name="グループ 777">
          <g id="グループ_776" data-name="グループ 776" clip-path="url(#clip-path-4)">
            <path id="パス_1318" data-name="パス 1318" d="M393.6,62.6a3.59,3.59,0,1,1-3.59-3.59,3.59,3.59,0,0,1,3.59,3.59" fill="#3aaea7"/>
          </g>
        </g>
      </g>
      <g id="グループ_789" data-name="グループ 789" transform="translate(9.729 5.903)">
        <g id="グループ_788" data-name="グループ 788" clip-path="url(#clip-path-5)">
          <path id="パス_1512" data-name="パス 1512" d="M24.871,81.473l1.656,1.419a1.359,1.359,0,0,0,.9.341,2.079,2.079,0,0,0,1.5-.776,1.682,1.682,0,0,0,.045-2.421L27.7,78.945c-.3-.259-.448-.459.065-1.059l10.725-12.5a1.124,1.124,0,0,1,.569-.429c.093-.015.225,0,.466.2l1.163,1a1.677,1.677,0,0,0,2.382-.453,2.221,2.221,0,0,0,.542-1.179,1.372,1.372,0,0,0-.474-1.221l-1.545-1.323c-1.722-1.477-3.309-1.183-5.144.958l-4.54,5.295-1.425-1.221a1.934,1.934,0,0,0-2.45,2.854l1.425,1.222-4.426,5.161C23.2,78.384,23.15,80,24.871,81.473" transform="translate(-3.374 -8.723)" fill="#333"/>
          <path id="パス_1513" data-name="パス 1513" d="M55.81,73.883a1.8,1.8,0,0,0-1.258.825c-1.14,1.644-2.506,3.418-3.748,4.867-.861,1-1.646,1.841-2.393,2.555l-3.271-2.8,3.984-4.647a1.343,1.343,0,0,0,.335-1,1.742,1.742,0,0,0-.625-1.166,1.507,1.507,0,0,0-2.184.041L42.665,77.2l-2.492-2.137L44.349,70.2a1.621,1.621,0,0,0-2.43-2.085l-10.8,12.595a1.244,1.244,0,0,0-.307.921,1.741,1.741,0,0,0,.633,1.157,1.458,1.458,0,0,0,2.1.007l4.2-4.893,7.515,6.446a8.4,8.4,0,0,1-5.244.414,20.2,20.2,0,0,0-1.327-2.145,1.538,1.538,0,0,0-1.2-.648,2.047,2.047,0,0,0-1.573.757,1.627,1.627,0,0,0-.149,2.087,22.8,22.8,0,0,1,3.747,9.244,1.844,1.844,0,0,0,.6,1.13,1.618,1.618,0,0,0,1.061.379,1.939,1.939,0,0,0,1.459-.677,1.989,1.989,0,0,0,.447-1.643,21.265,21.265,0,0,0-1.4-5.039c4.235.369,7.47-1.414,11.776-6.436a56.462,56.462,0,0,0,4.032-5.155,1.68,1.68,0,0,0-.3-2.292,1.775,1.775,0,0,0-1.375-.437" transform="translate(-4.401 -9.666)" fill="#333"/>
          <path id="パス_1514" data-name="パス 1514" d="M62.04,43.567a1.222,1.222,0,0,0,1.141-.129l3.074-2.05c.139.407.253.832.363,1.247l.051.189-.246.165c-1.894,1.264-2.212,2.54-1.063,4.263L71,55.707a2.727,2.727,0,0,0,2.249,1.462,3.915,3.915,0,0,0,2.112-.783l3.971-2.65c1.861-1.242,2.2-2.61,1.071-4.3l-5.643-8.456a2.841,2.841,0,0,0-1.9-1.443,3.59,3.59,0,0,0-2.468.8l-.835.557c-.117-.476-.255-.96-.4-1.451l3.429-2.288a1.245,1.245,0,0,0,.545-.8,1.739,1.739,0,0,0-.3-1.284,1.789,1.789,0,0,0-.861-.692,1.265,1.265,0,0,0-1.146.141L61.422,40.8a1.225,1.225,0,0,0-.56,1,1.8,1.8,0,0,0,.32,1.047,1.877,1.877,0,0,0,.858.719m6.405,1.495L71.533,43a.714.714,0,0,1,.339-.149h.02c.071.009.155.086.249.227l.633.948-3.832,2.559-.633-.949c-.189-.282-.167-.374.136-.576m2.044,3.844,3.833-2.558.873,1.308-3.833,2.557Zm2.421,3.627,3.832-2.559.716,1.071c.091.136.127.236.108.3s-.115.157-.285.271l-3.087,2.061c-.33.219-.4.186-.568-.071Z" transform="translate(-8.695 -4.9)" fill="#333"/>
          <path id="パス_1515" data-name="パス 1515" d="M78.41,59.916a1.74,1.74,0,0,0-2,1.319,18.123,18.123,0,0,1-1.547,3.759,1.581,1.581,0,0,0,.02,1.7,1.736,1.736,0,0,0,1.069.709,1.805,1.805,0,0,0,.392.044,1.646,1.646,0,0,0,.921-.277,2.065,2.065,0,0,0,.638-.744,21.133,21.133,0,0,0,1.743-4.534,1.514,1.514,0,0,0-1.239-1.974" transform="translate(-10.661 -8.556)" fill="#333"/>
          <path id="パス_1516" data-name="パス 1516" d="M68.441,60.212a3.135,3.135,0,0,0-1.658-1.361,1.726,1.726,0,0,0,.576-.243,1.679,1.679,0,0,0,.717-1.044,1.569,1.569,0,0,0-.225-1.208,1.843,1.843,0,0,0-1.523-.778c-1.3-.072-2.708-.04-3.958,0a20.412,20.412,0,0,0,.053-2.354,3.57,3.57,0,0,0-.525-1.86,1.9,1.9,0,0,0-1.5-.883,3.154,3.154,0,0,0-1.944.621L56.9,52.139c-.006-.03-.013-.062-.02-.1a1.682,1.682,0,0,0-.22-.513,1.486,1.486,0,0,0-1.91-.38L58.268,48.8a.953.953,0,0,1,.447-.207c.057.009.137.092.25.261l.524.785a1.679,1.679,0,0,0,2.76-1.843l-.85-1.275a2.73,2.73,0,0,0-1.713-1.352,3.444,3.444,0,0,0-2.5.788l-1.659,1.107-.83-1.244a1.583,1.583,0,0,0-2.284-.222,2.178,2.178,0,0,0-.826.957,1.3,1.3,0,0,0,.129,1.256l.83,1.241-1.758,1.173A3.493,3.493,0,0,0,49.1,52.216a2.68,2.68,0,0,0,.573,2.1l.965,1.446a1.513,1.513,0,0,0,2.17.263,1.872,1.872,0,0,0,.737-.914,1.315,1.315,0,0,0-.147-1.191l-.621-.932c-.114-.17-.16-.275-.146-.331.019-.074.141-.187.363-.334l1.328-.886a1.522,1.522,0,0,0-.494,1.479,17.976,17.976,0,0,1,.075,6.242,1.843,1.843,0,0,0,.227,1.359,1.534,1.534,0,0,0,2.1.377,1.832,1.832,0,0,0,.753-1.281c.011-.11.029-.225.047-.34l.026-.166.331-.036c.409-.046.824-.092,1.238-.128a19.361,19.361,0,0,1-2.162,4.6,1.583,1.583,0,0,0-.046,1.79,1.535,1.535,0,0,0,.922.639,1.5,1.5,0,0,0,1.173-.221,1.78,1.78,0,0,0,.58-.591c.13-.216.255-.429.378-.639a4.166,4.166,0,0,0,.566,1.3l1.668,2.5a2.693,2.693,0,0,0,2.229,1.449,4.21,4.21,0,0,0,2.255-.853l2.747-1.833c1.435-.989,2.57-2.2,1.167-4.368Zm-9.105-5.986a12.374,12.374,0,0,1-.087,1.623c-.587.07-1.152.161-1.748.256l-.241.039c0-.29,0-.582-.012-.884l1.8-1.2a1.449,1.449,0,0,1,.263-.149,1.077,1.077,0,0,1,.025.316M63.218,63.5l1.863-1.244a.837.837,0,0,1,.4-.174l.034,0c.054.01.143.05.294.275L67.039,64.2c.151.225.153.323.141.376-.021.093-.13.207-.327.339l-1.863,1.243a.636.636,0,0,1-.435.158.542.542,0,0,1-.3-.261l-1.227-1.838c-.206-.309-.237-.433.185-.715m.618-3.906-2.6,1.734c-.1.069-.209.141-.315.219a22.194,22.194,0,0,0,.9-2.781c1.3-.024,2.5,0,3.591.08a5.164,5.164,0,0,0-1.581.749" transform="translate(-7.008 -6.449)" fill="#333"/>
          <path id="パス_1517" data-name="パス 1517" d="M86.892,56.961a24.839,24.839,0,0,1-3.419-.157,1.812,1.812,0,0,0-1.352.249,1.562,1.562,0,0,0,.484,2.9,20.058,20.058,0,0,0,4.082.381l.288,0a1.816,1.816,0,0,0,1.041-.286,1.665,1.665,0,0,0,.706-1.1,1.7,1.7,0,0,0-.239-1.246,1.762,1.762,0,0,0-1.591-.746" transform="translate(-11.621 -8.11)" fill="#333"/>
          <path id="パス_1518" data-name="パス 1518" d="M106.057,27.641a12.018,12.018,0,0,0-9.064-.32c-7.561,2.407-11.635,9.333-9.477,16.11h0c1.229,3.86,3.709,5.424,6.055,5.424A5.369,5.369,0,0,0,95.2,48.6c2.45-.779,3.765-2.4,4.4-5.428a29.591,29.591,0,0,0-.568-12.813,6.943,6.943,0,0,1,8.473,4.757c1.119,3.519.112,6.327-3.172,8.841a1.942,1.942,0,0,0-.771,2.188,1.891,1.891,0,0,0,2.391,1.258,2.181,2.181,0,0,0,.678-.351c4.563-3.243,6.25-8.03,4.625-13.131a10.327,10.327,0,0,0-5.2-6.281M95.349,31.8a26.071,26.071,0,0,1,.382,10.717c-.39,1.835-1.067,2.283-1.678,2.477-.861.276-2.065-.3-2.841-2.736A9.048,9.048,0,0,1,95.349,31.8" transform="translate(-12.42 -3.8)" fill="#333"/>
          <path id="パス_1519" data-name="パス 1519" d="M36.228,108.593,1.407,91.7a.979.979,0,0,0-.855,1.762l34.821,16.893a.979.979,0,0,0,.855-1.762" transform="translate(0 -13.086)" fill="#333"/>
          <path id="パス_1520" data-name="パス 1520" d="M128.873,36.334,114,.6a.979.979,0,1,0-1.808.753l14.872,35.731a.979.979,0,1,0,1.808-.753" transform="translate(-16.017 0)" fill="#333"/>
        </g>
      </g>
    </g>
  </g>
</svg>
