<svg xmlns="http://www.w3.org/2000/svg" xmlns:xlink="http://www.w3.org/1999/xlink" width="160" height="170" viewBox="0 0 160 170">
  <defs>
    <clipPath id="clip-path">
      <rect id="長方形_162" data-name="長方形 162" width="160" height="170" transform="translate(394.153 5839.759)" fill="#fff" stroke="#707070" stroke-width="1"/>
    </clipPath>
  </defs>
  <g id="マスクグループ_13" data-name="マスクグループ 13" transform="translate(-394.153 -5839.759)" clip-path="url(#clip-path)">
    <g id="グループ_730" data-name="グループ 730" transform="translate(393.937 5840.202)">
      <g id="グループ_729" data-name="グループ 729" transform="translate(0 0)">
        <g id="グループ_732" data-name="グループ 732" transform="translate(0 0)">
          <path id="パス_1148" data-name="パス 1148" d="M178.859,152.458c0,13.006.236,26.01.24,39.016a1.622,1.622,0,0,0,3.241,0c0-13.006-.236-26.01-.24-39.016a1.622,1.622,0,0,0-3.241,0" transform="translate(-76.85 -64.834)" fill="#333"/>
          <path id="パス_1149" data-name="パス 1149" d="M174.173,327.878a.127.127,0,0,1,.051-.025l0-.008-.048.033" transform="translate(-74.837 -140.866)" fill="#00c8e7"/>
          <path id="パス_1150" data-name="パス 1150" d="M67.271,227.166c0,2.374,3.545,2.356,3.672,0-.127-2.354-3.672-2.377-3.672,0" transform="translate(-28.904 -96.845)" fill="#fff"/>
          <path id="パス_1151" data-name="パス 1151" d="M91.178,230.13l-1.006.741c-1.254.924-2.512,2.2-4.135,2.346l-.064,0c.165,1.732-2.62,2.359-3.2.5q-.485-1.557-.992-3.106c-3.839-11.8-7.774-23.629-12.154-35.246a2.2,2.2,0,0,0-2.357-1.648l-3.121-.043-11.832-.161-31.706-.431-11.482-.156c-.909-.013-1.847-.094-2.755-.038-.1.006-.325-.053-.42-.006-.638.317.088,1.849.258,2.443,3.79,13.179,8.575,26.062,12.644,39.157l9.4.114A68.844,68.844,0,0,1,25.7,227.25c-.908-3.324,1.732-6.575,5.28-5.115a3.193,3.193,0,0,1,.8.476,3.867,3.867,0,0,1,2.134-.7,4.674,4.674,0,0,1,3.587,1.472,3.5,3.5,0,0,1,2.01-.754,4.94,4.94,0,0,1,4.507,2.3,4.118,4.118,0,0,1,5.792,1.317,26.43,26.43,0,0,1,2.209,4.994c.739,1.892,1.47,3.787,2.213,5.678a1.543,1.543,0,0,1,1.547-1.85l3.707.039,25.957.274a1.629,1.629,0,0,1,1.42,2.349c.19-.094.376-.194.56-.3a1.73,1.73,0,0,1,.531-2.124l5.473-4.1q-.688-.217-1.382-.441a1.582,1.582,0,0,1-.863-.634M47.671,213.738a5.077,5.077,0,1,1,0-1.094,2.677,2.677,0,0,1,0,1.094" transform="translate(-2.448 -82.87)" fill="#c0ebf6"/>
          <path id="パス_1152" data-name="パス 1152" d="M183.943,30.573a5.944,5.944,0,0,1,.186.642,5.944,5.944,0,0,0-.186-.642,5.315,5.315,0,0,0-1.286-.6,1.659,1.659,0,0,1-.793-2.6c-.2-.212-.413-.418-.628-.619-.532,1.346-2.756,1.673-3.035-.043-.651-4.015-5.006-4.866-8.49-4.826a28.934,28.934,0,0,0-12.86,3.631,13.243,13.243,0,0,0-7.025,9.133c-1.04,4.482-.2,9.141.761,13.556.009.039.013.078.019.116l.974.656a16.365,16.365,0,0,0,3.681-5.479c-1.319-.233-2.088-2.195-.6-2.975a50.12,50.12,0,0,0,12.231-9,1.621,1.621,0,0,1,2.292,2.292,53.083,53.083,0,0,1-11.831,8.927c1.819.1,4.02-.738,5.6-.848a1.41,1.41,0,0,1,.74-1.731,40.333,40.333,0,0,0,8.577-6.6c1.516-1.433,3.81.856,2.292,2.292a48.185,48.185,0,0,1-8.022,6.426,17.826,17.826,0,0,0,4.009.449,1.588,1.588,0,0,1,.664-1.853,22.619,22.619,0,0,0,6.384-5.585c1.2-1.688,4.008-.068,2.8,1.636-.157.222-.32.436-.484.648.7,4.174,1.258,8.3,3.527,12.033l1.851-.926c.545-3.6,1.685-7.15,1.6-10.789-.064-2.756-.621-5.829-2.948-7.318" transform="translate(-64.17 -9.404)" fill="#c0ebf6"/>
          <path id="パス_1153" data-name="パス 1153" d="M180.858,102.022a5.661,5.661,0,0,1-6.877-.2c-1.691-1.226-3.31,1.585-1.636,2.8a8.778,8.778,0,0,0,10.148.205c1.71-1.172.091-3.982-1.636-2.8" transform="translate(-73.749 -43.618)" fill="#333"/>
          <path id="パス_1154" data-name="パス 1154" d="M167.145,71.4a1.622,1.622,0,0,0,0,3.241,1.622,1.622,0,0,0,0-3.241" transform="translate(-71.144 -30.679)" fill="#333"/>
          <path id="パス_1155" data-name="パス 1155" d="M193.923,71.245a1.622,1.622,0,0,0,0,3.241,1.622,1.622,0,0,0,0-3.241" transform="translate(-82.65 -30.612)" fill="#333"/>
          <path id="パス_1156" data-name="パス 1156" d="M206.9,34.108a5.316,5.316,0,0,1,1.286.6,8.985,8.985,0,0,0-2.078-3.2,1.658,1.658,0,0,0,.793,2.6" transform="translate(-88.414 -13.539)" fill="#333"/>
          <path id="パス_1157" data-name="パス 1157" d="M183.176,47.137a1.732,1.732,0,0,0-.134-.455c.581-4.546,2.082-8.9,1.461-13.561-.54-4.047-2.308-7.438-6.4-8.716a1.414,1.414,0,0,0-1.655.526,8.984,8.984,0,0,1,2.079,3.2c2.328,1.489,2.884,4.562,2.948,7.317.084,3.64-1.056,7.192-1.6,10.789l-1.851.926c.216.355.441.708.69,1.055-.248-.347-.474-.7-.69-1.055l-2.44,1.22a1.361,1.361,0,0,0-.821,1.22,1.678,1.678,0,0,0-.173.694c-.191,4.723-7.141,4.736-7.332,0a1.648,1.648,0,0,0-2.053-1.525,1.552,1.552,0,0,0-.925-.279h-4.946a1.5,1.5,0,0,0-1.124.455,1.539,1.539,0,0,0-.82,1.349c-.191,4.723-7.141,4.736-7.333,0a1.541,1.541,0,0,0-.684-1.267,1.631,1.631,0,0,0-.622-.754l-2.585-1.741a10.988,10.988,0,0,1-1.806,1.359,10.988,10.988,0,0,0,1.806-1.359l-.975-.656c-.006-.038-.01-.076-.019-.115-.959-4.415-1.8-9.075-.761-13.556a13.243,13.243,0,0,1,7.025-9.133,28.942,28.942,0,0,1,12.86-3.631c3.484-.04,7.839.811,8.49,4.826.278,1.716,2.5,1.389,3.035.043a28.872,28.872,0,0,0-2.941-2.346,28.872,28.872,0,0,1,2.941,2.346,1.694,1.694,0,0,0,.09-.9c-.749-4.625-5.061-6.615-9.3-7.087-5.456-.608-11.117,1.157-15.977,3.53a16.542,16.542,0,0,0-9.074,10.44c-1.4,4.776-.843,9.763.117,14.573a1.79,1.79,0,0,0-.187.212,7.62,7.62,0,0,0-4.7,8.106,9.343,9.343,0,0,0,6.612,7.612c.5,3.983,1.213,8.068,3.166,11.607a14.164,14.164,0,0,0,1.083,1.669,1.746,1.746,0,0,0-.016.332q.106,2.382.213,4.764c1.088.488,2.188.947,3.3,1.391,0-.045,0-.09,0-.137q-.07-1.56-.14-3.121a18.167,18.167,0,0,0,3.123,1.769,18.736,18.736,0,0,0,19.366-2.3l.05,1.81q1.591-.891,3.193-1.763-.045-1.63-.09-3.259c0-.057-.006-.112-.013-.166.084-.119.17-.235.251-.357a24.577,24.577,0,0,0,3.531-9.855c8.167-.272,9.912-15.437,2.759-16.039m1.272,7.429c-.314,2.119-1.485,4.816-3.713,5.295,0-1.994-3.146-1.96-3.241.09-.317,6.882-3.308,14.27-10.221,16.733-5.881,2.1-13.869.406-17.405-5.08-2.257-3.5-2.888-7.93-3.367-11.984a1.69,1.69,0,0,0-1.134-1.422,1.545,1.545,0,0,0-.768-.432,6.17,6.17,0,0,1-4.554-4.623,4.423,4.423,0,0,1,2.48-5.017c.044-.017.085-.036.126-.055l4.212,2.836a6.866,6.866,0,0,0,13.566.826h.394a1.711,1.711,0,0,0-.125.594,6.854,6.854,0,0,1-.849,3.14,7.5,7.5,0,0,0-1.318,2.409c-.332,2.19,1.826,3.023,3.4,3.9,1.825,1.013,3.462-1.785,1.636-2.8-.173-.1-1.8-1.079-1.746-.648A13.489,13.489,0,0,1,163,56.4a10.437,10.437,0,0,0,.94-4.07,1.648,1.648,0,0,0-.083-.594h.356a6.866,6.866,0,0,0,13.566-.833l2.212-1.106a1.483,1.483,0,0,0,1.76.715c2.614-.72,3.018,1.9,2.7,4.056" transform="translate(-58.75 -6.961)" fill="#333"/>
          <path id="パス_1158" data-name="パス 1158" d="M112.7,139.582a7.372,7.372,0,0,0-3.812,2.134,7.372,7.372,0,0,1,3.812-2.134,1.629,1.629,0,0,0-.579-.059c-3.968.274-8.073.554-11.846,1.907a15.445,15.445,0,0,0-5.017,2.817,17.288,17.288,0,0,0-3.226,4.328,171.039,171.039,0,0,0-8.262,16,1.654,1.654,0,0,0-.124,1.082,14.68,14.68,0,0,0,.936-1.575,14.68,14.68,0,0,1-.936,1.575c.3,1.319,2.223,2.065,2.922.554,2.292-4.948,4.728-9.855,7.438-14.587a26.485,26.485,0,0,1,2.693-4.242,10.5,10.5,0,0,1,4.437-2.824,40.528,40.528,0,0,1,10.985-1.791c1.854-.128,2.058-2.744.579-3.182" transform="translate(-35.921 -59.948)" fill="#333"/>
          <path id="パス_1159" data-name="パス 1159" d="M81.887,274.013a26.084,26.084,0,0,1-1.526,2.806,26.084,26.084,0,0,0,1.526-2.806,1.758,1.758,0,0,0-2.68.759c-1.635,4.333-8.693,2.368-12.032,2.62-3.4.256-9.963,3.492-12.246-.574a1.547,1.547,0,0,0-2.459-.334,4.876,4.876,0,0,0,1.315,1.632,4.876,4.876,0,0,1-1.315-1.632,1.524,1.524,0,0,0-.339,1.97l.021.035a5.459,5.459,0,0,0,1.633.275,5.459,5.459,0,0,1-1.633-.275,7.372,7.372,0,0,0,5.886,3.482c3.33.351,6.441-1.251,9.73-1.369,3.077-.111,6.191.612,9.212-.271a7.74,7.74,0,0,0,5.351-4.7,1.31,1.31,0,0,0-.445-1.621" transform="translate(-22.304 -117.591)" fill="#333"/>
          <path id="パス_1160" data-name="パス 1160" d="M146.839,272.026a1.5,1.5,0,0,0,.355-.509c-.354.176-.714.34-1.076.484.24,0,.48.011.721.025" transform="translate(-62.782 -116.663)" fill="#333"/>
          <path id="パス_1161" data-name="パス 1161" d="M136.812,214.911c0,.027,0,.055,0,.082,0-.027,0-.055,0-.082a1.922,1.922,0,0,0-.253-.047l-27.214-2.947a1.331,1.331,0,0,0-1.544,1.369,26.953,26.953,0,0,1-8.4-2.07,34.248,34.248,0,0,1-9.193-5.03c-2.432-2.018-4.749-3.75-7.989-4.113-2.807-.315-5.217.727-7.6,1.963q-1.8-5.078-3.635-10.136c-1.02-2.807-1.966-5.692-5.473-5.886-.526-.029-1.06-.014-1.587-.021l-10.5-.143-6.831-.092a9.954,9.954,0,0,0-1.182,2.28,9.954,9.954,0,0,1,1.182-2.28l-26-.354-12.852-.175c-2.118-.029-5.338-.621-6.9,1.148-1.86,2.1-.145,5.577.559,7.883.994,3.253,2.045,6.488,3.1,9.72,2.456,7.512,4.982,15,7.4,22.526q.753,2.341,1.483,4.688a1.774,1.774,0,0,0,.174.389,1.555,1.555,0,0,0,1.564,1.654H15.2a5.837,5.837,0,0,0,1.832,3.51c2.5,2.213,6.687,1.807,9.752,2.63a1.489,1.489,0,0,0,1.688-.605,11.492,11.492,0,0,0-2.5-.825,11.492,11.492,0,0,1,2.5.825,1.593,1.593,0,0,0-.827-2.52c-1.883-.505-3.8-.659-5.713-1.013a6.564,6.564,0,0,1-2.6-.793,3.371,3.371,0,0,1-.914-1.17l8.2.1a1.7,1.7,0,0,0,.489-.063c.356.862.711,1.721,1.056,2.574a1.723,1.723,0,0,0,1.829,1.069,13.366,13.366,0,0,0-1.1-1.925,13.366,13.366,0,0,1,1.1,1.925,1.38,1.38,0,0,0,1.3-1.931q-1.956-4.843-3.732-9.755c-.27-.751-1.8-3.728-1.252-4.418.844-1.056,1.528.69,1.815,1.286.074.153.144.308.216.461.283.763.676,1.5.991,2.209.188.423.367.85.548,1.278.83,2,1.594,4.036,2.33,6.069.7,1.943,3.825,1.116,3.125-.862q-.829-2.342-1.752-4.65-.636-1.6-1.328-3.176-.408-.957-.84-1.9c-.228-.68-.2-1.22.857-.768,1.086.465,1.588,2,2.036,3,.512,1.141.971,2.306,1.42,3.473q.857,2.23,1.644,4.488c.676,1.953,3.772,1.138,3.125-.862q-.679-2.1-1.462-4.163c-.425-1.124-.886-2.232-1.372-3.332-.312-.706-1.222-2.607.417-1.87,1.789.8,2.712,4.279,3.3,5.971.438,1.268.834,2.555,1.157,3.857.5,2.024,3.627,1.167,3.125-.861a43.124,43.124,0,0,0-2.042-6.189c-.137-.329-.283-.671-.438-1.016,1.2-1.684,2.672,2.805,2.923,3.443.963,2.447,1.9,4.9,2.868,7.35.759,1.916,3.895,1.081,3.125-.862v0a1.5,1.5,0,0,0,1.24.605l6.622.07a9.017,9.017,0,0,0,.376-1.461,9.017,9.017,0,0,1-.376,1.461l1.447.015c-.024-.6-.055-1.195-.1-1.8.043.605.075,1.2.1,1.8l17.888.189,3.707.039a1.5,1.5,0,0,0,1.065-.383c-.24-.014-.48-.025-.72-.025.361-.144.721-.307,1.075-.484a1.629,1.629,0,0,0-1.42-2.349l-25.957-.274-3.707-.039a1.543,1.543,0,0,0-1.547,1.85c-.743-1.891-1.474-3.786-2.213-5.678a26.43,26.43,0,0,0-2.209-4.994,4.118,4.118,0,0,0-5.792-1.317,4.939,4.939,0,0,0-4.507-2.3,3.492,3.492,0,0,0-2.01.754,4.675,4.675,0,0,0-3.587-1.472,3.867,3.867,0,0,0-2.134.7,3.193,3.193,0,0,0-.8-.476c-3.548-1.461-6.188,1.79-5.28,5.114a68.811,68.811,0,0,0,2.555,7.35l-9.4-.114c-4.068-13.095-8.853-25.977-12.644-39.157-.171-.594-.9-2.125-.258-2.442.1-.047.315.012.42.006.907-.056,1.846.025,2.755.037l11.482.156,31.706.431L61.7,191.2l3.121.042a2.2,2.2,0,0,1,2.357,1.649c4.381,11.616,8.315,23.442,12.154,35.246q.5,1.55.992,3.105c.579,1.86,3.365,1.233,3.2-.5l.064,0c1.623-.15,2.881-1.422,4.135-2.346l1.006-.741a1.582,1.582,0,0,0,.863.634q.695.222,1.382.441l-5.473,4.1a1.73,1.73,0,0,0-.531,2.124,8.267,8.267,0,0,0,2.578-2.135,8.267,8.267,0,0,1-2.578,2.135,1.7,1.7,0,0,0,.753.848,3.892,3.892,0,0,0,1.5-.39,3.892,3.892,0,0,1-1.5.39,1.282,1.282,0,0,0,1.414-.173l7.7-5.764c3.7.951,7.358,1.375,11.22.225-.189.327-.38.643-.574.942a1.531,1.531,0,0,0,1.128,2.35,2.524,2.524,0,0,1,.708-2.182,2.524,2.524,0,0,0-.708,2.182,1.561,1.561,0,0,0,1.67-.714c3.008-4.641,5.1-11.6,3.55-17.238l24.728,2.678c1.981.215,2.051-2.743.253-3.194m-29.122,11.756a1.332,1.332,0,0,0-1.29-.112,14.739,14.739,0,0,1-7.9.915,28.784,28.784,0,0,1-2.963-.687,1.265,1.265,0,0,0-1.286-.382c-.892-.278-1.779-.573-2.665-.865,1.49-1.123,2.959-2.274,4.368-3.5,1.578-1.37-.723-3.654-2.292-2.292-2.029,1.762-4.194,3.356-6.354,4.95-1.2.882-3.194,3.127-4.814,2.675-.147-.464-.291-.928-.44-1.392a1.7,1.7,0,0,0,.584-.357l6.707-6.158c1.54-1.414-.757-3.7-2.292-2.292L81,222.732q-.413-1.267-.832-2.533l5.839-5.1c1.574-1.374-.726-3.659-2.292-2.292l-4.655,4.065q-.414-1.23-.835-2.458l4.612-3.327a1.666,1.666,0,0,0,.581-2.217,1.633,1.633,0,0,0-2.217-.581l-4.068,2.934q-.708-2.053-1.426-4.1c2.516-1.331,4.972-2.47,7.933-1.464,2.8.949,4.7,3.5,7.191,4.988,5.266,3.139,11.711,5.953,17.986,5.923.807,3.128.128,6.854-1.132,10.1" transform="translate(0 -80.397)" fill="#333"/>
          <path id="パス_1162" data-name="パス 1162" d="M237.154,194.388c-.663-6.314-1.414-12.621-2.4-18.894a172.052,172.052,0,0,0-4.012-19.975,24.31,24.31,0,0,0-3.149-6.271,21.519,21.519,0,0,0-4.754-5.758c-4.867-3.647-11.936-3.126-17.664-3.86a1.269,1.269,0,0,0-1.243.46A8.016,8.016,0,0,1,207,141.109a8.016,8.016,0,0,0-3.068-1.019,1.811,1.811,0,0,0,1.243,2.781c4.908.629,10.726.211,15.127,2.813A13.585,13.585,0,0,1,224.205,150a30.238,30.238,0,0,1,3.1,5.46c1.043,2.581,1.414,5.588,1.992,8.3q.966,4.544,1.756,9.122c1.01,5.861,1.786,11.757,2.445,17.667.7,6.232,1.5,12.507,1.883,18.767.16,2.6.1,5.649-1.855,7.619-1.628,1.639-4.068,1.912-6.266,1.85-3.357-.095-6.655-.993-9.95-1.583-3.4-.609-6.8-1.184-10.2-1.759q-9.048-1.527-18.1-3.009a1.757,1.757,0,0,0-2.012,1.522c1.536.266,3.227-.04,4.77.4-1.542-.441-3.233-.134-4.77-.4a1.317,1.317,0,0,0,1.15,1.6q8.526,1.4,17.047,2.832c3.713.626,7.427,1.252,11.135,1.915.821.147,1.642.31,2.464.477a1.473,1.473,0,0,0-.66,1.288c.006,9.566.193,19.135.329,28.7-9.2-.49-18.548-1.169-27.551-3.058a35.205,35.205,0,0,1-3.88-1,10.7,10.7,0,0,1-1.212-.466c-.187-.092-.37-.189-.549-.3-.3-.179-.183-.11-.249-.168a1.712,1.712,0,0,0-2.713.7c1.181.042,2.365.121,3.625.279-1.26-.157-2.444-.237-3.625-.279a1.359,1.359,0,0,0,.421,1.587c1.526,1.345,3.674,1.9,5.6,2.376a84.088,84.088,0,0,0,8.858,1.575c6.2.843,12.439,1.392,18.682,1.814l.246.016q1.625.11,3.25.2c.246.014.492.03.738.042a1.637,1.637,0,0,0,1.62-1.62c-.137-10.134-.347-20.272-.353-30.407a1.592,1.592,0,0,0-.208-.815,37.974,37.974,0,0,0,6.1.771c5.408.152,10.213-2.448,11.163-8.133.505-3.024.076-6.053-.221-9.075-.342-3.477-.683-6.953-1.048-10.428" transform="translate(-78.287 -59.989)" fill="#333"/>
          <path id="パス_1163" data-name="パス 1163" d="M249,178.76l-4.972,7.887q.214-4.368.336-8.739c.056-2.086-3.185-2.085-3.241,0-.234,8.74-.781,17.482-1.509,26.195a1.34,1.34,0,0,0,.518,1.258,31.534,31.534,0,0,1,.6-3.1,31.534,31.534,0,0,0-.6,3.1,1.747,1.747,0,0,0,2.722-1.258q.581-6.952.986-13.924a1.584,1.584,0,0,0,2.14-.556L251.8,180.4c1.116-1.77-1.688-3.4-2.8-1.636" transform="translate(-102.952 -75.77)" fill="#333"/>
          <path id="パス_1164" data-name="パス 1164" d="M211.141,243.316a13.183,13.183,0,0,1-1.941,11.03c-1.184,1.724,1.624,3.346,2.8,1.636a16.365,16.365,0,0,0,2.268-13.528,1.622,1.622,0,0,0-3.125.862" transform="translate(-89.764 -103.683)" fill="#333"/>
          <path id="パス_1165" data-name="パス 1165" d="M66.665,219.6a5.073,5.073,0,1,0,5.021,5.624,2.664,2.664,0,0,0,0-1.094,5.117,5.117,0,0,0-5.02-4.53m-1.836,5.077c0-2.377,3.545-2.354,3.672,0-.127,2.356-3.672,2.374-3.672,0" transform="translate(-26.462 -94.357)" fill="#333"/>
          <path id="パス_1166" data-name="パス 1166" d="M148.484,282.586c-.031-2.084-3.273-2.09-3.241,0,.107,7.058.44,14.113.426,21.173,0,1.047.041,2.113-.052,3.157a6.354,6.354,0,0,1-.1.71.472.472,0,0,0-.009.088,1.873,1.873,0,0,1-.254.076c-.262.059-.521.13-.783.188-1,.221-2,.41-3,.671-7.272,1.921-15.208,1.873-22.688,1.937-2.038.018-4.078.01-6.113-.1-.562-.032-1.681-.12-1.94-.16-.04-.006-.079-.014-.119-.022q.077-5.979.121-11.959c.037-5.175.362-10.492-.1-15.655a1.733,1.733,0,0,0-3-.99,50.565,50.565,0,0,0,.433,6.058,50.565,50.565,0,0,1-.433-6.058,1.408,1.408,0,0,0-.245.99c.515,5.721.137,11.621.091,17.356q-.039,4.58-.094,9.161c-.017,1.329-.268,2.785.706,3.605a2.4,2.4,0,0,0,.845.444,12.207,12.207,0,0,0,2.464.467c1.65.159,3.373.1,4.932.109,3.806.034,7.614-.085,11.415-.282,3.351-.174,6.708-.393,10.037-.827a69.55,69.55,0,0,0,7.963-1.709c2.142-.54,2.86-2.036,3.087-3.8-.821-.013-1.653-.014-2.523-.014.87,0,1.7,0,2.523.014a32.074,32.074,0,0,0,.075-3.949c0-6.895-.323-13.784-.427-20.677m-3.023,25.173.048-.033,0,.008a.128.128,0,0,0-.051.025" transform="translate(-46.124 -120.747)" fill="#333"/>
          <path id="パス_1167" data-name="パス 1167" d="M181.991,122.5a1.641,1.641,0,0,0-2.217-.582c-.141.077-.281.156-.422.233q-1.6.873-3.193,1.763c-3.088,1.728-6.156,3.492-9.247,5.212-1.251.7-2.219,1.385-3.7.738s-2.958-1.362-4.467-1.985c-1.651-.68-3.323-1.32-4.984-1.986-1.108-.444-2.209-.9-3.3-1.39-.591-.265-1.179-.537-1.759-.824a1.655,1.655,0,0,0-2.381.968l-2.555,6.17a9.577,9.577,0,0,0,.932-.315,9.577,9.577,0,0,1-.932.315l-.871,2.1a1.628,1.628,0,0,0,.416,1.577,117.181,117.181,0,0,0,9.716,10.093,1.645,1.645,0,0,0,2.545-.328l7.553-10.987a5.069,5.069,0,0,0,2.886-.136,1.865,1.865,0,0,0,.1.167l6.086,9.324a1.634,1.634,0,0,0,2.217.581q2.395-1.791,4.7-3.7c2.223-1.831,4.921-3.8,6.5-6.254a1.915,1.915,0,0,0,.263-1.138,3.975,3.975,0,0,1-1.639-.968,3.975,3.975,0,0,0,1.639.968c-.059-1.466-1.228-3.334-1.688-4.42l-2.2-5.2m-28.062,18.45a108.821,108.821,0,0,1-7.608-7.889q1.2-2.9,2.4-5.8c2.933,1.331,5.972,2.438,8.948,3.66.8.33,1.6.721,2.394,1.1l-6.138,8.928m23.041-3.851q-1.464,1.211-2.97,2.371l-5.066-7.761c3.639-2.013,7.238-4.1,10.878-6.109l2.7,6.389a39.078,39.078,0,0,1-5.546,5.11" transform="translate(-61.364 -52.3)" fill="#373737"/>
          <path id="パス_1168" data-name="パス 1168" d="M193.512,44.85a22.61,22.61,0,0,1-6.384,5.585,1.589,1.589,0,0,0-.664,1.854A6.113,6.113,0,0,0,188.7,51.8a6.113,6.113,0,0,1-2.236.493,1.5,1.5,0,0,0,2.3.945,28.05,28.05,0,0,0,7.062-6.1c-.1-.606-.206-1.213-.32-1.82-.325.324-.325.972-.972,1.3.648-.324.648-.972.972-1.3.113.607.218,1.214.32,1.82.165-.212.327-.427.485-.648,1.21-1.7-1.6-3.324-2.8-1.636" transform="translate(-80.084 -18.965)" fill="#333"/>
          <path id="パス_1169" data-name="パス 1169" d="M173.2,56.96a1.657,1.657,0,0,0,2.375,1.067c.41-.216.813-.445,1.211-.684a16.081,16.081,0,0,0-2.829-.367,3.623,3.623,0,0,0-.757-.016" transform="translate(-74.421 -24.469)" fill="#333"/>
          <path id="パス_1170" data-name="パス 1170" d="M182.468,42.013a40.319,40.319,0,0,1-8.577,6.6,1.409,1.409,0,0,0-.739,1.732,3.665,3.665,0,0,1,.757.015,16.1,16.1,0,0,1,2.829.367A48.163,48.163,0,0,0,184.76,44.3c1.519-1.436-.776-3.724-2.292-2.292" transform="translate(-74.368 -17.857)" fill="#333"/>
          <path id="パス_1171" data-name="パス 1171" d="M159.716,58.888a1.594,1.594,0,0,0,1.034-.177c.356-.187.7-.386,1.056-.581a3.474,3.474,0,0,1-1.581-.432c-.163.4-.333.8-.509,1.19" transform="translate(-68.625 -24.792)" fill="#333"/>
          <path id="パス_1172" data-name="パス 1172" d="M170.281,38.424a50.116,50.116,0,0,1-12.231,9c-1.486.781-.717,2.743.6,2.976q.265-.592.51-1.19a2.688,2.688,0,0,1-.81-.724,2.688,2.688,0,0,0,.81.724c.054-.133.11-.266.162-.4-.052.133-.108.266-.162.4a3.471,3.471,0,0,0,1.582.432,53.067,53.067,0,0,0,11.83-8.927,1.621,1.621,0,0,0-2.291-2.292" transform="translate(-67.561 -16.305)" fill="#333"/>
          <path id="パス_1173" data-name="パス 1173" d="M38.14,26.137a9.445,9.445,0,0,0,3.628-.7c1.639-.836,1.14-5.669,1.8-7.458a9.656,9.656,0,0,1,2.843-4.089c7.7-6.432,19.48.987,16.2,10.7-1.717,5.084-5.337,9.76-5.422,15.287-.029,1.916.356,8.3,3.062,8.178a10.03,10.03,0,0,0,2.868-1.005c1.707-.942.279-3.569.125-5a8.952,8.952,0,0,1,.229-3.093c.732-3.1,2.443-5.939,3.644-8.862,2.445-5.949,3.376-11.853-.4-17.564C59.563,1.679,42,4.292,37.58,16.234c-.685,1.848-2.509,9.2.561,9.9" transform="translate(-15.646 -2.437)" fill="#c0ebf6"/>
          <path id="パス_1174" data-name="パス 1174" d="M33.264,26.246c1.711,1.093,3.611.522,5.439.17,1.874-.361,3.648-.762,4.573-2.657,1.323-2.711-.148-5.885,1.73-8.6a7.28,7.28,0,0,1,9.279-2.129c3.116,1.841,3.861,5.581,2.695,8.769-2.483,6.79-6.394,12.3-4.911,19.821.533,2.707,1.231,6.522,4.427,7.222,1.839.4,3.786-.65,5.473-1.248a1.637,1.637,0,0,0,.149-.07,1.734,1.734,0,0,0,.236-.092c2.578-1.315,2.8-3.525,2.185-6.085-.91-3.8.518-6.406,2.077-9.88,2.506-5.584,4.792-11.4,3.021-17.57C65.874.771,50.138-4.007,39.123,3.7a19.393,19.393,0,0,0-8.11,14.845c-.136,2.531-.168,6.154,2.251,7.7M35.237,13.8C39.662,1.856,57.22-.757,64.383,10.09c3.77,5.711,2.84,11.615.395,17.563-1.2,2.923-2.912,5.765-3.644,8.863a8.948,8.948,0,0,0-.229,3.093c.155,1.436,1.582,4.063-.125,5a10.007,10.007,0,0,1-2.868,1.005c-2.705.124-3.091-6.262-3.062-8.177.084-5.527,3.7-10.2,5.422-15.287,3.281-9.713-8.5-17.132-16.2-10.7a9.65,9.65,0,0,0-2.843,4.089c-.663,1.79-.165,6.623-1.8,7.458a9.434,9.434,0,0,1-3.628.7c-3.07-.7-1.246-8.055-.561-9.9" transform="translate(-13.304 -0.001)" fill="#2e2e2e"/>
          <path id="パス_1175" data-name="パス 1175" d="M84.023,102.008c1.92,5,9.133,2.015,7.647-2.957-2.01-4.872-9.539-1.973-7.647,2.957" transform="translate(-35.972 -41.482)" fill="#c0ebf6"/>
          <path id="パス_1176" data-name="パス 1176" d="M83.119,91.09a7.316,7.316,0,1,0,9.38,5.043,1.593,1.593,0,0,0-.111-.446,1.737,1.737,0,0,0-.193-.417,7.4,7.4,0,0,0-9.076-4.179m6.16,5.454c1.486,4.972-5.727,7.959-7.647,2.958-1.892-4.93,5.637-7.829,7.647-2.958" transform="translate(-33.581 -38.975)" fill="#2e2e2e"/>
        </g>
      </g>
    </g>
  </g>
</svg>
