<svg xmlns="http://www.w3.org/2000/svg" width="193.954" height="141.836" viewBox="0 0 193.954 141.836">
  <g id="グループ_502" data-name="グループ 502" transform="translate(0 -0.617)">
    <g id="グループ_506" data-name="グループ 506">
      <path id="パス_587" data-name="パス 587" d="M267.078,133.287a20.412,20.412,0,0,0-.177,6.11l.508.1c.668-1.07,1.313-2.156,1.9-3.274a1.657,1.657,0,0,1,.122-.186l-2.213-2.858a1.609,1.609,0,0,1-.137.108" transform="translate(-128.693 -64.252)" fill="#d0bfff"/>
      <path id="パス_588" data-name="パス 588" d="M64.2,123.438a27.155,27.155,0,0,0-4.735,5.154,8.79,8.79,0,0,1,4.035-.9c4.686.124,9.15,4.372,11.382,8.232,2.331,4.029,4.122,8.443,6.293,12.569q1.675,3.184,3.4,6.345l1.1-.163a1.437,1.437,0,0,1-.314-.589c-1.995-7.308-2.71-15.027-5.479-22.116-2.185-5.6-7.245-10.1-12.01-13.577a1.472,1.472,0,0,1-.594-.913c-1.161,1.21-2.224,2.517-3.291,3.82a1.291,1.291,0,0,1,.22,2.14" transform="translate(-28.688 -56.677)" fill="#d0bfff"/>
      <path id="パス_589" data-name="パス 589" d="M225.546,148.167c.287,2,.671,4,1.129,6,.026-.452.054-.9.085-1.348a129.3,129.3,0,0,1,1.754-13.3,24.031,24.031,0,0,1,.2-9.061c.008-.036.02-.067.029-.1a5.53,5.53,0,0,0-1.731,1.345,1.471,1.471,0,0,1,.795,2.448c-2.166,2.21-1.852,5.025-2.952,7.65a35.08,35.08,0,0,1-2.957,5.521c-3.285,5.015-6.781,9.991-10.37,14.8a1.242,1.242,0,0,1,.956.676l1.88,4.229a1.487,1.487,0,0,1-.521,1.985,1.46,1.46,0,0,1-1.985-.52l-1.88-4.23a2.01,2.01,0,0,1-.123-.389,1.27,1.27,0,0,1-1.124.116l-13.942-4.524c-.07.769-.235,1.546-.368,2.265a9.077,9.077,0,0,1-1.045,3.385,1.473,1.473,0,0,1-.617.522c.072.159.146.318.217.477.651,1.452,1.595,3.183,1.01,4.752.042.011.081.014.124.029,5.344,1.822,10.708,3.6,16.026,5.492,1.569.558,4.887,1.583,6.345.636.932-.605,1.783-2.39,2.44-3.27l5.623-7.537a1.524,1.524,0,0,1,1.744-.53c.246-.194.5-.383.732-.589a73.915,73.915,0,0,1-4.269-16.152c-.262-1.83,2.534-2.614,2.8-.772" transform="translate(-92.995 -62.889)" fill="#d0bfff"/>
      <path id="パス_590" data-name="パス 590" d="M291.266,187.559a9.367,9.367,0,0,1,2.213-2.74A14.333,14.333,0,0,0,296,182.662a1.123,1.123,0,0,1-.1-.533q1.02-10.5,2.04-20.991c.072-.745.1-1.519.2-2.267a1.88,1.88,0,0,0-.322-.448c-.681-.733-1.244-1.629-1.853-2.422-3.723-4.843-7.486-9.669-11.475-14.3-1.214-1.409.831-3.469,2.052-2.052,4.15,4.816,8.054,9.846,11.928,14.885a17.6,17.6,0,0,1,2.433,3.187,5.543,5.543,0,0,1,.01,2.668l-2,20.546,9,1.574a165.878,165.878,0,0,0,3.809-21.14,20.155,20.155,0,0,0,.14-5.1c-.428-2.593-2.108-5.278-3.278-7.593a74.1,74.1,0,0,0-13.045-18.722,1.479,1.479,0,0,1,.984-2.48c-.455-.451-.924-.886-1.329-1.361a1.574,1.574,0,0,1-.713.311,1.522,1.522,0,0,1-2.143.182c-2.45-2.062-5.629-2.443-8.13-.257-2.543,2.224-3.416,5.193-1.861,8.272.841,1.665-1.663,3.132-2.506,1.465-2.264-4.482-1.054-9.1,2.834-12.229a8.144,8.144,0,0,1,6.409-1.778l-3.992-3.746a1.529,1.529,0,0,1-.248-.305,110.545,110.545,0,0,0-8.171,7.579,12.773,12.773,0,0,0-3.04,3.908,18.433,18.433,0,0,0-.644,3.175c-.716,4.043-1.314,8.107-1.914,12.169q-1.418,9.574-2.725,19.165a1.226,1.226,0,0,1-.377.773,1.325,1.325,0,0,1,.865,1.286q.083,12.049.166,24.1c0,.038-.008.071-.01.108h12.347c-3.73-6.768-8.475-12.916-12.108-19.743-.878-1.65,1.628-3.114,2.505-1.465,3.8,7.142,8.82,13.539,12.619,20.681a1.513,1.513,0,0,1,.167.527h6.31a4.111,4.111,0,0,1,.435-2.727m-11.513-8.952c-1.757.649-2.509-2.157-.772-2.8a54.987,54.987,0,0,0,11.108-5.627c1.569-1.027,3.021,1.486,1.465,2.505a58.338,58.338,0,0,1-11.8,5.92" transform="translate(-129.282 -56.943)" fill="#d0bfff"/>
      <path id="パス_591" data-name="パス 591" d="M248.829,66.847a1.934,1.934,0,0,1-.1-.295c-.1.225-.184.45-.26.675a1.436,1.436,0,0,1,.818,1.639,9.619,9.619,0,0,0-.191,1.682c.143-.043.287-.082.433-.112.316-.064.637-.1.957-.145.257-.034.267-.036.444-.063a2.073,2.073,0,0,1,.231-.02,9.936,9.936,0,0,1-2.334-3.361" transform="translate(-119.875 -32.108)" fill="#fff"/>
      <path id="パス_592" data-name="パス 592" d="M93.354,171.4a30.1,30.1,0,0,1,.428-4.5l-20.819,3.084a1.391,1.391,0,0,1-2.318-.178c-2.867-5.231-5.7-10.5-8.28-15.878-1.939-4.046-3.8-7.537-7.766-9.972-4.354-2.671-8.713.53-10.681,4.533-.112.434-.217.872-.308,1.32a104.77,104.77,0,0,0-1.7,15.19,118.874,118.874,0,0,1-2.176,18.769c-1.367,6.409-3.27,12.686-5.172,18.953a1.657,1.657,0,0,1-.121.292H75.785a1.527,1.527,0,0,1,.024-.5l3.607-16.4a1.3,1.3,0,0,1,1.806-.943l.346-1.473c-2.695.565-5.405,1.06-8.133,1.52-3.05.513-6.678,1.245-9.682.1a9.545,9.545,0,0,1-3.369-2.646c-6.108-6.586-10.97-14.749-15.5-22.473a1.452,1.452,0,0,1,2.505-1.465c4.233,7.217,8.774,14.622,14.238,20.975a10.689,10.689,0,0,0,3.072,2.881c2.9,1.363,7.559-.121,10.545-.607a121.013,121.013,0,0,0,15.076-3.457,1.435,1.435,0,0,1,1.717,1.889,5.855,5.855,0,0,1,2.441-.821c-1.428-2.281-1.272-5.73-1.124-8.19M46.31,195.033a51.155,51.155,0,0,0,14.739-3.761c1.7-.718,3.179,1.782,1.465,2.506a55.864,55.864,0,0,1-16.2,4.157c-1.86.189-1.84-2.715,0-2.9m25.721-22.9-1.188,3.557c-.589,1.765-3.391,1-2.8-.772q.593-1.779,1.187-3.557c.589-1.766,3.392-1,2.8.771" transform="translate(-16.617 -68.975)" fill="#d0bfff"/>
      <path id="パス_593" data-name="パス 593" d="M110.169,80.324a11.235,11.235,0,0,1-1.04-1.553,7.023,7.023,0,0,1-.8-2.542,1.325,1.325,0,0,1-1.343,1.037,1.452,1.452,0,0,1,0-2.9,1.311,1.311,0,0,1,1.268.815c-.014-.718.03-1.437.069-2.162a1.376,1.376,0,0,1-.647-.184,6.159,6.159,0,0,0-2.224-.5,1.462,1.462,0,0,1-1.013-1.785,1.5,1.5,0,0,1,1.785-1.014c.318.05.945.115,1.416.211a4.841,4.841,0,0,1,.632.179c-.026-.187-.057-.374-.1-.563a1.533,1.533,0,0,1,1.934-1.757,6.605,6.605,0,0,0-.012-1.279,1.388,1.388,0,0,1-1.951-.1h-.906a1.185,1.185,0,0,1-1.373,1.354c-1.932-.245-3.506,1.589-5.118,2.961.033.327.107.665.144.992A1.47,1.47,0,0,1,101.778,74a7.044,7.044,0,0,1-2.8,1.737c.108.112.214.226.314.351,1.159,1.443-.883,3.508-2.052,2.052-.411-.513-.968-1.02-1.32-.948a1.308,1.308,0,0,0-.777.863c-.716,1.81.825,3.325,2.287,4.092,1.656.869.187,3.373-1.465,2.506A7.91,7.91,0,0,1,93.473,82.6c-.076.094-.154.187-.237.278a1.3,1.3,0,0,1,.09,1.555c-.811,1.352-1.841,2.788-3.458,3.194a16.438,16.438,0,0,1-3.425-.011,1.6,1.6,0,0,1-.336-.022,62.84,62.84,0,0,1,11.864,9.07l2.433-3.2a1.493,1.493,0,0,1,1.639-.667c1.791.582,3.772,1.347,5.6.372,1.346-.72,1.244-2.4,1.428-3.741.017-.124.031-.249.045-.374a12.69,12.69,0,0,1-1.191-.558,13.017,13.017,0,0,1-1.643-.963,1.482,1.482,0,0,1-.52-1.985,1.462,1.462,0,0,1,1.985-.521,12.635,12.635,0,0,0,1.5.887c.09.047.168.089.241.129a7.1,7.1,0,0,1,.462-1.51c.227-.506,1.761-2.242,1.694-2.622a16.957,16.957,0,0,0-1.466-1.582" transform="translate(-41.542 -31.953)" fill="#fff"/>
      <path id="パス_594" data-name="パス 594" d="M88.18,70.714a3.667,3.667,0,0,1,3.257-2.206,1.544,1.544,0,0,1,1.422-1.162,4.176,4.176,0,0,0,2.414-1.266,1.309,1.309,0,0,1,1.168-.409c-.037-.327-.111-.665-.144-.992A7.575,7.575,0,0,1,94.667,65.8a10.578,10.578,0,0,1-6.093.759c-1.845-.254-1.055-3.05.772-2.8,3.153.435,5.068-1.159,7.26-3.105a5.994,5.994,0,0,1,4.807-1.839,1.58,1.58,0,0,1,1.373,1.548h.906a1.3,1.3,0,0,1-.244-.6c-.306-2.041-.618-2.281-2.622-2.7l-6.6-1.4c-1.869-.395-11.416-3.643-11.234.447A1.283,1.283,0,0,1,81.7,57.507a1.428,1.428,0,0,1-.555,2.456c-5.091,1.256-4.8,8.292-3.359,12.187.917,2.472,3.33,4.179,3.891,6.735a1.6,1.6,0,0,1,.309-.043c.833-.033,1.68.208,2.506.132s1.436-1.153,1.871-1.878a1.453,1.453,0,0,1,2.415-.09q.123-.137.237-.278a5.517,5.517,0,0,1-.839-6.015" transform="translate(-37.088 -26.088)" fill="#d5d5d5"/>
      <path id="パス_595" data-name="パス 595" d="M117.253,137.706c1.349,4.156,2.71,8.339,3.9,12.559.338-4.535.1-9.1-1.729-13.08a1.515,1.515,0,0,1,.485-1.871,29.246,29.246,0,0,0-3.473-5.224,37.178,37.178,0,0,1,1.481,5.977,1.483,1.483,0,0,1-.666,1.638" transform="translate(-56.175 -62.762)" fill="#d0bfff"/>
      <path id="パス_596" data-name="パス 596" d="M155.263,188.231a1.156,1.156,0,0,0-.122.361,3.306,3.306,0,0,1-.052.332c.071,0,.14-.008.209-.013a1.663,1.663,0,0,1-.035-.68" transform="translate(-74.823 -90.812)" fill="#78c8e6"/>
      <path id="パス_597" data-name="パス 597" d="M172.111,195.379c.005-.817-.967-2.2-1.311-2.941-.807-1.751-1.622-3.5-2.4-5.261-1.69.636-3.746,1.275-5.307.638a3.819,3.819,0,0,1-2.046-2.274c-1.583.977-2.886,2.493-4.715,3.07a1.308,1.308,0,0,1-1.721-1c-.068.006-.137.01-.208.013-.075.376-.2.761-.267,1.129a27.945,27.945,0,0,0-.389,3.7c-.079,1.769-.373,4.845.886,6.374l.312-.312a1.577,1.577,0,0,1-.163-.342,1.467,1.467,0,0,1,1.013-1.785l2.232-.587a1.444,1.444,0,0,1,.5-.039,5.185,5.185,0,0,1,.41-.8,1.409,1.409,0,0,1,.376-.541,1.361,1.361,0,0,1,.486-.4c2.036-1.531,5.365-2.291,7.434-.584.08.066.154.139.23.211a1.509,1.509,0,0,1,2.727.26,4.6,4.6,0,0,0,.676,1.721q.158.558.806.265,1.047.29.445-.512" transform="translate(-74.131 -89.514)" fill="#fff"/>
      <path id="パス_598" data-name="パス 598" d="M93.321,120.563a58.735,58.735,0,0,0-10.66-8.086l-.913,2.247a41.307,41.307,0,0,1,9.206,9.267l2.367-3.428" transform="translate(-39.439 -54.264)" fill="#fff"/>
      <path id="パス_599" data-name="パス 599" d="M155.048,187.892a1.076,1.076,0,0,1,.244-.155c.011-.035.022-.069.035-.1a1.871,1.871,0,0,1-.279.258" transform="translate(-74.803 -90.524)" fill="#78c8e6"/>
      <path id="パス_600" data-name="パス 600" d="M118.791,170.463q.123-.8.251-1.612c-1.236-5.593-2.942-11.107-4.7-16.572,0,5.225-.183,10.45-.1,15.676a1.456,1.456,0,0,1-.114.61q.193.772.4,1.539a1.351,1.351,0,0,1-.091,1.006l4.363-.646" transform="translate(-55.057 -73.467)" fill="#d0bfff"/>
      <path id="パス_601" data-name="パス 601" d="M283.148,111.319a20.792,20.792,0,0,0-8.656,5.536c-1.08,1.159-2.059,2.388-3.069,3.6l2.265,2.925a27.807,27.807,0,0,1,3.685-4.164c2.221-2.206,4.551-4.313,6.934-6.348l-1.16-1.546" transform="translate(-130.948 -53.706)" fill="#fff"/>
      <path id="パス_602" data-name="パス 602" d="M171.7,204.579a4.378,4.378,0,0,0-3.467,1.043,1.027,1.027,0,0,0-.076,1.423,1.228,1.228,0,0,0,.131.148c1.632-.108,3.519-.1,4.714-1.179a1.967,1.967,0,0,0-1.3-1.434" transform="translate(-81.008 -98.669)" fill="#fff"/>
      <path id="パス_603" data-name="パス 603" d="M182.025,184.14a14.57,14.57,0,0,0,.289-2.051,1.282,1.282,0,0,1-.552-.83,4.269,4.269,0,0,0-3.265-2.832c-1.17-.141-5.166.883-5.552,2.063-.768,2.343,4.294.314,5.062.019a1.186,1.186,0,0,1,1.61.683,1.423,1.423,0,0,1,.228.36c.605,1.389,1.241,2.764,1.878,4.139.13-.523.216-1.085.3-1.551" transform="translate(-83.399 -86.076)" fill="#fff"/>
      <path id="パス_604" data-name="パス 604" d="M266.244,150.925l-.831-.164a117.2,117.2,0,0,0-1.531,11.835,38.465,38.465,0,0,0,.377,10.8c.116-.831.23-1.662.347-2.493.953-6.747,1.79-13.554,2.959-20.282a1.543,1.543,0,0,1-1.321.3" transform="translate(-127.214 -72.668)" fill="#d0bfff"/>
      <path id="パス_605" data-name="パス 605" d="M326.3,197.055c.014.17.057.149,0,0" transform="translate(-157.424 -95.069)" fill="#78c8e6"/>
      <path id="パス_606" data-name="パス 606" d="M318.187,254.38a1.793,1.793,0,0,0,.071,1.811c0-.624-.018-1.233-.071-1.811" transform="translate(-153.408 -122.726)" fill="#fff"/>
      <path id="パス_607" data-name="パス 607" d="M323.928,245.129a8.756,8.756,0,0,1-1.91,2.106c-.487.426-1.01.823-1.484,1.267a1.553,1.553,0,0,1,1.786,1.373c.193,2.013-.1,4.185.291,6.167.43,2.179.647,1.333,1.765.629.582-.366,1.322-.3,1.836-.583.423-.236.693-1.023,1.187-1.4.878-.661,1.564-.309,2.546-.5,2.121-.411,2.151-4.979,2.5-6.809a1.31,1.31,0,0,1,.359-.7l-8.879-1.554" transform="translate(-154.642 -118.262)" fill="#fff"/>
      <path id="パス_608" data-name="パス 608" d="M106.043,133.618a14.755,14.755,0,0,0,2.359,3.014l1.341-.671a25.62,25.62,0,0,0-1.419-5.213,1.5,1.5,0,0,1-1.128.4l-1.451,2.1a1.477,1.477,0,0,1,.3.373" transform="translate(-51.017 -63.079)" fill="#d0bfff"/>
      <path id="パス_609" data-name="パス 609" d="M267.821,91.734l-.137-.183c-.011-.015-.016-.032-.026-.047-1.047,0-2.095-.011-3.142-.026a1.515,1.515,0,0,1-1.4-1.066c-.627-1.579-.762-4.628-2.79-4.679a1.556,1.556,0,0,1-.393-.064,6.968,6.968,0,0,1-2.455,2.855c-1.583,1-3.038-1.508-1.465-2.506a4.5,4.5,0,0,0,1.721-2.932c.086-.448-.069-3.159-.966-1.888-.988,1.4-3.2.269-2.687-1.116a2.235,2.235,0,0,1-.175-.2,18.659,18.659,0,0,1-2.118-3.508,8.78,8.78,0,0,1-1.5-.623,1.45,1.45,0,0,1-1.025,1.712,6.089,6.089,0,0,0-2.2.491,1.592,1.592,0,0,1-.311.142c.011.312.016.623.01.934a1.345,1.345,0,0,1,.949-.357,1.452,1.452,0,0,1,0,2.9,1.315,1.315,0,0,1-1.174-.629,6.819,6.819,0,0,1-.636,1.67,10.9,10.9,0,0,1-1.031,1.54c-.216.276-1.411,1.223-1.451,1.566s1.449,2.063,1.679,2.578a6.873,6.873,0,0,1,.431,1.368c.281-.134.555-.283.826-.436q.509-.288,1-.6a1.451,1.451,0,1,1,1.465,2.506,9.059,9.059,0,0,1-2.924,1.464c.02.184.041.368.067.551.221,1.59.128,3.183,1.869,3.855s3.407,0,5.062-.536a1.413,1.413,0,0,1,1.412.373l2.431,3.009a1.591,1.591,0,0,1,.12.182,38.579,38.579,0,0,1,3.079-3.418,23.349,23.349,0,0,1,7.873-4.883" transform="translate(-117.442 -36.547)" fill="#fff"/>
      <path id="パス_610" data-name="パス 610" d="M106.368,145.251a1.408,1.408,0,0,1-.3-.225,28.531,28.531,0,0,1-2.423-2.666,53.571,53.571,0,0,1,2.715,8.763c.023-1.957.033-3.914.01-5.872" transform="translate(-50.003 -68.682)" fill="#fff"/>
      <path id="パス_611" data-name="パス 611" d="M253.784,59.976a7.614,7.614,0,0,0,1.867,2.733,1.484,1.484,0,0,1,2.745.186,16.912,16.912,0,0,0,2.766,5.5,3.438,3.438,0,0,1,4.33,2.871,6.4,6.4,0,0,1,.1,1.756c3.323.275,3.895,2.975,4.83,5.728q1.1.016,2.2.012a30.055,30.055,0,0,1,2.483-4.941c1.13-1.865,2.738-3.42,2.811-5.709a12.477,12.477,0,0,0-1.748-6.021c-4.291-8.026-15.442-8.786-21.875-2.81a1.428,1.428,0,0,1-.745.376,1.052,1.052,0,0,1,.237.323" transform="translate(-122.324 -26.701)" fill="#d5d5d5"/>
      <path id="パス_621" data-name="パス 621" d="M99.854,192.557a120.908,120.908,0,0,1-15.077,3.457c-2.985.486-7.643,1.97-10.544.607a10.682,10.682,0,0,1-3.072-2.881c-5.465-6.353-10.005-13.758-14.238-20.975a1.452,1.452,0,0,0-2.506,1.465c4.53,7.724,9.393,15.887,15.5,22.474a9.546,9.546,0,0,0,3.369,2.646c3,1.147,6.632.415,9.682-.1a146.975,146.975,0,0,0,17.656-3.9,1.345,1.345,0,0,0,.945-.909c-.687.378-1.362.823-2.11,1.2.747-.374,1.423-.819,2.11-1.2a1.435,1.435,0,0,0-1.717-1.889" transform="translate(-26.153 -83.013)" fill="#323232"/>
      <path id="パス_622" data-name="パス 622" d="M145.914,102.2c1.1-2.625.786-5.44,2.952-7.65a1.471,1.471,0,0,0-.795-2.449c-.253.269-.492.537-.731.776.239-.239.478-.507.731-.776a1.3,1.3,0,0,0-1.257.4c-2.288,2.335-2.422,4.94-3.232,7.883a23.286,23.286,0,0,1-2.914,5.532c-3.3,5.242-7.032,10.394-10.745,15.356-.023.032-.036.063-.056.094l-14.58-4.731a1.462,1.462,0,0,0-.49-.069,7.523,7.523,0,0,0-4.791-3.718,9.03,9.03,0,0,0-5.1.868c-1.321.53-3.106,1-3.824,2.341a11.364,11.364,0,0,0-2.944,1.627,20.2,20.2,0,0,1-1.867,1.493,7.754,7.754,0,0,1-.71.384c-.03.013-.064.026-.083.033a1.445,1.445,0,0,0-.618.379,1.452,1.452,0,0,0-1.679-1.962l-12.407,1.838q.062-.408.125-.818a1.362,1.362,0,0,0,.064-.422c1.118-7.421,2.023-15.44-1.152-22.355a1.25,1.25,0,0,0-2.02-.407c.493.939.944,1.888,1.351,2.837-.407-.949-.858-1.9-1.351-2.837a1.514,1.514,0,0,0-.485,1.871c1.829,3.982,2.067,8.545,1.729,13.08-1.193-4.221-2.554-8.4-3.9-12.559A1.482,1.482,0,0,0,75.8,96.6a37.123,37.123,0,0,0-1.481-5.977c-.462-.55-.942-1.092-1.463-1.613.521.521,1,1.063,1.463,1.613-.2-.544-.41-1.081-.655-1.6a1.518,1.518,0,0,0-.147-.247l1.188-1.561c2.845.809,6.012,1.1,8.288-1.234,1.781-1.829,1.406-5.025,1.739-7.41.232-1.653,1.178-2.383,2.091-3.684a2.487,2.487,0,0,0-.13-3.18c-1.4-1.783-3.074-2.959-3.2-5.456-.112-2.167.458-4.135,0-6.313a1.224,1.224,0,0,0-.864-.985c-.036.509-.095,1.018-.095,1.526,0-.508.059-1.017.095-1.526a1.533,1.533,0,0,0-1.934,1.757c.04.188.071.376.1.563a4.9,4.9,0,0,0-.632-.179c-.471-.1-1.1-.161-1.416-.211A1.5,1.5,0,0,0,76.955,61.9a1.461,1.461,0,0,0,1.013,1.785,6.159,6.159,0,0,1,2.224.5,1.377,1.377,0,0,0,.647.184c-.04.725-.084,1.443-.069,2.162a1.31,1.31,0,0,0-1.268-.815,1.452,1.452,0,0,0,0,2.9,1.325,1.325,0,0,0,1.343-1.037,7.023,7.023,0,0,0,.8,2.542,11.235,11.235,0,0,0,1.04,1.553A17.037,17.037,0,0,1,84.15,73.25c.067.38-1.468,2.116-1.694,2.622a7.1,7.1,0,0,0-.462,1.51c-.073-.04-.151-.082-.241-.129a12.669,12.669,0,0,1-1.5-.887,1.463,1.463,0,0,0-1.985.521,1.482,1.482,0,0,0,.521,1.985,12.974,12.974,0,0,0,1.643.963,12.751,12.751,0,0,0,1.191.558c-.014.125-.028.25-.045.374-.184,1.346-.082,3.021-1.428,3.741-1.824.975-3.8.21-5.6-.372a1.493,1.493,0,0,0-1.639.667L70.485,88a62.852,62.852,0,0,0-11.863-9.07,1.59,1.59,0,0,0,.335.022,16.407,16.407,0,0,0,3.426.011c1.617-.406,2.647-1.842,3.458-3.194a1.3,1.3,0,0,0-.09-1.555,5.663,5.663,0,0,1-1.6,1.253,5.663,5.663,0,0,0,1.6-1.253,1.453,1.453,0,0,0-2.415.09c-.435.725-1.044,1.8-1.871,1.878s-1.673-.166-2.507-.132a1.612,1.612,0,0,0-.309.043c-.561-2.556-2.974-4.263-3.891-6.735-1.444-3.9-1.732-10.931,3.359-12.187a1.428,1.428,0,0,0,.555-2.456,1.283,1.283,0,0,0,1.286-1.391c-.182-4.09,9.365-.842,11.233-.447l6.6,1.4c2,.424,2.316.664,2.622,2.7a1.3,1.3,0,0,0,.244.6h0a1.389,1.389,0,0,0,1.952.1,3.49,3.49,0,0,0-.567-1.547,3.49,3.49,0,0,1,.567,1.547,1.51,1.51,0,0,0,.6-1.464c-.289-1.923-.826-3.6-2.763-4.332a39.537,39.537,0,0,0-5.659-1.2l-6.13-1.3c-2.547-.539-5.808-1.777-8.35-.605-1.7.783-3.344,2.592-3.256,4.548a1.393,1.393,0,0,0,.474,1.022,1.51,1.51,0,0,0-.185.027c-4.575,1.128-6.54,5.771-6.324,10.14a16.848,16.848,0,0,0,1.5,6.931c.991,1.849,3.4,3.677,3.342,5.914-.012.026-.028.047-.039.075l-1.95,4.8A1.547,1.547,0,0,0,52.639,84.1c.129-.135.256-.273.388-.406-.132.132-.258.271-.388.406a1.474,1.474,0,0,0,.594.913c4.765,3.481,9.825,7.982,12.01,13.577,2.768,7.09,3.484,14.808,5.478,22.116a1.437,1.437,0,0,0,.314.589l-1.1.163q-1.719-3.16-3.4-6.345c-2.171-4.126-3.963-8.54-6.293-12.569-2.233-3.86-6.7-8.108-11.382-8.232a8.789,8.789,0,0,0-4.035.9,27.12,27.12,0,0,1,4.735-5.154,1.291,1.291,0,0,0-.22-2.14c-.992,1.21-1.992,2.412-3.092,3.513,1.1-1.1,2.1-2.3,3.092-3.513a1.473,1.473,0,0,0-1.832.087,26.569,26.569,0,0,0-8.746,13.172c-.077.276-.14.559-.211.838a1.581,1.581,0,0,0-.06.238,88.8,88.8,0,0,0-1.818,13.5c-.583,6.8-.676,13.5-2.026,20.218-1.38,6.873-3.416,13.59-5.45,20.292-.511,1.684,1.933,2.46,2.677,1.063h0a1.634,1.634,0,0,0,.121-.291c1.9-6.266,3.805-12.543,5.172-18.953a118.929,118.929,0,0,0,2.176-18.768,104.69,104.69,0,0,1,1.7-15.19c.091-.448.2-.887.308-1.32,1.968-4,6.327-7.2,10.682-4.533,3.969,2.435,5.827,5.925,7.766,9.972,2.578,5.38,5.413,10.647,8.28,15.878a1.391,1.391,0,0,0,2.318.178l20.819-3.085a30.111,30.111,0,0,0-.428,4.5c-.149,2.459-.3,5.909,1.124,8.19a4.648,4.648,0,0,1,1.252.084,4.648,4.648,0,0,0-1.252-.084,4.955,4.955,0,0,0,.807,1c1.361,1.277,3.418-.771,2.052-2.052a2.54,2.54,0,0,1-.223-.243l-.9.9.9-.9c-1.259-1.529-.965-4.606-.886-6.374a27.857,27.857,0,0,1,.389-3.7c.066-.368.192-.753.267-1.129-.2.008-.42.009-.67.009.25,0,.468,0,.67-.009a3.133,3.133,0,0,0,.051-.331,1.17,1.17,0,0,1,.122-.361,1.672,1.672,0,0,0,.035.68,3.867,3.867,0,0,0,1.54-.462,3.867,3.867,0,0,1-1.54.462,1.308,1.308,0,0,0,1.721,1c1.83-.577,3.133-2.092,4.715-3.07a3.821,3.821,0,0,0,2.046,2.274c1.561.637,3.617,0,5.307-.639.782,1.763,1.6,3.511,2.4,5.262.344.745,1.316,2.124,1.311,2.941q.6.8-.445.512-.647.293-.806-.266a4.582,4.582,0,0,1-.676-1.721,1.509,1.509,0,0,0-2.727-.26c-.076-.072-.15-.145-.23-.211-2.068-1.706-5.4-.947-7.434.585a1.355,1.355,0,0,0-.486.4,1.4,1.4,0,0,0-.376.541,5.192,5.192,0,0,0-.41.8,1.454,1.454,0,0,0-.5.038l-2.232.588a1.467,1.467,0,0,0-1.014,1.785,1.615,1.615,0,0,0,.164.342l.239-.239-.239.239a1.452,1.452,0,0,0,1.621.671l1.874-.493a4.2,4.2,0,0,0,1.344,1.792c.927.741,2.147.391,3.261.3a9.478,9.478,0,0,0,3.957-.979,4.627,4.627,0,0,0,1.948-1.866,4.04,4.04,0,0,0,1.569,1.2,3.958,3.958,0,0,0,2.982.009,1.407,1.407,0,0,0,.977,1.168l9.191,3.133c3.065,1.045,6.3,2.527,9.511,3.063,2.083.348,4.936.638,6.606-.956a23.562,23.562,0,0,0,2.263-3.022l6.14-8.231a1.252,1.252,0,0,0-.762-2,3.037,3.037,0,0,0-1.458,2.585,3.037,3.037,0,0,1,1.458-2.585,1.524,1.524,0,0,0-1.744.531l-5.622,7.537c-.657.88-1.508,2.665-2.44,3.27-1.458.947-4.776-.078-6.345-.636-5.318-1.892-10.682-3.669-16.026-5.492-.043-.014-.082-.018-.124-.029.585-1.569-.359-3.3-1.01-4.752-.071-.159-.145-.318-.217-.478a1.464,1.464,0,0,0,.617-.522,9.083,9.083,0,0,0,1.045-3.385c.133-.719.3-1.5.368-2.265l13.942,4.524a1.271,1.271,0,0,0,1.124-.116,2.019,2.019,0,0,0,.124.389q.939,2.115,1.88,4.23a1.461,1.461,0,0,0,1.985.521,1.488,1.488,0,0,0,.521-1.985l-1.88-4.23a1.242,1.242,0,0,0-.956-.676c3.589-4.806,7.084-9.783,10.37-14.8a35.119,35.119,0,0,0,2.956-5.521M58.347,54.19l-1.935,1.935,1.935-1.935M56.366,83.757l.913-2.247A58.758,58.758,0,0,1,67.94,89.6l-2.367,3.428a41.307,41.307,0,0,0-9.206-9.267m14.046,21.981A53.588,53.588,0,0,0,67.7,96.976a28.53,28.53,0,0,0,2.423,2.666,1.391,1.391,0,0,0,.3.225c.023,1.957.013,3.915-.01,5.872m1.029-8.889a14.755,14.755,0,0,1-2.359-3.014,1.484,1.484,0,0,0-.3-.373l1.451-2.1a1.494,1.494,0,0,0,1.128-.4,25.611,25.611,0,0,1,1.419,5.213l-1.341.67m6.35,23.444-4.363.646a1.351,1.351,0,0,0,.091-1.006q-.209-.765-.4-1.539a1.47,1.47,0,0,0,.114-.61c-.079-5.226.1-10.451.1-15.676,1.763,5.465,3.468,10.979,4.7,16.572q-.127.816-.251,1.612m16.755.217a1.086,1.086,0,0,0-.244.155,1.869,1.869,0,0,0,.279-.258c-.013.034-.024.068-.035.1m6.794,11.312a1.276,1.276,0,0,1-.131-.148,1.027,1.027,0,0,1,.076-1.423,4.378,4.378,0,0,1,3.466-1.043,1.967,1.967,0,0,1,1.3,1.434c-1.2,1.083-3.082,1.071-4.714,1.179m11.342-10.46c-.086.465-.171,1.028-.3,1.551-.637-1.375-1.273-2.75-1.878-4.139a1.423,1.423,0,0,0-.228-.36,1.186,1.186,0,0,0-1.61-.683c-.769.3-5.83,2.324-5.062-.019.386-1.18,4.382-2.2,5.552-2.063a4.269,4.269,0,0,1,3.265,2.832,1.282,1.282,0,0,0,.552.83,14.572,14.572,0,0,1-.289,2.051" transform="translate(-14.057 -23.298)" fill="#323232"/>
      <path id="パス_623" data-name="パス 623" d="M102.088,201.232l1.188-3.557c.593-1.775-2.209-2.537-2.8-.771L99.29,200.46c-.593,1.776,2.209,2.537,2.8.772" transform="translate(-47.863 -94.512)" fill="#323232"/>
      <path id="パス_624" data-name="パス 624" d="M117.944,225.353l-3.607,16.4a1.527,1.527,0,0,0-.024.5h0c.153,1.447,2.459,1.923,2.822.275q1.8-8.2,3.607-16.4c.4-1.82-2.4-2.6-2.8-.771" transform="translate(-55.146 -108.219)" fill="#323232"/>
      <path id="パス_625" data-name="パス 625" d="M19.883,41.044c1.519,1.092,2.969-1.424,1.465-2.506L2.1,24.7C.58,23.612-.87,26.128.635,27.209L19.883,41.044" transform="translate(0 -11.789)" fill="#323232"/>
      <path id="パス_626" data-name="パス 626" d="M17.789,63.046,2.55,58.434c-1.791-.542-2.557,2.258-.771,2.8l15.238,4.612c1.792.542,2.557-2.258.772-2.8" transform="translate(-0.368 -28.158)" fill="#323232"/>
      <path id="パス_627" data-name="パス 627" d="M38.771,33.912c1.1,1.481,3.623.036,2.506-1.465l-7.018-9.424c-1.1-1.481-3.623-.036-2.505,1.465l7.017,9.424" transform="translate(-15.185 -10.809)" fill="#323232"/>
      <path id="パス_628" data-name="パス 628" d="M55.461,17.655c.383,1.827,3.181,1.054,2.8-.772L55.189,2.235c-.382-1.827-3.181-1.054-2.8.771q1.536,7.324,3.07,14.648" transform="translate(-25.259 -0.575)" fill="#323232"/>
      <path id="パス_629" data-name="パス 629" d="M351.129,35.655,330.768,50.289c-1.5,1.081-.056,3.6,1.465,2.506l20.361-14.635c1.5-1.08.056-3.6-1.465-2.505" transform="translate(-159.273 -17.072)" fill="#323232"/>
      <path id="パス_630" data-name="パス 630" d="M354.518,71.341,338.4,76.219c-1.783.54-1.023,3.342.771,2.8l16.12-4.878c1.782-.54,1.023-3.341-.772-2.8" transform="translate(-162.771 -34.385)" fill="#323232"/>
      <path id="パス_631" data-name="パス 631" d="M323.973,42.854l9.049-12.549c1.094-1.517-1.422-2.968-2.505-1.465l-9.05,12.549c-1.094,1.517,1.422,2.967,2.506,1.465" transform="translate(-154.961 -13.609)" fill="#323232"/>
      <path id="パス_632" data-name="パス 632" d="M307.121,23.859l5.945-13.512c.745-1.693-1.754-3.172-2.505-1.464q-2.973,6.756-5.945,13.512c-.745,1.693,1.754,3.172,2.505,1.464" transform="translate(-146.895 -3.92)" fill="#323232"/>
      <path id="パス_633" data-name="パス 633" d="M329.665,164.065c-.624-2.648-2.16-5.319-3.369-7.736A76.8,76.8,0,0,0,312.638,136.7a1.324,1.324,0,0,0-1.067-.427,5.688,5.688,0,0,1,1.836,2.923,5.688,5.688,0,0,0-1.836-2.923,1.479,1.479,0,0,0-.984,2.48,74.1,74.1,0,0,1,13.045,18.722c1.17,2.315,2.85,5,3.278,7.593a20.156,20.156,0,0,1-.14,5.1,165.887,165.887,0,0,1-3.809,21.139l-9-1.574,2-20.545a5.543,5.543,0,0,0-.01-2.668,17.589,17.589,0,0,0-2.433-3.187c-3.874-5.038-7.778-10.068-11.928-14.884-1.221-1.418-3.266.643-2.052,2.052,3.988,4.629,7.751,9.455,11.475,14.3.61.793,1.172,1.69,1.853,2.423a1.87,1.87,0,0,1,.322.447c-.1.749-.128,1.523-.2,2.268q-1.019,10.5-2.04,20.99a1.12,1.12,0,0,0,.1.533,14.291,14.291,0,0,1-2.516,2.157,9.382,9.382,0,0,0-2.213,2.74,4.112,4.112,0,0,0-.435,2.728h0A6.3,6.3,0,0,0,308.7,202.7a1.414,1.414,0,0,0,.513.23,9.56,9.56,0,0,0,.648,3.168,3.308,3.308,0,0,0,2.373,2.059c1.332.24,1.955-.571,2.971-1.186,1.254-.758,2.154-.673,3.229-1.717.816-.792-.031-.517,1.2-.674.68-.086,1.133.132,1.813-.166,2.885-1.268,3-6.228,3.488-8.773a1.437,1.437,0,0,0-.393-1.322,1.307,1.307,0,0,0,.919-.957,166.194,166.194,0,0,0,4.287-24.055,17.136,17.136,0,0,0-.085-5.238M309.112,197.4c.053.578.069,1.187.07,1.811a1.793,1.793,0,0,1-.07-1.811m4.1-29.669c.058.149.014.17,0,0m8.928,27.137c-.35,1.83-.381,6.4-2.5,6.809-.982.19-1.667-.162-2.545.5-.494.372-.764,1.159-1.187,1.4-.514.287-1.255.216-1.836.582-1.118.7-1.335,1.551-1.765-.629-.391-1.981-.1-4.153-.291-6.166a1.554,1.554,0,0,0-1.787-1.374c.475-.444,1-.84,1.484-1.266a8.765,8.765,0,0,0,1.91-2.106l8.879,1.554a1.306,1.306,0,0,0-.359.7" transform="translate(-144.332 -65.744)" fill="#323232"/>
      <path id="パス_634" data-name="パス 634" d="M112.585,64.75h.128A1.58,1.58,0,0,0,111.34,63.2a6,6,0,0,0-4.808,1.839c-2.192,1.947-4.106,3.541-7.26,3.106-1.826-.252-2.616,2.544-.771,2.8a10.58,10.58,0,0,0,6.092-.759,7.562,7.562,0,0,0,1.629-1.121,1.345,1.345,0,0,1,.559-1.413,1.345,1.345,0,0,0-.559,1.413c1.611-1.373,3.186-3.206,5.118-2.961a1.185,1.185,0,0,0,1.373-1.354Z" transform="translate(-47.014 -30.473)" fill="#323232"/>
      <path id="パス_635" data-name="パス 635" d="M106.465,76.468a1.37,1.37,0,0,1-.552,1.465,1.37,1.37,0,0,0,.552-1.465,1.31,1.31,0,0,0-1.168.409,4.171,4.171,0,0,1-2.414,1.266,1.543,1.543,0,0,0-1.422,1.162A3.667,3.667,0,0,0,98.2,81.511a5.518,5.518,0,0,0,.839,6.015,5.073,5.073,0,0,0,.582-.888,5.073,5.073,0,0,1-.582.888,7.936,7.936,0,0,0,2.494,2.056c1.653.866,3.121-1.638,1.465-2.507-1.461-.767-3-2.281-2.287-4.091a1.31,1.31,0,0,1,.777-.863c.352-.072.909.435,1.32.948,1.169,1.456,3.21-.609,2.052-2.053-.1-.125-.206-.239-.314-.351a7.044,7.044,0,0,0,2.8-1.737,1.47,1.47,0,0,0-.884-2.461" transform="translate(-47.114 -36.884)" fill="#323232"/>
      <path id="パス_636" data-name="パス 636" d="M280.606,91.044l-8.216-7.709a1.378,1.378,0,0,0-1.106-.395,1.542,1.542,0,0,0-.3-.444c-.01-.016-.016-.034-.027-.05l-3.615-4.819a20.948,20.948,0,0,1,1.274-2.915c1.124-2.195,2.977-4.132,3.864-6.411,1.631-4.2-.584-9.294-3.048-12.7-5.757-7.965-18.3-7.3-24.99-1.079a1.252,1.252,0,0,0-.39,1.336,13.394,13.394,0,0,0,1.338-1.451,13.394,13.394,0,0,1-1.338,1.451,1.594,1.594,0,0,0,.482.724,1.443,1.443,0,0,0-.534.171,1.324,1.324,0,0,0-.517.525c.289.345.613.673.939,1-.326-.327-.65-.655-.939-1a1.652,1.652,0,0,0,0,1.461,9.941,9.941,0,0,0,2.334,3.361,2.18,2.18,0,0,0-.231.02c-.176.028-.187.029-.444.064-.319.042-.64.081-.956.145-.146.03-.29.068-.434.112a9.624,9.624,0,0,1,.192-1.682,1.534,1.534,0,0,0-2.077-1.7,3.3,3.3,0,0,0,.142,1.641,3.3,3.3,0,0,1-.142-1.641,1.233,1.233,0,0,0-.721.932c-.427,2.022.005,3.822,0,5.843,0,2.584-1.546,3.842-3.058,5.651-2.2,2.63,1.463,4.362,1.824,6.949.317,2.27-.016,5.263,1.515,7.082,2.181,2.59,5.517,2.309,8.444,1.48l1.912,2.366a1.427,1.427,0,0,0,.344.306q-.385.441-.785.869a1.2,1.2,0,0,0-1.07.931,3.391,3.391,0,0,1,1.408-.3,3.391,3.391,0,0,0-1.408.3c-.009.034-.021.066-.028.1a24.017,24.017,0,0,0-.2,9.061,129.306,129.306,0,0,0-1.755,13.3c-.031.445-.06.9-.085,1.348-.458-1.994-.842-4-1.129-6-.264-1.841-3.06-1.058-2.8.772a73.876,73.876,0,0,0,4.269,16.152c.078-.069.155-.139.228-.212-.073.073-.15.143-.228.212.515,1.327,1.057,2.641,1.643,3.928a1.249,1.249,0,0,0,.613.65,1.612,1.612,0,0,0,.965,1.206,1.3,1.3,0,0,0-.592,1.154q.082,12.049.166,24.1a1.451,1.451,0,0,0,2.892.107h0c0-.036.01-.069.01-.107q-.083-12.049-.166-24.1a1.326,1.326,0,0,0-.865-1.286,1.226,1.226,0,0,0,.378-.773q1.311-9.59,2.724-19.165c.6-4.061,1.2-8.126,1.914-12.168a18.488,18.488,0,0,1,.644-3.176,12.772,12.772,0,0,1,3.04-3.907,110.216,110.216,0,0,1,8.171-7.579,1.526,1.526,0,0,0,.248.305l3.992,3.746a8.145,8.145,0,0,0-6.41,1.779c-3.888,3.132-5.1,7.747-2.834,12.229.842,1.668,3.346.2,2.505-1.465-1.556-3.08-.683-6.049,1.861-8.272,2.5-2.186,5.681-1.806,8.13.257a1.523,1.523,0,0,0,2.144-.182,1.57,1.57,0,0,0,.712-.312,5.164,5.164,0,0,1-.7-1.036,5.164,5.164,0,0,0,.7,1.036,1.343,1.343,0,0,0,.167-2.122m-34.853-34.1a1.432,1.432,0,0,0,.745-.376c6.433-5.976,17.584-5.216,21.875,2.81a12.482,12.482,0,0,1,1.748,6.02c-.073,2.289-1.681,3.844-2.812,5.709a30.073,30.073,0,0,0-2.482,4.941c-.734,0-1.469,0-2.2-.012-.935-2.753-1.507-5.452-4.83-5.728a6.4,6.4,0,0,0-.1-1.756,3.438,3.438,0,0,0-4.33-2.871,16.912,16.912,0,0,1-2.766-5.5A1.484,1.484,0,0,0,247.857,60a7.607,7.607,0,0,1-1.867-2.732,1.046,1.046,0,0,0-.237-.323m5.653,27.346a1.413,1.413,0,0,0-1.412-.373c-1.655.538-3.331,1.2-5.062.536s-1.648-2.265-1.869-3.855c-.025-.183-.047-.366-.067-.551a9.068,9.068,0,0,0,2.925-1.464,1.451,1.451,0,1,0-1.465-2.505q-.493.315-1,.6c-.271.154-.546.3-.827.436a6.843,6.843,0,0,0-.431-1.368c-.23-.514-1.719-2.243-1.679-2.578s1.235-1.289,1.451-1.565A10.945,10.945,0,0,0,243,70.068a6.836,6.836,0,0,0,.636-1.671,1.314,1.314,0,0,0,1.174.629,1.452,1.452,0,0,0,0-2.9,1.346,1.346,0,0,0-.949.357c.006-.311,0-.623-.01-.934a1.593,1.593,0,0,0,.311-.142,6.089,6.089,0,0,1,2.2-.491,1.451,1.451,0,0,0,1.025-1.712,8.774,8.774,0,0,0,1.5.623A18.672,18.672,0,0,0,251,67.333a2.147,2.147,0,0,0,.175.2c-.515,1.385,1.7,2.515,2.686,1.116.9-1.271,1.053,1.44.967,1.888a4.506,4.506,0,0,1-1.721,2.932c-1.573,1-.119,3.511,1.465,2.506a6.969,6.969,0,0,0,2.455-2.855,1.549,1.549,0,0,0,.393.064c2.028.051,2.162,3.1,2.789,4.679a1.515,1.515,0,0,0,1.4,1.065c1.046.016,2.094.027,3.142.026.01.015.014.032.026.047l.137.183a23.355,23.355,0,0,0-7.874,4.882,38.58,38.58,0,0,0-3.079,3.419,1.574,1.574,0,0,0-.12-.182l-2.431-3.009m.516,37.94c-.117.831-.231,1.662-.347,2.493a38.465,38.465,0,0,1-.377-10.8,117.176,117.176,0,0,1,1.531-11.835l.831.164a1.546,1.546,0,0,0,1.321-.3c-1.169,6.728-2.007,13.535-2.959,20.282m3.221-26.266c-.584,1.117-1.229,2.2-1.9,3.274l-.509-.1a20.413,20.413,0,0,1,.176-6.11,1.592,1.592,0,0,0,.137-.107l2.213,2.858a1.568,1.568,0,0,0-.122.186m5.813-6.464a27.836,27.836,0,0,0-3.685,4.164L255,90.743c1.01-1.209,1.988-2.438,3.069-3.6a20.787,20.787,0,0,1,8.656-5.536l1.16,1.546c-2.383,2.034-4.713,4.141-6.934,6.348" transform="translate(-114.53 -23.997)" fill="#323232"/>
      <path id="パス_637" data-name="パス 637" d="M289.1,227a58.337,58.337,0,0,0,11.8-5.92c1.556-1.019.1-3.533-1.465-2.505a54.988,54.988,0,0,1-11.108,5.627c-1.737.642-.985,3.447.772,2.8" transform="translate(-138.629 -105.334)" fill="#323232"/>
      <path id="パス_638" data-name="パス 638" d="M70.817,236.179a51.171,51.171,0,0,1-14.739,3.761c-1.84.187-1.86,3.091,0,2.9a55.864,55.864,0,0,0,16.2-4.157c1.715-.724.237-3.224-1.465-2.506" transform="translate(-26.385 -113.883)" fill="#323232"/>
      <path id="パス_639" data-name="パス 639" d="M293.8,257.644c.172.312.344.623.512.938.782,1.47,2.851.466,2.672-.938Z" transform="translate(-141.743 -124.3)" fill="#323232"/>
      <path id="パス_640" data-name="パス 640" d="M285.357,236.674c-3.8-7.142-8.82-13.539-12.619-20.681-.877-1.649-3.383-.185-2.506,1.465,3.633,6.828,8.377,12.976,12.108,19.744h3.183a1.5,1.5,0,0,0-.166-.527" transform="translate(-130.285 -103.856)" fill="#323232"/>
    </g>
  </g>
</svg>
