<svg xmlns="http://www.w3.org/2000/svg" width="141.876" height="156.875" viewBox="0 0 141.876 156.875">
  <g id="グループ_500" data-name="グループ 500" transform="translate(-941.216 -1485.596)">
    <g id="グループ_499" data-name="グループ 499" transform="translate(941.216 1485.596)">
      <g id="グループ_505" data-name="グループ 505" transform="translate(0 0)">
        <path id="パス_529" data-name="パス 529" d="M309.5,42.919a1.234,1.234,0,0,1,.113-.346c1.513-2.979,2.129-6.256,4.574-8.684,1.189-1.18,2.408-2.024,2.565-3.809.075-.855.064-1.713.093-2.572a2.708,2.708,0,0,1-2.439-1.291,6.982,6.982,0,0,1-1.636.72,7.037,7.037,0,0,1-.541,3.012c-.578,1.375-2.851.767-2.265-.624,1.367-3.247-.685-6.165-2.264-8.893a13.344,13.344,0,0,1-2.146-6.955,15.517,15.517,0,0,0-.089-4.217c-.175-.639-1.56-3.156-2.181-.544a6.939,6.939,0,0,0,.285,1.565,19.563,19.563,0,0,1-1.024,8.345c-.889,2.829-1.834,5.255-1.244,8.276.442,2.261.878,3.9-.19,6.078-.942,1.917-2,3.784-3.009,5.667,2.6,3.676,7.071,4.894,11.4,4.272" transform="translate(-180.219 -5.107)" fill="#fff"/>
        <path id="パス_530" data-name="パス 530" d="M88.984,327.758a16.246,16.246,0,0,1,2.148,3.959,10.832,10.832,0,0,0-.766-4.8,12.175,12.175,0,0,1-1.382.84" transform="translate(-53.797 -198.183)" fill="#fff"/>
        <path id="パス_531" data-name="パス 531" d="M326.806,29.377c.421.733.874,1.449,1.291,2.176.058.1.114.2.17.305A6.932,6.932,0,0,0,330.4,28.67a7.11,7.11,0,0,0,.588-1.837,1.492,1.492,0,0,0-1.3-1.759,9.7,9.7,0,0,1-2.888,4.3" transform="translate(-197.575 -15.699)" fill="#fff"/>
        <path id="パス_532" data-name="パス 532" d="M344.074,44.534c.093.176.453.253.473.3a2.268,2.268,0,0,0,.54-.315,6.469,6.469,0,0,0,1.252-1.374,6.108,6.108,0,0,0,1.015-1.842c.138-.478.173-1.38-.687-1.257a1.325,1.325,0,0,1-.166.008,12.433,12.433,0,0,1-2.545,4.3,1.265,1.265,0,0,1,.119.18" transform="translate(-207.943 -24.741)" fill="#fff"/>
        <path id="パス_533" data-name="パス 533" d="M333.139,38.759c.154.383.291.771.408,1.162a5.821,5.821,0,0,0,2.895-2.437c.246-.372,2.829-5.212.555-4.492a1.317,1.317,0,0,1-.164.035c-.713,2.253-1.714,4.406-3.693,5.732" transform="translate(-201.404 -20.441)" fill="#fff"/>
        <path id="パス_534" data-name="パス 534" d="M323.42,20.368l.006.014a8.074,8.074,0,0,0,1.97-3.75,5.035,5.035,0,0,0,.24-2.455c-.236-.495-1.889-.454-2.342-.036a1.248,1.248,0,0,1-.3.2c.013.258.019.513.017.761-.017,1.811-.227,3.514.41,5.263" transform="translate(-195.252 -8.894)" fill="#fff"/>
        <path id="パス_535" data-name="パス 535" d="M78.448,197.677a15.572,15.572,0,0,0-12.319-1.961,16.058,16.058,0,0,0-9.181,6.562c-1.98,2.679-4.295,5.182-7.626,6.109a7.144,7.144,0,0,1-1.03.2,13.862,13.862,0,0,0,14.257-1.544c4.912-4.167,9.621-9.127,16.662-7.038a1.184,1.184,0,0,1,.6,1.847c2.011.313,4.121.189,5.615-1.085h0c-.28-.123-.547-.258-.806-.4-.082-.045-.159-.094-.238-.141-.174-.1-.346-.2-.51-.311-.087-.058-.17-.119-.254-.178-.149-.106-.3-.213-.437-.325-.081-.064-.159-.131-.237-.2q-.206-.175-.4-.359c-.07-.067-.138-.134-.206-.2-.132-.134-.257-.272-.379-.413-.054-.063-.11-.125-.163-.189-.134-.164-.26-.333-.381-.5-.032-.046-.068-.09-.1-.137a9.2,9.2,0,0,1-.8-1.446c-.19-.02-.382-.03-.577-.038l0,0a1.125,1.125,0,0,1,.161.291c.338.93-.628,2.139-1.649,1.452" transform="translate(-29.196 -118.566)" fill="#d5d5d5"/>
        <path id="パス_536" data-name="パス 536" d="M149.769,240.369c.091-.032.183-.062.274-.1a13.93,13.93,0,0,0,2.519-1.218c1.291-.8,2.469,1.235,1.186,2.028-2.606,1.61-5.136,2.076-8.052,2.815a1.147,1.147,0,0,1-.656-.019c.283,2.52.395,5.053.6,7.58a39.085,39.085,0,0,0,6.3-8.281,1.175,1.175,0,0,1,2.028,1.186A41.152,41.152,0,0,1,145.53,254.8a1.192,1.192,0,0,1-2-.83c-.227-1.958-.345-3.925-.479-5.89-1.971,9.632-3.739,19.341-7.281,28.551-.538,1.4-2.808.788-2.265-.624,3.591-9.339,5.358-19.192,7.363-28.956a1.141,1.141,0,0,1,2.087-.294c-.076-1.023-.164-2.045-.282-3.065a1.207,1.207,0,0,1,0-.223c-3.475,1.708-6.01,4.608-8.768,7.284-1.086,1.053-2.747-.607-1.661-1.661,2.7-2.621,5.229-5.462,8.528-7.281-4.51-3.135-9.15-6.654-12.134-11.3a.989.989,0,0,1-.459-.742,20.713,20.713,0,0,1-1.091-2.107,1.208,1.208,0,0,1,.117-1.211,1.075,1.075,0,0,0-.722,0,1.167,1.167,0,0,1-.246,1.286l-2.22,2.061c-.026.025-.057.043-.085.066.007.289.017.579.025.868a1.075,1.075,0,0,1,.365.619,69.042,69.042,0,0,0,6.222,15.9c.687,1.345-1.341,2.532-2.028,1.186a99.411,99.411,0,0,1-4.149-9.056c.475,7.093,1.258,14.175,2.217,21.2.729,5.346,1.582,10.684,2.7,15.963a60.738,60.738,0,0,0,3.33,11.635,1.23,1.23,0,0,1-.214,1.335c-.026.03-.057.056-.085.084a4.57,4.57,0,0,0,.815,1.346,5.9,5.9,0,0,1,1.373-1.431,1.172,1.172,0,0,1,.234-.309,63.239,63.239,0,0,0,16.223-24.949,76.256,76.256,0,0,0,4.052-27.6,1.042,1.042,0,0,1,.376-.872l0,0-.006,0a13.245,13.245,0,0,1-2.993.673l-1.4,2.945a1.087,1.087,0,0,1-.981.57,1.33,1.33,0,0,1-.263-.026c.009.146.016.29.017.431" transform="translate(-74.921 -137.405)" fill="#fff"/>
        <path id="パス_537" data-name="パス 537" d="M153.082,131.426l.012.007a1.144,1.144,0,0,1,.22,1.792c-4.985,5.031-9.115,10.908-15.2,14.723a1.142,1.142,0,0,1-1.952.662c-1.012-1.109-2.348-.919-2.641.643a11.837,11.837,0,0,0-.119,3.31,7.224,7.224,0,0,0,4.618,5.854c1.089.481.574,1.836-.363,2.093a10.8,10.8,0,0,0-.841,1.849c.814-.474,2.127.143,1.75,1.271q-1.093,3.274-2.189,6.548c3.029,4.627,7.779,8.047,12.274,11.139a1.162,1.162,0,0,1,.5.759,1.211,1.211,0,0,1,.5,1.357,1.413,1.413,0,0,1,.272.081,1.044,1.044,0,0,1,.832-1.047c1.67-.423,3.2-.738,4.7-1.264,0-.142-.008-.286-.017-.432a1.087,1.087,0,0,1-.363-.123,1.207,1.207,0,0,1-.421-1.607l.817-1.726a16.773,16.773,0,0,1-6.485-1.951c-4.188-2.219-6.676-5.71-9.482-9.366-.921-1.2,1.121-2.368,2.028-1.186,2.5,3.255,4.665,6.329,8.354,8.366,3.869,2.137,8.368,2.575,12.3.357,7.448-4.2,8.645-13.4,10.112-21.017a1.127,1.127,0,0,1,2.05-.33,13.893,13.893,0,0,0,.267-3.364,1.078,1.078,0,0,1-.747-1.063c-.047-8.6-5.949-15.967-13.984-18.725a1.194,1.194,0,0,1-.444-.274c-2.96-.815-4.935.511-6.365,2.661m15.008,8.808a4.091,4.091,0,0,1,3.9,2.707,1.183,1.183,0,0,1-.821,1.445,1.209,1.209,0,0,1-1.445-.821,1.7,1.7,0,0,0-1.634-.983,1.175,1.175,0,0,1,0-2.349m-2.586,7.6a1.183,1.183,0,0,1,1.445-.82l2.081.821a1.2,1.2,0,0,1,.821,1.445,1.183,1.183,0,0,1-1.445.82l-2.081-.821a1.2,1.2,0,0,1-.82-1.445m-13.684-4.9,3.451.389a1.2,1.2,0,0,1,1.174,1.174,1.181,1.181,0,0,1-1.174,1.174l-3.451-.389a1.2,1.2,0,0,1-1.174-1.174,1.182,1.182,0,0,1,1.174-1.174M162.762,162.6l-9.563-2.756c.129,2.019.33,4.228,1.371,5.835,1.794,2.766,4.4.572,5.3-1.682.556-1.388,2.827-.779,2.265.624-1.242,3.1-4.466,6.253-7.921,4.017-3.224-2.086-3.2-6.986-3.472-10.387a1.183,1.183,0,0,1,1.486-1.133l11.156,3.215a1.175,1.175,0,0,1-.624,2.265m-2.185-17.2c.625-1.376,2.649-.181,2.028,1.186a3.105,3.105,0,0,0,.265,2.938c.8,1.29-1.234,2.468-2.028,1.186a5.539,5.539,0,0,1-.265-5.309m.268,8.966a1.175,1.175,0,0,1,0,2.349,1.175,1.175,0,0,1,0-2.349M157.65,139.5a2.564,2.564,0,0,0-3.155.885c-.834,1.255-2.867.077-2.028-1.186a4.977,4.977,0,0,1,6.368-1.728c1.363.656.17,2.681-1.186,2.028" transform="translate(-80.614 -78.24)" fill="#fff"/>
        <path id="パス_538" data-name="パス 538" d="M163.064,118.623a23.253,23.253,0,0,1,14.754,14.827,17.7,17.7,0,0,0-5.938-14.312,15.015,15.015,0,0,0-7.955-3.977c-2.61-.317-6.034-.091-8.209,1.611a1.169,1.169,0,0,1-1.432,1.4c-4.381-1.212-9.3,2.471-12.2,5.385-3.806,3.835-4.823,8.576-4.464,13.8a4.1,4.1,0,0,1,1.651.548c.009-.006.015-.013.025-.019,5.992-3.693,10.021-9.548,14.9-14.474a1.075,1.075,0,0,1,1.428-.138c1.43-2.151,3.405-3.476,6.365-2.661a1.143,1.143,0,0,1-.334-.588c-.169-.792.426-1.738,1.4-1.4" transform="translate(-83.162 -70.089)" fill="#d5d5d5"/>
        <path id="パス_539" data-name="パス 539" d="M66.81,315.119l-.006,0a.882.882,0,0,1-.176.036.929.929,0,0,1-.115,0l-.043,0a.959.959,0,0,1-.112-.015l-.036-.009a1.1,1.1,0,0,1-.333-.142l-.049-.032c-.028-.019-.055-.04-.081-.061s-.037-.032-.056-.049-.046-.042-.068-.064a1.41,1.41,0,0,1-.1-.12c-.014-.018-.026-.038-.039-.057s-.042-.062-.06-.1l-.033-.062c-.018-.036-.034-.072-.049-.11-.008-.019-.015-.037-.022-.056a1.287,1.287,0,0,1-.047-.172c0-.009,0-.017,0-.026a1.207,1.207,0,0,1-.017-.156c0-.019,0-.038,0-.057a1.108,1.108,0,0,1,.009-.135c0-.019,0-.038.008-.056a1.185,1.185,0,0,1,.047-.187,1.247,1.247,0,0,1,.218-.387c2.273-2.733,2.113-7.831.578-10.894a37.193,37.193,0,0,0-3.327-4.83c-.888-1.228,1.151-2.4,2.028-1.185q.195.269.391.536c1.07-.516,2.646-1.439,2.955-2.392a2.391,2.391,0,0,0-.515-1.637c-.282-.174-.754-.032-1.087.036a18.763,18.763,0,0,0-4.91,1.981c-1.335.712-2.52-1.316-1.186-2.028,1.512-.807,3.906-2.185,6.009-2.428a4.023,4.023,0,0,0,.441-1.807c-.214-1.157-1.043-.946-1.923-.668a33.13,33.13,0,0,0-6.267,3.046,1.175,1.175,0,0,1-1.186-2.028A46.878,46.878,0,0,1,63,286.076a12.079,12.079,0,0,1,2.6-.871,3.8,3.8,0,0,0-.489-2.243c-1-1.171-2.748.082-3.8.685a37.6,37.6,0,0,0-5.7,4.113c-1.144.978-2.812-.677-1.661-1.661,2.39-2.045,5.34-4.64,8.448-5.665a3.6,3.6,0,0,0-.275-.8c-.706-1.387-1.755-.8-2.825-.284-1.706.827-2.734,2.479-4.192,3.687a14.275,14.275,0,0,0-2.482,2.439c-.518.7-.6.77-.323,1.532.265.735.6,1.452.927,2.171a1.217,1.217,0,0,1,.1.144,78.04,78.04,0,0,1,4.6,11.859c.7,2.062,1.689,4.258,1.136,6.47a30.586,30.586,0,0,1-1.369,3.618,1.19,1.19,0,0,1-.579.645,1.348,1.348,0,0,1-1.484-.195l-.147.208a73.386,73.386,0,0,0,10.537,5.83c.113.051.229.1.342.152l.527-2.826c-.024.01-.047.023-.071.03" transform="translate(-31.524 -169.079)" fill="#fff"/>
        <path id="パス_540" data-name="パス 540" d="M129.953,84.682a1.091,1.091,0,0,1,.281-1.451c-.031-.036-.062-.074-.093-.105-.814,0-1.2.53-1.5,1.2.749-.032,1.5.533,1.148,1.407l-2.512,6.28-17.569,43.922c-.556,1.388-2.826.779-2.265-.624l.008-.02a14.887,14.887,0,0,0-1.429,1.332c-1.753,5.2-4.582,9.83-10.033,12.2-.079.035-.161.062-.24.1a1.158,1.158,0,0,1,1.331,1.124,77.447,77.447,0,0,1-4.344,28.807A65.961,65.961,0,0,1,76.282,204.09c-.057.053-.111.108-.167.161a1.217,1.217,0,0,1-2.016-.773.987.987,0,0,1,.121-.58,5.9,5.9,0,0,0-1.373,1.432c.046.052.087.106.137.156-.05-.05-.091-.1-.137-.156-.22.3-.433.62-.646.939.212-.319.425-.635.646-.939a4.59,4.59,0,0,1-.815-1.346,1.353,1.353,0,0,1-.6.344.942.942,0,0,1-.694-.076,1.015,1.015,0,0,1-.431-.5c-3.8-8.73-4.994-18.811-6.271-28.159a276.675,276.675,0,0,1-2.757-32.063,1.152,1.152,0,0,1,.109-.523,10.668,10.668,0,0,0-3.032.748,1.077,1.077,0,0,1,.451,1.226c-1.157,4.352-2.8,8.628-3.371,13.115-.188,1.482-2.539,1.5-2.349,0a77.457,77.457,0,0,1,2.876-11.66,51.958,51.958,0,0,0-12.4-1.135c-1.961.117-2.842.494-3.933,2.1a68.1,68.1,0,0,0-3.854,6.68A115.957,115.957,0,0,0,30.6,164.4c-2.042,5.171-4.2,10.3-6.378,15.414a54.229,54.229,0,0,0,14.376,13.836l.147-.208a.931.931,0,0,1-.2-1.075c.028-.072.059-.144.089-.216.369-.917.8-1.836,1.083-2.777.652-2.131-.406-4.283-1.094-6.3A76.752,76.752,0,0,0,34.6,172.615a1.263,1.263,0,0,1-.2-.321c-.574-1.4-1.945-3.244-1.531-4.8.728-2.727,3.945-4.324,5.7-6.289,1.39-1.56,3.757-3.575,6.044-3.111,1.919.389,2.833,2,3.214,3.753A3.694,3.694,0,0,1,50.1,163.13c.979,1.134.711,2.334.931,3.7a1.246,1.246,0,0,1-.03.542,3.942,3.942,0,0,1,1.373,2.068,4.262,4.262,0,0,1-.343,2.922,4.305,4.305,0,0,1,1.6,4.424,4.151,4.151,0,0,1-.6,1.058,1.311,1.311,0,0,1,.147.265c1.326,3.284,1.882,7.223-.452,10.174h0a11.627,11.627,0,0,1-1.8,7.549c-.154.221-.314.44-.49.651a1.254,1.254,0,0,1-.163.164,1.056,1.056,0,0,1-.121.083c-.016.01-.031.023-.047.032a.871.871,0,0,1-.1.041l-.527,2.825a107.049,107.049,0,0,0,23.513,7.2,46.419,46.419,0,0,0,19.871-.513l.153-.233q1.634-2.481,3.262-4.966c3.489-5.325,7.143-10.594,10.239-16.162a193.389,193.389,0,0,0,13.979-30.681,1.188,1.188,0,0,1,1.441-.77c.078-.229.16-.459.25-.688a.973.973,0,0,1-.063-.9l2.959-7.834,12.847-34.018,7.285-19.291c-5.848,1.176-12.138-.661-15.254-6.093M65.615,199.325a210.067,210.067,0,0,1-11.636-29.2c-.633-2.046-2.146-5.4-1.21-7.562,1.128-2.6,5.028-3.723,7.547-4.327,1.471-.353,2.093,1.912.624,2.265-1.769.424-5.928,1.537-6.083,3.361a9.469,9.469,0,0,0,.6,2.921c.431,1.622.938,3.225,1.464,4.819A217.458,217.458,0,0,0,67.643,198.14c.656,1.356-1.37,2.546-2.028,1.186m40.62-37.061c-1.506,3.692-3.29,7.271-5.086,10.828-3.319,6.57-6.936,12.987-10.245,19.561-.68,1.352-2.706.161-2.028-1.186,1.349-2.681,2.8-5.313,4.2-7.963,3.6-6.782,7.283-13.571,10.358-20.612,1.136-2.6,2.422-5.488,1.649-8.384a4.849,4.849,0,0,0-2.6-3.165,7.469,7.469,0,0,0-1.128-.407c-.184-.056-.721-.129-.287-.077-1.485-.176-1.5-2.527,0-2.349a7.4,7.4,0,0,1,5.915,4.328c1.339,3.121.467,6.441-.75,9.425m14.457-27.21c-4.277,3.932-8.178,8.354-13.1,11.514-1.277.82-2.453-1.214-1.186-2.028,4.745-3.047,8.5-7.355,12.625-11.147,1.112-1.022,2.776.635,1.661,1.661m1.917-4.692a1.175,1.175,0,0,1,0-2.349,1.175,1.175,0,0,1,0,2.349" transform="translate(-14.641 -50.795)" fill="#ffe88a"/>
        <path id="パス_541" data-name="パス 541" d="M236.811,137.774,254.38,93.852l2.512-6.28c.35-.874-.4-1.439-1.148-1.407a1.223,1.223,0,0,0-1.117.783l-17.568,43.922-2.5,6.26-.008.02c-.562,1.4,1.709,2.013,2.265.624" transform="translate(-141.744 -52.631)" fill="#323232"/>
        <path id="パス_542" data-name="パス 542" d="M279.5,35.253c3.115,5.432,9.406,7.269,15.254,6.093l-7.285,19.291L274.626,94.655l-2.959,7.834a.972.972,0,0,0,.063.9,1.272,1.272,0,0,0,2.2-.279l8.056-21.331,12.847-34.018,2.958-7.834a1.182,1.182,0,0,0-1.445-1.445l-.055.018c.531-1.287.979-2.608,1.567-3.872a15.163,15.163,0,0,1,3.358-4.151c2.241-2.316,1.69-4.949,2.02-7.892a11.053,11.053,0,0,0,1.567-1.908c.768-1.136,1.53-2.664,1.17-4.079a3.151,3.151,0,0,0-2.967-2.226c-.239-1.585-1.314-2.973-3-2.884-.154-1.569-1.288-2.576-3.175-3.04a11.453,11.453,0,0,0,.09-1.552,2.516,2.516,0,0,0-2.071-2.751,4.583,4.583,0,0,0-3.372.182A4.172,4.172,0,0,0,288.9,1.556a3.018,3.018,0,0,0-4.031,3.324,24.909,24.909,0,0,1,.354,5.166,27.538,27.538,0,0,1-1.544,5.91,15.074,15.074,0,0,0-.514,8.521,5.268,5.268,0,0,1-.252,3.844c-.3.629-.658,1.238-.985,1.854L280.1,33.605a1.381,1.381,0,0,0-.315.2,1.091,1.091,0,0,0-.281,1.451m23.245-18.579a1.323,1.323,0,0,0,.167-.008c.86-.124.826.779.687,1.257a6.109,6.109,0,0,1-1.015,1.842,6.457,6.457,0,0,1-1.252,1.374,2.28,2.28,0,0,1-.54.315c-.021-.042-.38-.119-.473-.3a1.232,1.232,0,0,0-.119-.18,12.431,12.431,0,0,0,2.545-4.3M299.62,13.95a1.256,1.256,0,0,0,.165-.035c2.274-.72-.309,4.12-.556,4.492a5.823,5.823,0,0,1-2.895,2.437c-.116-.391-.254-.779-.408-1.162,1.98-1.326,2.98-3.479,3.693-5.732m-3.309-3.21a1.492,1.492,0,0,1,1.3,1.759,7.09,7.09,0,0,1-.588,1.837,6.935,6.935,0,0,1-2.136,3.189c-.057-.1-.113-.2-.17-.306-.417-.727-.87-1.443-1.291-2.176a9.693,9.693,0,0,0,2.888-4.3m-4.379-3.925a1.259,1.259,0,0,0,.3-.2c.453-.418,2.106-.459,2.342.036a5.039,5.039,0,0,1-.239,2.455,8.076,8.076,0,0,1-1.97,3.75l-.006-.014c-.637-1.749-.427-3.452-.41-5.264,0-.248,0-.5-.017-.761m-6.853,22.423c1.068-2.175.632-3.817.19-6.078-.59-3.021.355-5.448,1.244-8.276a19.569,19.569,0,0,0,1.024-8.345,6.965,6.965,0,0,1-.286-1.565c.621-2.612,2.006-.095,2.181.544a15.534,15.534,0,0,1,.089,4.217,13.346,13.346,0,0,0,2.146,6.955c1.579,2.727,3.631,5.646,2.264,8.893-.586,1.391,1.686,2,2.265.624a7.036,7.036,0,0,0,.541-3.012,6.968,6.968,0,0,0,1.636-.72,2.708,2.708,0,0,0,2.439,1.292c-.028.858-.017,1.716-.093,2.572-.157,1.785-1.376,2.628-2.565,3.808-2.445,2.428-3.06,5.705-4.573,8.684a1.25,1.25,0,0,0-.114.347c-4.327.621-8.8-.6-11.4-4.272,1.009-1.883,2.068-3.75,3.009-5.667" transform="translate(-164.191 -1.366)" fill="#323232"/>
        <path id="パス_543" data-name="パス 543" d="M226.87,261.063a1.19,1.19,0,0,0-1.442.77,193.352,193.352,0,0,1-13.978,30.681c-3.1,5.568-6.749,10.837-10.238,16.162q-1.628,2.485-3.262,4.966l-.153.233q1.747-.429,3.456-.988,3.654-5.556,7.272-11.135a174.175,174.175,0,0,0,9.355-16.441q1.357-2.7,2.64-5.447a179.046,179.046,0,0,0,7.174-17.407,1.034,1.034,0,0,0-.823-1.394" transform="translate(-119.58 -158.349)" fill="#323232"/>
        <path id="パス_544" data-name="パス 544" d="M178.276,167.288l3.451.39A1.182,1.182,0,0,0,182.9,166.5a1.2,1.2,0,0,0-1.174-1.174l-3.451-.39a1.182,1.182,0,0,0-1.174,1.174,1.2,1.2,0,0,0,1.174,1.174" transform="translate(-107.07 -100.253)" fill="#323232"/>
        <path id="パス_545" data-name="パス 545" d="M215.43,177.451l2.081.821a1.183,1.183,0,0,0,1.445-.821,1.2,1.2,0,0,0-.82-1.445l-2.081-.821a1.183,1.183,0,0,0-1.445.82,1.2,1.2,0,0,0,.82,1.445" transform="translate(-129.719 -106.415)" fill="#323232"/>
        <path id="パス_546" data-name="パス 546" d="M203.666,174.413a3.1,3.1,0,0,1-.265-2.938c.62-1.366-1.4-2.562-2.028-1.186a5.538,5.538,0,0,0,.265,5.309c.794,1.283,2.827.1,2.028-1.186" transform="translate(-121.41 -103.122)" fill="#323232"/>
        <path id="パス_547" data-name="パス 547" d="M201.159,196.245a1.175,1.175,0,0,0,0-2.349,1.175,1.175,0,0,0,0,2.349" transform="translate(-120.928 -117.763)" fill="#323232"/>
        <path id="パス_548" data-name="パス 548" d="M177.345,201.926c.27,3.4.248,8.3,3.472,10.386,3.454,2.235,6.679-.92,7.921-4.017.562-1.4-1.709-2.012-2.265-.624-.9,2.254-3.508,4.448-5.3,1.681-1.042-1.607-1.242-3.816-1.371-5.835l9.563,2.756a1.175,1.175,0,0,0,.624-2.265l-11.156-3.215a1.183,1.183,0,0,0-1.486,1.133" transform="translate(-107.215 -121.908)" fill="#323232"/>
        <path id="パス_549" data-name="パス 549" d="M129.317,145.372c.121.172.248.341.382.5.052.064.108.126.162.189.122.141.248.279.379.413.067.068.136.136.206.2q.193.184.4.359c.078.066.156.133.237.2.141.112.288.22.437.325.085.06.167.121.254.178.164.109.336.211.51.311.08.047.157.1.238.141.259.141.527.275.806.4h0a1.206,1.206,0,0,0,.821.064c.938-.257,1.453-1.611.364-2.093a7.223,7.223,0,0,1-4.618-5.854,11.819,11.819,0,0,1,.119-3.31c.293-1.562,1.629-1.752,2.641-.643a1.143,1.143,0,0,0,1.953-.662c6.081-3.815,10.211-9.692,15.2-14.723a1.144,1.144,0,0,0-.22-1.792,1.077,1.077,0,0,0-1.441.131c-4.881,4.926-8.911,10.781-14.9,14.474-.009.006-.015.013-.025.019a4.1,4.1,0,0,0-1.651-.548c-.359-5.228.658-9.97,4.464-13.8,2.893-2.914,7.815-6.6,12.2-5.385a1.169,1.169,0,0,0,1.432-1.4c2.175-1.7,5.6-1.928,8.209-1.611a15.017,15.017,0,0,1,7.955,3.977,17.7,17.7,0,0,1,5.938,14.312A23.252,23.252,0,0,0,157,114.92c-.976-.335-1.571.611-1.4,1.4a1.142,1.142,0,0,0,.777.862c8.035,2.757,13.938,10.127,13.984,18.725a1.077,1.077,0,0,0,.747,1.063,1.155,1.155,0,0,0,1.6-1.063,21.226,21.226,0,0,0-.161-2.465,1.03,1.03,0,0,0,1.115-.834c1.715-7.229-1.3-14.873-6.991-19.531-4.974-4.073-13.731-6.234-19.022-1.389a1.228,1.228,0,0,0-.2.246c-4.7-.492-9.506,2.808-12.7,5.882-4.522,4.346-5.976,9.9-5.518,16.025a1.291,1.291,0,0,0,.061.3c-1.451.865-1.625,2.832-1.726,4.358a11.192,11.192,0,0,0,.856,5.286,9.171,9.171,0,0,0,.8,1.446c.031.047.066.091.1.137" transform="translate(-77.101 -66.386)" fill="#323232"/>
        <path id="パス_550" data-name="パス 550" d="M204.882,262.215c1.217-2.984,2.089-6.3.75-9.424a7.4,7.4,0,0,0-5.915-4.329c-1.5-.178-1.485,2.173,0,2.349-.434-.051.1.021.287.077a7.478,7.478,0,0,1,1.129.407,4.85,4.85,0,0,1,2.6,3.165c.773,2.9-.512,5.782-1.649,8.384-3.075,7.041-6.757,13.83-10.358,20.612-1.407,2.65-2.855,5.282-4.2,7.963-.678,1.347,1.348,2.538,2.028,1.186,3.308-6.574,6.925-12.991,10.244-19.561,1.8-3.557,3.581-7.136,5.086-10.828" transform="translate(-113.287 -150.745)" fill="#323232"/>
        <path id="パス_551" data-name="パス 551" d="M135.268,214.493q-.731,2.19-1.464,4.379c-.012-.027-.026-.052-.038-.079-.409-.924-1.45-.691-1.912-.025a1.207,1.207,0,0,0-.116,1.211,20.721,20.721,0,0,0,1.091,2.108.989.989,0,0,0,.459.742c2.984,4.65,7.624,8.17,12.134,11.3-3.3,1.819-5.826,4.66-8.527,7.281-1.087,1.055.575,2.715,1.661,1.661,2.758-2.676,5.293-5.576,8.768-7.284a1.283,1.283,0,0,0,0,.223c.118,1.02.205,2.042.282,3.065a1.141,1.141,0,0,0-2.088.294c-2,9.764-3.772,19.617-7.363,28.956-.543,1.412,1.727,2.023,2.265.624,3.542-9.21,5.31-18.919,7.281-28.551.134,1.965.252,3.931.479,5.889a1.192,1.192,0,0,0,2,.83,41.174,41.174,0,0,0,8.434-10.437,1.175,1.175,0,0,0-2.028-1.186,39.1,39.1,0,0,1-6.3,8.281c-.2-2.526-.313-5.06-.6-7.58a1.147,1.147,0,0,0,.656.018c2.916-.738,5.445-1.2,8.051-2.814,1.284-.793.106-2.826-1.186-2.028a13.955,13.955,0,0,1-2.518,1.218,48.371,48.371,0,0,1-4.972,1.36,1.044,1.044,0,0,0-.832,1.047,1.374,1.374,0,0,0-.272-.081,1.211,1.211,0,0,0-.5-1.357,1.162,1.162,0,0,0-.5-.759c-4.495-3.092-9.245-6.512-12.274-11.139q1.094-3.274,2.189-6.548c.376-1.127-.936-1.745-1.75-1.271a1.143,1.143,0,0,0-.515.646" transform="translate(-79.577 -129.727)" fill="#323232"/>
        <path id="パス_552" data-name="パス 552" d="M33.393,217.282a68.094,68.094,0,0,1,3.854-6.68c1.091-1.607,1.972-1.984,3.933-2.1a51.96,51.96,0,0,1,12.4,1.135,77.409,77.409,0,0,0-2.876,11.66c-.19,1.5,2.161,1.482,2.349,0,.569-4.487,2.215-8.763,3.372-13.115a1.077,1.077,0,0,0-.451-1.226,1.159,1.159,0,0,0-1.746.42,75.35,75.35,0,0,0-8.381-1.131c5.072-3.406,8.755-9.632,15.808-7.54a1.044,1.044,0,0,0,1.22-.418,1.184,1.184,0,0,0-.6-1.847c-7.042-2.089-11.749,2.87-16.662,7.038a13.861,13.861,0,0,1-14.257,1.544,7.1,7.1,0,0,0,1.03-.2c3.331-.927,5.646-3.43,7.626-6.109a16.055,16.055,0,0,1,9.18-6.562,15.573,15.573,0,0,1,12.319,1.961c1.02.687,1.987-.523,1.648-1.453a1.117,1.117,0,0,0-.161-.291,1.251,1.251,0,0,0-.3-.284c-5.837-3.931-14.047-3.519-19.811.331-2.834,1.893-4.3,4.745-6.56,7.187a9.671,9.671,0,0,1-5.082,3.08c-2.093.353-3.752-.8-5.166-2.223a1.175,1.175,0,0,0-1.661,1.661,12.57,12.57,0,0,0,1.821,1.528,12.936,12.936,0,0,0,9.5,4.891,31.186,31.186,0,0,0-2.045,3.331c-4.757,8.119-7.982,16.842-11.6,25.488-.6,1.434-1.207,2.864-1.811,4.3q.747,1.211,1.554,2.366c2.176-5.118,4.336-10.244,6.378-15.414a116.048,116.048,0,0,1,5.173-11.317" transform="translate(-12.265 -114.996)" fill="#323232"/>
        <path id="パス_553" data-name="パス 553" d="M232.417,222.929c4.922-3.16,8.823-7.582,13.1-11.514,1.116-1.025-.549-2.683-1.661-1.661-4.124,3.791-7.879,8.1-12.625,11.147-1.268.814-.091,2.848,1.186,2.028" transform="translate(-139.465 -127.156)" fill="#323232"/>
        <path id="パス_554" data-name="パス 554" d="M271.3,198.988a1.175,1.175,0,0,0,0-2.349,1.175,1.175,0,0,0,0,2.349" transform="translate(-163.334 -119.421)" fill="#323232"/>
        <path id="パス_555" data-name="パス 555" d="M181.381,187.917c-1.467,7.614-2.663,16.816-10.112,21.017-3.931,2.218-8.43,1.779-12.3-.357-3.689-2.037-5.856-5.111-8.354-8.366-.908-1.183-2.949-.014-2.028,1.186,2.806,3.656,5.293,7.147,9.482,9.366a16.772,16.772,0,0,0,6.485,1.951l-.817,1.726a1.207,1.207,0,0,0,.421,1.607,1.187,1.187,0,0,0,.626.148,1.088,1.088,0,0,0,.981-.57l1.4-2.945a13.246,13.246,0,0,0,2.992-.673l.006,0,0,0a1.041,1.041,0,0,0-.375.872,76.256,76.256,0,0,1-4.052,27.6A63.24,63.24,0,0,1,149.5,265.432a1.032,1.032,0,0,0-.355.888,1.217,1.217,0,0,0,2.016.773c.057-.053.111-.108.167-.161a65.956,65.956,0,0,0,16.452-25.243,77.448,77.448,0,0,0,4.344-28.807,1.158,1.158,0,0,0-1.331-1.124c.08-.033.161-.061.24-.1,5.451-2.366,8.281-6.994,10.033-12.2a84.289,84.289,0,0,0,2.575-10.925,1.162,1.162,0,0,0-.216-.955,1.127,1.127,0,0,0-2.05.33" transform="translate(-89.69 -113.636)" fill="#323232"/>
        <path id="パス_556" data-name="パス 556" d="M183.432,153.28a2.564,2.564,0,0,1,3.155-.885c1.356.652,2.549-1.373,1.186-2.028a4.976,4.976,0,0,0-6.369,1.728c-.839,1.263,1.195,2.44,2.028,1.186" transform="translate(-109.55 -91.136)" fill="#323232"/>
        <path id="パス_557" data-name="パス 557" d="M219.483,160.488a1.7,1.7,0,0,1,1.634.983,1.209,1.209,0,0,0,1.445.82,1.183,1.183,0,0,0,.82-1.445,4.09,4.09,0,0,0-3.9-2.707,1.175,1.175,0,0,0,0,2.349" transform="translate(-132.006 -96.145)" fill="#323232"/>
        <path id="パス_558" data-name="パス 558" d="M120.946,225.086l-2.1,1.954a1.077,1.077,0,0,0-.8.587,1.152,1.152,0,0,0-.109.523,276.592,276.592,0,0,0,2.757,32.063c1.278,9.348,2.473,19.429,6.271,28.159a1.013,1.013,0,0,0,.431.5.942.942,0,0,0,.694.076,1.37,1.37,0,0,0,.689-.428,1.23,1.23,0,0,0,.214-1.335,60.774,60.774,0,0,1-3.33-11.635c-1.122-5.279-1.974-10.616-2.7-15.963-.959-7.026-1.742-14.108-2.217-21.2a99.3,99.3,0,0,0,4.149,9.056c.688,1.347,2.715.159,2.028-1.186a69.048,69.048,0,0,1-6.222-15.9,1.075,1.075,0,0,0-.365-.619c-.008-.289-.019-.579-.025-.868.028-.022.059-.041.085-.066l2.22-2.062a1.167,1.167,0,0,0,.246-1.285,1.129,1.129,0,0,0-.246-.376,1.194,1.194,0,0,0-1.661,0" transform="translate(-71.297 -136.416)" fill="#323232"/>
        <path id="パス_559" data-name="パス 559" d="M100.116,286.384c-.526-1.594-1.032-3.2-1.464-4.819a9.456,9.456,0,0,1-.6-2.92c.155-1.825,4.314-2.937,6.083-3.362,1.469-.352.847-2.618-.624-2.265-2.519.6-6.419,1.724-7.547,4.326-.936,2.16.577,5.516,1.21,7.562a210.1,210.1,0,0,0,11.635,29.2c.658,1.36,2.685.17,2.028-1.185a217.551,217.551,0,0,1-10.725-26.536" transform="translate(-57.839 -165.574)" fill="#323232"/>
        <path id="パス_560" data-name="パス 560" d="M65.843,302.8c2.334-2.952,1.778-6.891.452-10.174a1.271,1.271,0,0,0-.147-.265,4.139,4.139,0,0,0,.6-1.059,4.305,4.305,0,0,0-1.6-4.424,4.258,4.258,0,0,0,.343-2.922,3.941,3.941,0,0,0-1.372-2.068,1.248,1.248,0,0,0,.03-.542c-.22-1.368.048-2.567-.932-3.7a3.694,3.694,0,0,0-2.266-1.278c-.381-1.754-1.3-3.364-3.214-3.753-2.288-.464-4.655,1.551-6.044,3.111-1.75,1.965-4.967,3.563-5.7,6.29-.414,1.551.957,3.394,1.531,4.8a1.268,1.268,0,0,0,.195.321,76.716,76.716,0,0,1,4.013,10.456c.688,2.019,1.745,4.171,1.093,6.3-.287.941-.714,1.86-1.083,2.777-.029.072-.06.144-.088.216-.427,1.092.84,1.7,1.686,1.269a1.19,1.19,0,0,0,.579-.645,30.587,30.587,0,0,0,1.369-3.618c.552-2.212-.439-4.408-1.136-6.47a78.04,78.04,0,0,0-4.6-11.859,1.217,1.217,0,0,0-.1-.144c-.322-.72-.662-1.436-.927-2.171-.274-.762-.2-.83.323-1.532a14.288,14.288,0,0,1,2.482-2.439c1.458-1.208,2.486-2.86,4.192-3.687,1.07-.518,2.119-1.1,2.825.284a3.6,3.6,0,0,1,.275.8c-3.109,1.025-6.058,3.62-8.449,5.665-1.15.984.518,2.639,1.661,1.661a37.585,37.585,0,0,1,5.7-4.113c1.051-.6,2.8-1.857,3.8-.685a3.8,3.8,0,0,1,.489,2.243,12.081,12.081,0,0,0-2.6.871,46.907,46.907,0,0,0-5.348,2.734,1.175,1.175,0,0,0,1.186,2.028,33.145,33.145,0,0,1,6.267-3.046c.879-.278,1.709-.489,1.923.668a4.024,4.024,0,0,1-.442,1.807c-2.1.243-4.5,1.621-6.009,2.428-1.334.712-.149,2.74,1.186,2.028a18.775,18.775,0,0,1,4.909-1.981c.334-.068.806-.21,1.087-.036a2.391,2.391,0,0,1,.515,1.637c-.309.953-1.885,1.876-2.955,2.392q-.2-.268-.391-.536c-.877-1.214-2.916-.042-2.028,1.186a37.231,37.231,0,0,1,3.328,4.829c1.535,3.063,1.7,8.161-.578,10.894a1.246,1.246,0,0,0-.218.387,1.155,1.155,0,0,0-.047.187c0,.019-.005.038-.008.056a1.193,1.193,0,0,0-.009.135c0,.019,0,.038,0,.057a1.143,1.143,0,0,0,.017.156c0,.009,0,.017,0,.026a1.344,1.344,0,0,0,.047.172c.007.019.015.037.022.056.015.037.031.074.049.11s.021.042.033.062.039.064.06.1.025.039.038.057a1.415,1.415,0,0,0,.1.12c.022.023.045.044.068.064s.036.034.055.049.053.042.081.061l.049.032a1.106,1.106,0,0,0,.333.142l.037.009a1.047,1.047,0,0,0,.111.015l.043,0a.936.936,0,0,0,.115,0,.889.889,0,0,0,.176-.035l.006,0c.024-.008.047-.021.071-.03l.382-2.049-.382,2.049a.771.771,0,0,0,.1-.04c.016-.009.032-.022.048-.032a1.007,1.007,0,0,0,.121-.083,1.271,1.271,0,0,0,.163-.164c.176-.212.337-.43.491-.651a11.629,11.629,0,0,0,1.8-7.549h0m-.744-3.955a16.239,16.239,0,0,0-2.148-3.959,12.228,12.228,0,0,0,1.382-.84,10.826,10.826,0,0,1,.766,4.8" transform="translate(-27.764 -165.314)" fill="#323232"/>
        <path id="パス_561" data-name="パス 561" d="M20.509,41.984h3.57L27.411,35h-3.57l-3.332,6.982" transform="translate(-12.399 -21.701)" fill="#b4f0ff"/>
        <path id="パス_562" data-name="パス 562" d="M10.046,146.224l-3.4.836a17.058,17.058,0,0,0-.187,8.355l3.841-.943a15.775,15.775,0,0,1-.251-8.248" transform="translate(-3.637 -88.942)" fill="#ffdc00"/>
        <path id="パス_563" data-name="パス 563" d="M280.281,314.726a36.312,36.312,0,0,1-2.537,7.162l3.631-.292c1.341-1.914,2.765-3.784,2.649-6.168l-3.743-.7" transform="translate(-167.914 -190.812)" fill="#fff"/>
        <path id="パス_565" data-name="パス 565" d="M174.325,84.681l2.083.277c1.183.157,1.245-.275,2.3-1.053a14.6,14.6,0,0,0,3.013-2.759l-2.637-.58-4.759,4.115" transform="translate(-105.391 -49.247)" fill="#b4f0ff"/>
        <path id="パス_567" data-name="パス 567" d="M336.332,165.454a23.623,23.623,0,0,1,1.127,6.588l3.035-2.12a63.424,63.424,0,0,0-1.3-6.382l-2.858,1.914" transform="translate(-203.334 -99.41)" fill="#ffdc00"/>
        <path id="パス_568" data-name="パス 568" d="M315.636,228.593q.552,2.514,1.1,5.028h2.135l-1.1-5.028Z" transform="translate(-190.822 -138.739)" fill="#b4f0ff"/>
        <path id="パス_569" data-name="パス 569" d="M48.057,81.576l.417,1.222,1.61.614q-.208-.856-.415-1.712l-1.612-.125" transform="translate(-29.054 -49.858)" fill="#fff"/>
        <path id="パス_572" data-name="パス 572" d="M177.834,75.439,173,74.377a1.18,1.18,0,0,0-.7.051h0l-.062.026a1.254,1.254,0,0,0-.387.228L164.658,80.9c-.875.756-.069,1.9.839,2.025a37.107,37.107,0,0,0,5.623.748c1.309-.036,2.635-1.4,3.636-2.175a11.719,11.719,0,0,0,3.787-4.317,1.2,1.2,0,0,0-.709-1.743m-5.2,4.7c-1.054.779-1.117,1.211-2.3,1.054l-2.083-.277,4.759-4.115,2.636.58a14.578,14.578,0,0,1-3.013,2.759" transform="translate(-99.319 -45.487)" fill="#323232"/>
        <path id="パス_573" data-name="パス 573" d="M24.648,29H18.458a1.17,1.17,0,0,0-1.024.588l-4.464,9.355a1.2,1.2,0,0,0,1.025,1.785h6.1a.971.971,0,0,0,1.114-.588l4.464-9.355A1.2,1.2,0,0,0,24.648,29M19.44,38.357H15.87L19.2,31.375h3.57L19.44,38.357" transform="translate(-7.76 -18.074)" fill="#323232"/>
        <path id="パス_574" data-name="パス 574" d="M9.317,140.56c.343-.887-.658-1.656-1.459-1.459l-6.149,1.509a1.182,1.182,0,0,0-.828.829c-.951,3.745-1.377,7.686,0,11.382a1.217,1.217,0,0,0,1.459.828l6.149-1.509a1.1,1.1,0,0,0,.623-.383.99.99,0,0,0,.206-1.076,13.784,13.784,0,0,1,0-10.121m-6.5,10.529a17.062,17.062,0,0,1,.186-8.355l3.4-.836a15.771,15.771,0,0,0,.25,8.248l-3.84.943" transform="translate(0 -84.616)" fill="#323232"/>
        <path id="パス_575" data-name="パス 575" d="M337.006,156.685a1.2,1.2,0,0,0-1.743-.709l-4.945,3.31a1.23,1.23,0,0,0-.426,1.623c1.17,2.676,1.235,5.8,1.292,8.672a1.2,1.2,0,0,0,1.785,1.024l5.444-3.8a1.4,1.4,0,0,0,.545-1.34,53.61,53.61,0,0,0-1.952-8.778m-3.524,10.676a23.619,23.619,0,0,0-1.127-6.588l2.858-1.914a63.513,63.513,0,0,1,1.3,6.382l-3.035,2.12" transform="translate(-199.357 -94.73)" fill="#323232"/>
        <path id="パス_576" data-name="パス 576" d="M315.819,223.463a1.2,1.2,0,0,0-1.144-.871h-4.561a1.2,1.2,0,0,0-1.144,1.5l1.624,7.4a1.2,1.2,0,0,0,1.144.871H316.3a1.079,1.079,0,0,0,1.067-.736,1.171,1.171,0,0,0,.076-.766q-.812-3.7-1.624-7.4m-3.128,6.529q-.552-2.514-1.1-5.028h2.135l1.1,5.028Z" transform="translate(-186.773 -135.111)" fill="#323232"/>
        <path id="パス_577" data-name="パス 577" d="M280.734,309.384l-5.776-1.083c-.564-.106-1.367.153-1.459.829-.48,3.495-2.081,6.66-3.43,9.88a1.191,1.191,0,0,0,1.144,1.5l6.137-.494a1.231,1.231,0,0,0,.53-.165,1.2,1.2,0,0,0,.494-.423c2.029-2.984,3.825-5.459,3.188-9.217a1.148,1.148,0,0,0-.828-.828M276.7,317.7l-3.631.292a36.284,36.284,0,0,0,2.537-7.162l3.743.7c.115,2.384-1.308,4.254-2.649,6.168" transform="translate(-163.235 -186.914)" fill="#323232"/>
        <path id="パス_578" data-name="パス 578" d="M47.337,76.44a1.039,1.039,0,0,0-.991-.844,1.317,1.317,0,0,0-.153-.027l-4.264-.33a1.193,1.193,0,0,0-1.144,1.5l.788,2.308c.274.8.4,1.581,1.229,1.97,1.352.634,2.827,1.078,4.222,1.61.889.339,1.654-.654,1.459-1.459l-1.146-4.73m-3.29,2.526-.417-1.222,1.612.125.415,1.711-1.61-.614" transform="translate(-24.627 -46.025)" fill="#323232"/>
      </g>
    </g>
  </g>
</svg>
