<svg xmlns="http://www.w3.org/2000/svg" width="119.917" height="120.998" viewBox="0 0 119.917 120.998">
  <g id="グループ_508" data-name="グループ 508" transform="translate(0 0)">
    <g id="グループ_509" data-name="グループ 509">
      <path id="パス_641" data-name="パス 641" d="M50.524,196.694a44.708,44.708,0,0,1-2.22-8.743c-.343-3.4-2.172-7.454-5.844-8.369a1.271,1.271,0,0,1-.794-.547q-.57.061-1.139.115a10.228,10.228,0,0,1,5.465,7.311c.309,1.769-2.4,2.523-2.707.746a7.712,7.712,0,0,0-6.063-6.323,1.18,1.18,0,0,1-1.557-.273,9.649,9.649,0,0,1-.626-.8c-1.949-2.755-1.842-5.763-2.188-9.1-.082-.8-.226-1.79-1.194-1.952-1.924-.321-1.514,4.116-1.484,5.031.072,2.194.352,4.362.347,6.56,0,0,0,.124,0,.166a1.4,1.4,0,0,1-2.807,0c0-.123,0-.258-.007-.4-1.812-1.028-3.218-4.029-4.2-5.447l-4.558-6.6c.523,2.319,2.235,4.6,3.229,6.57a25.786,25.786,0,0,0,2.662,4.158,93.806,93.806,0,0,0,8.006,8.813c1.407,1.405,3.518,2.813,4.618,4.479,1.149,1.741,1.417,4.507,2,6.505a1.382,1.382,0,0,1,.036.651,26.744,26.744,0,0,0,11.022-2.545" transform="translate(-10.087 -89.431)" fill="#fff"/>
      <path id="パス_642" data-name="パス 642" d="M219.375,69.727a19.433,19.433,0,0,0,3.014-.218,3.287,3.287,0,0,0-2.1-1.2,5.7,5.7,0,0,0-2.394-.055c-1.88.679.626,1.474,1.481,1.477" transform="translate(-115.584 -36.26)" fill="#fff"/>
      <path id="パス_643" data-name="パス 643" d="M64.146,164.851a1.246,1.246,0,0,0,.129-1.759,1.19,1.19,0,0,0-1.4-.04l1.275,1.8" transform="translate(-33.455 -86.653)" fill="#fff"/>
      <path id="パス_644" data-name="パス 644" d="M86.406,178.324a6.037,6.037,0,0,1,.135-.709,3.314,3.314,0,0,0-.161,1.209,3.808,3.808,0,0,1,.027-.5" transform="translate(-45.961 -94.514)" fill="#78c8e6"/>
      <path id="パス_645" data-name="パス 645" d="M69.038,171.99l1.2,1.691a1.4,1.4,0,0,0-1.2-1.691" transform="translate(-36.737 -91.521)" fill="#fff"/>
      <path id="パス_646" data-name="パス 646" d="M87.661,171.174c1.371-2.289,4.724-1.229,7.6.115a7.2,7.2,0,0,0-1.938-1.944,31.763,31.763,0,0,0-3.264-1.775,19.145,19.145,0,0,0-2.4,3.6" transform="translate(-46.647 -89.169)" fill="#fff"/>
      <path id="パス_647" data-name="パス 647" d="M56.133,148.679c-.107-.187-.424-.2-.9-.059a1.92,1.92,0,0,0-1.181.993l1.18,1.664c.65-.845,1.339-1.835.9-2.6" transform="translate(-28.762 -79.035)" fill="#fff"/>
      <path id="パス_648" data-name="パス 648" d="M171.325,189.979c.833-2.33,1.559-4.7,2.253-7.079,2.852-9.766,5.334-20.153,4.935-30.392a27.345,27.345,0,0,0-4.766-14.493,10.876,10.876,0,0,0-6.934-5.089,27.16,27.16,0,0,0-12.392.068,1.486,1.486,0,0,1-1.591-2.132q-.665.045-1.316.144c.088.375.165.756.217,1.146a8.705,8.705,0,0,1-4.489,9.185c-1.62.786-3.042-1.636-1.417-2.424,3.073-1.492,3.551-4.371,2.887-7.193q-.577.21-1.15.474a1.352,1.352,0,0,1-.617,1.459c-5.328,3.446-11.831,4.355-17.325,7.457-6.762,3.819-9.234,10.616-10.015,18-1.117,10.555-2.26,21.07-4.122,31.523h17.97q2.251-11.256,4.5-22.513c.355-1.773,3.06-1.018,2.707.746q-2.176,10.884-4.352,21.766h34.944a1.317,1.317,0,0,1,.07-.654M137.5,161.8a21.026,21.026,0,0,0-9.953-12.877,1.4,1.4,0,0,1,1.417-2.424A23.881,23.881,0,0,1,140.2,161.057a1.4,1.4,0,0,1-2.707.746" transform="translate(-61.452 -69.635)" fill="#c0ebf6"/>
      <path id="パス_649" data-name="パス 649" d="M151.021,79.953q.573-.264,1.149-.474a14.62,14.62,0,0,0-2.088-4.66c-2.344-3.479-5.362-6.373-7.435-10.057a37.985,37.985,0,0,1-4.532-22.817,1.566,1.566,0,0,1,.046-.217q-.241-.083-.482-.154a1.164,1.164,0,0,1-1.012.347,16.09,16.09,0,0,1-12.557-7.907,1.337,1.337,0,0,1-.2-.828,1.5,1.5,0,0,1-1.341-.5c-.214.373-.413.755-.59,1.144a1.556,1.556,0,0,1,1.5,2.141,11.583,11.583,0,0,0-.831,7.784c.617,2.074,1.961,3.779,2.181,5.988a10.541,10.541,0,0,1-1.072,5.394c-.371.813-1.676,2.258-1.687,3.157-.009.749.077.368.656.858.3.255.679.447.992.7a12.165,12.165,0,0,1,3.474,4.778l0,0c.013-.014.076-.092.116-.139s.119-.167.132-.186c.056-.082.111-.165.166-.248.131-.2.262-.4.4-.591a1.442,1.442,0,0,1,1.921-.5,1.411,1.411,0,0,1,.5,1.921c-.381.534-.717,1.093-1.138,1.6a3.7,3.7,0,0,1-1.056.861c.249.711.492,1.427.749,2.137,2.21,6.124,8.309,3.2,12.255.659a1.416,1.416,0,0,1,2.112,1.212q.013,4.572.026,9.144a1.394,1.394,0,0,1-2.055,1.209c-.017.272-.024.537-.027.786a35.786,35.786,0,0,0,7.681-3.5,1.326,1.326,0,0,1,2.034.965M127.38,51.035a1.4,1.4,0,0,1,0-2.807,1.4,1.4,0,0,1,0,2.807m-.253-7.051a.981.981,0,0,0-1.235.335c-.961,1.527-3.389.117-2.424-1.417a3.842,3.842,0,0,1,5.075-1.342c1.6.852.177,3.274-1.417,2.424" transform="translate(-64.911 -17.394)" fill="#fff"/>
      <path id="パス_650" data-name="パス 650" d="M144.364,27.717c-.018.159-.026.316-.042.474a4.181,4.181,0,0,1,1.827-.437,19.123,19.123,0,0,0-10.038-7.162c-1.729-.519-.988-3.228.746-2.707A22.03,22.03,0,0,1,151.526,32.3a1.248,1.248,0,0,1-.063.988,11.713,11.713,0,0,1,.036,3.788,9.507,9.507,0,0,0,1.561,1.145,1.321,1.321,0,0,1,1.814-.435c2.251,1.293,4.652,1.946,7.016.54a14.054,14.054,0,0,0,4.455-5.109,1.389,1.389,0,0,1,2.225-.207,7.6,7.6,0,0,1,4.183-.674,5.951,5.951,0,0,1,5.125,3.373,4.526,4.526,0,0,0,3.072-4.243,3.655,3.655,0,0,0-1.735-3.859c-3.079-1.7-6.966-.066-8.426,2.9-.743,1.507-2.882.384-2.542-1.079a1.41,1.41,0,0,1-.146-.394c-1.072-5.247-2.032-10.864-4.91-15.477-2.734-4.383-7.149-6.614-12.151-7.364a21.727,21.727,0,0,0-22.586,11.559,1.288,1.288,0,0,1,1.523.615,13.156,13.156,0,0,0,10.133,6.517,1.52,1.52,0,0,1,1.012,2.46q.241.072.482.155c.4-1.555,2.954-1.5,2.761.217" transform="translate(-68.353 -3.167)" fill="#d5d5d5"/>
      <path id="パス_651" data-name="パス 651" d="M173.636,69.238a14.82,14.82,0,0,1-2.33-1.093,1.327,1.327,0,0,1-.4-1.989,9.5,9.5,0,0,1-1.561-1.145,10.309,10.309,0,0,1-2.415,5.372c-1.218,1.34-3.2-.651-1.985-1.985a8.126,8.126,0,0,0,1.663-5.9,6.268,6.268,0,0,0-.814-2.932c-.911-1.424-2.671-1.64-3.322.171a1.422,1.422,0,0,1-.48.664,35.376,35.376,0,0,0,8.142,22.052c2.488,3.022,5.218,6.133,6.128,10.013q.651-.1,1.316-.144a1.2,1.2,0,0,1,.844-.575c1.1-.226,2.248-.418,3.411-.563A1.381,1.381,0,0,1,181.2,90.1q-.579-7.443-1.158-14.885c0-.051,0-.1,0-.146a19.161,19.161,0,0,1-5.27,1.319c-1.8.189-1.778-2.62,0-2.807a15.56,15.56,0,0,0,2.439-.461c-1.743-.77-3.389-2.064-3.578-3.88" transform="translate(-86.202 -31.098)" fill="#fff"/>
      <path id="パス_652" data-name="パス 652" d="M198.26,72.447a12.424,12.424,0,0,1-4.875,4.2,8.532,8.532,0,0,1-6.509.04c.189,1.817,1.835,3.11,3.578,3.881,3.561-.97,7.133-3.278,7.573-7.1a1.456,1.456,0,0,1,.345-.8c-.038-.074-.08-.145-.112-.224" transform="translate(-99.442 -38.551)" fill="#d5d5d5"/>
      <path id="パス_653" data-name="パス 653" d="M99.227,159.686c-.223-.226-.462-.438-.706-.648a1.278,1.278,0,0,1-1.892.567q-4.565-2.893-9.3-5.514c-1.791-.995-3.6-1.977-5.465-2.825-.482-.218-4.482-2.036-3.4.353.223.493,1.745,1.119,2.206,1.381.931.528,1.878,1.028,2.827,1.523,1.792.935,3.613,1.819,5.39,2.782a12.858,12.858,0,0,1,5.7,7.245,1.083,1.083,0,0,1,.139.463,1.115,1.115,0,0,1-.374,1.053,1.442,1.442,0,0,1-1.757.4C91.058,165.74,89.534,165,88,164.27c-.727-.348-2.149-1.179-2.818-.592-1.144,1.005,1.166,2.173,1.9,2.657,1.678,1.11,3.031,1.693,4.06,3.51a24.39,24.39,0,0,0,3.706,5.43,1.294,1.294,0,0,1,.182,1.674c.339.11.694.193,1.047.275.37-3.8.768-7.586,1.408-11.327a29.434,29.434,0,0,1,1.74-6.208" transform="translate(-41.654 -80.032)" fill="#fff"/>
      <path id="パス_654" data-name="パス 654" d="M60.439,236.922l1.821,8.4H78.022q-1.6-5.845-3.2-11.691a29.54,29.54,0,0,1-14.383,3.3" transform="translate(-32.161 -124.319)" fill="#c0ebf6"/>
      <path id="パス_655" data-name="パス 655" d="M131.976,65.9a1.4,1.4,0,0,0,0,2.807,1.4,1.4,0,0,0,0-2.807" transform="translate(-69.507 -35.068)" fill="#323232"/>
      <path id="パス_656" data-name="パス 656" d="M139.984,72.642a1.415,1.415,0,0,0-2.112-1.212c-3.946,2.535-10.046,5.464-12.256-.66-.256-.711-.5-1.426-.749-2.137a3.7,3.7,0,0,0,1.056-.861c.421-.507.757-1.065,1.138-1.6a1.41,1.41,0,0,0-.5-1.921,1.442,1.442,0,0,0-1.921.5c-.138.194-.269.393-.4.592-.055.083-.109.166-.166.248-.014.019-.089.125-.132.186s-.1.124-.116.138l0,0a12.167,12.167,0,0,0-3.474-4.778c-.312-.25-.691-.442-.991-.7-.579-.49-.665-.109-.656-.858.011-.9,1.317-2.345,1.688-3.157a10.543,10.543,0,0,0,1.071-5.394c-.22-2.209-1.564-3.914-2.181-5.988a11.577,11.577,0,0,1,.831-7.784,1.556,1.556,0,0,0-1.5-2.141,7.991,7.991,0,0,0-.8,3.274,7.991,7.991,0,0,1,.8-3.274,1.1,1.1,0,0,0-.922.724,16.234,16.234,0,0,0-1.548,7.37c.163,2.857,1.958,4.909,2.475,7.614.649,3.394-1.995,5.315-2.829,8.224-.7,2.457,1.27,3.044,2.845,4.315,3.966,3.2,3.073,9.259,6.934,12.341,3.6,2.87,7.977,1.432,11.623-.594q.009,3.332.019,6.665a1.273,1.273,0,0,0,.752,1.209,5.411,5.411,0,0,1,.438-2.016,5.411,5.411,0,0,0-.438,2.016,1.394,1.394,0,0,0,2.055-1.209q-.013-4.572-.026-9.144" transform="translate(-61.533 -18.69)" fill="#323232"/>
      <path id="パス_657" data-name="パス 657" d="M94.733,153.895c-3.732-2.365-7.551-4.619-11.455-6.686-2.528-1.339-7.632-4.813-10.215-1.774-3.587,4.221,3.306,7,6.114,8.439-1.923,2.42-4.218,6.175-2.9,8.873,1.2,2.452,5.017,4.232,7.613,4.3a1.355,1.355,0,0,0,.653-.14,13.3,13.3,0,0,1,1.85,2.883,21.589,21.589,0,0,0,3.16,4.185,1.359,1.359,0,0,0,2.167-.312,2.786,2.786,0,0,1-1.783-1.407,2.786,2.786,0,0,0,1.783,1.407,1.294,1.294,0,0,0-.182-1.674,24.369,24.369,0,0,1-3.706-5.43c-1.029-1.817-2.382-2.4-4.06-3.509-.731-.484-3.041-1.651-1.9-2.657.668-.588,2.091.245,2.818.592,1.529.731,3.054,1.471,4.587,2.193a1.441,1.441,0,0,0,1.757-.4,1.115,1.115,0,0,0,.373-1.053,1.07,1.07,0,0,0-.139-.462,12.854,12.854,0,0,0-5.7-7.245c-1.777-.963-3.6-1.848-5.39-2.782-.949-.495-1.9-.995-2.827-1.522-.461-.262-1.983-.888-2.206-1.381-1.081-2.388,2.92-.572,3.4-.353,1.866.848,3.674,1.83,5.465,2.825q4.724,2.623,9.3,5.514a1.278,1.278,0,0,0,1.892-.567,4.894,4.894,0,0,1-2-2.682,4.894,4.894,0,0,0,2,2.682,1.373,1.373,0,0,0-.475-1.857m-12.981,1.252a31.761,31.761,0,0,1,3.264,1.775,7.187,7.187,0,0,1,1.938,1.944c-2.876-1.344-6.229-2.4-7.6-.115a19.145,19.145,0,0,1,2.4-3.6" transform="translate(-38.341 -76.745)" fill="#323232"/>
      <path id="パス_658" data-name="パス 658" d="M142.3,131.384a35.807,35.807,0,0,1-7.681,3.5c0,.167,0,.328,0,.474,0-.146,0-.307,0-.474-3.676,1.295-7.423,2.441-10.685,4.593a21.312,21.312,0,0,0-8.137,9.972,3.536,3.536,0,0,1,1.041,1.817,3.536,3.536,0,0,0-1.041-1.817,29.443,29.443,0,0,0-1.74,6.208c-.64,3.742-1.038,7.531-1.408,11.327a5.564,5.564,0,0,1,1.849.657,5.564,5.564,0,0,0-1.849-.657c-.393,4.043-.755,8.093-1.34,12.1-.57,3.911-1.184,7.819-1.89,11.708h2.836c1.862-10.453,3.006-20.968,4.122-31.523.781-7.384,3.253-14.181,10.015-18,5.494-3.1,12-4.011,17.325-7.457a1.353,1.353,0,0,0,.617-1.459q-.649.3-1.3.666.647-.369,1.3-.666a1.326,1.326,0,0,0-2.034-.965" transform="translate(-58.226 -69.791)" fill="#323232"/>
      <path id="パス_659" data-name="パス 659" d="M161.1,210.092c.353-1.764-2.352-2.519-2.707-.746q-2.25,11.256-4.5,22.513h2.856l4.352-21.766" transform="translate(-81.89 -110.861)" fill="#323232"/>
      <path id="パス_660" data-name="パス 660" d="M153.143,178.622A23.881,23.881,0,0,0,141.9,164.068a1.4,1.4,0,0,0-1.417,2.424,21.022,21.022,0,0,1,9.953,12.877,1.405,1.405,0,0,0,2.708-.746" transform="translate(-74.391 -87.2)" fill="#323232"/>
      <path id="パス_661" data-name="パス 661" d="M19.6,135.145c-.5-.391-2.084.087-2.593.144l-5.556.631-4.971.565c-.142.016-.989.019-1.047.119.041-.069.336.3.622.69l13.881-1.675-.336-.474" transform="translate(-2.89 -71.833)" fill="#fff"/>
      <path id="パス_662" data-name="パス 662" d="M62.856,184.08l-6.674.861c.044.127.092.255.145.38l.5-.059,5.256-.623c1.138-.135,1.183-.1.778-.56" transform="translate(-29.896 -97.954)" fill="#fff"/>
      <path id="パス_663" data-name="パス 663" d="M27.671,152.053a4.316,4.316,0,0,1,3.48,4.012c.17,1.236.176,2.468.27,3.668l5.292-.683L24.525,141.857l-13.912,1.679,3.038,4.4,6.927,10.033,2.316,3.353c-.305-4.7-.052-10.19,4.777-9.269" transform="translate(-5.647 -75.486)" fill="#c0ebf6"/>
      <path id="パス_664" data-name="パス 664" d="M44.908,175.6a1.412,1.412,0,0,0-1.925-.9c-.423-1.373-.837-2.749-1.23-4.131-.672-2.372-.54-4.97-1.424-7.258a12.735,12.735,0,0,0-5.011-6.222c.775-.91.626-2.251-.007-3.514a4.5,4.5,0,0,0-1.485-6.819,3.662,3.662,0,0,0-.776-3.319,3.776,3.776,0,0,0-4.246-1.051,9.02,9.02,0,0,0,1.341-2.314,3.8,3.8,0,0,0-1.218-4.107c-1.671-1.205-3.952-.451-5.325.951l-2.85-4.021-1.779-2.509a1.478,1.478,0,0,0-.242-.316c-1.331-1.3-2.789-.914-4.445-.726l-7.7.876a37.366,37.366,0,0,0-4.491.518c-3.2.774-2.1,3.75-.8,5.63l5.108,7.4a1.257,1.257,0,0,0-.32.661c-.457,2.574.339,4.775,1.532,7.039,1.046,1.985,2.021,4.074,3.245,5.957a64.863,64.863,0,0,0,7.931,9.419c1.909,1.978,3.946,4.577,6.244,6.141a9.522,9.522,0,0,0,.586,1.98l1,3.444-.1-.007a1.417,1.417,0,0,0-1.354,1.777q1.035,4.768,2.069,9.537H30.1q-.911-4.2-1.821-8.4a29.54,29.54,0,0,0,14.383-3.3q1.6,5.845,3.2,11.691h2.911L44.908,175.6M33.5,150.883l-1.2-1.691a1.4,1.4,0,0,1,1.2,1.691m-1.318,4.525-5.256.624-.5.058q-.079-.189-.145-.38l6.674-.861c.4.455.36.425-.778.56M30.82,145.162a1.245,1.245,0,0,1-.129,1.759l-1.276-1.8a1.191,1.191,0,0,1,1.4.041m-4.35-6.854c.478-.138.8-.128.9.058.436.764-.253,1.754-.9,2.6l-1.18-1.665a1.922,1.922,0,0,1,1.181-.993M2.541,133.494c.058-.1.905-.1,1.047-.119l4.971-.565,5.556-.631c.51-.058,2.1-.535,2.593-.144l.336.473L3.163,134.183c-.286-.388-.581-.759-.622-.69m2.425,3.279,13.912-1.679,12.189,17.192-5.292.683c-.094-1.2-.1-2.432-.27-3.667a4.315,4.315,0,0,0-3.48-4.012c-4.829-.921-5.082,4.573-4.777,9.269l-2.315-3.354L8,141.174l-3.038-4.4m24.45,41.758a1.387,1.387,0,0,0-.036-.651c-.578-2-.845-4.765-2-6.506-1.1-1.666-3.21-3.074-4.617-4.479a93.738,93.738,0,0,1-8.006-8.813,25.786,25.786,0,0,1-2.662-4.158c-.994-1.965-2.707-4.251-3.229-6.57l4.557,6.6c.979,1.418,2.385,4.42,4.2,5.447,0,.142.007.277.006.4a1.4,1.4,0,0,0,2.807,0c0-.042,0-.166,0-.166,0-2.2-.275-4.366-.347-6.56-.03-.915-.44-5.352,1.484-5.03.968.161,1.112,1.154,1.194,1.951.345,3.342.238,6.349,2.187,9.1a9.56,9.56,0,0,0,.626.8,1.18,1.18,0,0,0,1.557.272A7.713,7.713,0,0,1,33.2,166.5c.31,1.776,3.015,1.023,2.707-.746a10.227,10.227,0,0,0-5.464-7.311q.569-.054,1.138-.115a1.272,1.272,0,0,0,.794.547c3.671.915,5.5,4.974,5.844,8.369a44.735,44.735,0,0,0,2.22,8.743,26.748,26.748,0,0,1-11.022,2.545" transform="translate(0 -68.723)" fill="#323232"/>
      <path id="パス_665" data-name="パス 665" d="M129.979,51.129A3.841,3.841,0,0,0,124.9,52.47c-.965,1.534,1.463,2.944,2.424,1.417a.981.981,0,0,1,1.235-.335c1.594.85,3.013-1.573,1.417-2.424" transform="translate(-66.346 -26.963)" fill="#323232"/>
      <path id="パス_666" data-name="パス 666" d="M19.665,54.461l1.451,3.89c.459,1.233.85,2.927,2.5,2.927s2.038-1.694,2.5-2.927l1.448-3.884A19.443,19.443,0,0,0,42.795,35.714a19.4,19.4,0,0,0-22.75-18.845C8.234,19.031,1.307,32.08,5.92,43.1A19.366,19.366,0,0,0,19.665,54.461M20.173,19.7C30.355,17.466,39.8,25.5,39.988,35.714a16.638,16.638,0,0,1-5.129,11.9,16.266,16.266,0,0,1-5.066,3.274c-1.485.6-3.82.519-4.626,1.99a17.454,17.454,0,0,0-.846,2.269c-.159.425-.49,1.047-.786,1.684-.422-1.138-.839-2.279-1.273-3.412a2.139,2.139,0,0,0-1.811-1.638,18.381,18.381,0,0,1-5.968-2.475A16.377,16.377,0,0,1,20.173,19.7" transform="translate(-2.383 -8.807)" fill="#323232"/>
      <path id="パス_667" data-name="パス 667" d="M23.309,22.853a16.377,16.377,0,0,0-5.69,29.608,18.392,18.392,0,0,0,5.968,2.475A2.138,2.138,0,0,1,25.4,56.574c.434,1.133.851,2.274,1.273,3.412.3-.638.627-1.259.786-1.684a17.454,17.454,0,0,1,.846-2.269c.807-1.471,3.141-1.392,4.626-1.99a16.259,16.259,0,0,0,5.065-3.274,16.636,16.636,0,0,0,5.129-11.9c-.184-10.21-9.633-18.247-19.815-16.014" transform="translate(-5.519 -11.961)" fill="#fff"/>
      <path id="パス_668" data-name="パス 668" d="M179.517,139.075c-1.625.789-.2,3.21,1.417,2.424a8.7,8.7,0,0,0,4.49-9.185c-.052-.39-.129-.77-.217-1.146a14.637,14.637,0,0,0-2.8.714c.665,2.822.186,5.7-2.886,7.193" transform="translate(-95.144 -69.798)" fill="#323232"/>
      <path id="パス_669" data-name="パス 669" d="M159.88,68.022a35.377,35.377,0,0,1-8.142-22.052,1.419,1.419,0,0,0,.48-.664c.652-1.811,2.411-1.595,3.322-.171a6.268,6.268,0,0,1,.814,2.932,8.125,8.125,0,0,1-1.663,5.9c-1.213,1.334.767,3.325,1.985,1.985a10.307,10.307,0,0,0,2.414-5.373c-.233-.206-.457-.418-.67-.631.213.213.438.425.67.631a11.7,11.7,0,0,0-.036-3.788,1.245,1.245,0,0,0,.063-.988A22.027,22.027,0,0,0,144.45,31.383c-1.734-.521-2.475,2.187-.746,2.707a19.126,19.126,0,0,1,10.038,7.162,4.181,4.181,0,0,0-1.827.437c.016-.158.024-.316.042-.474.193-1.715-2.363-1.771-2.761-.217a11.782,11.782,0,0,0,3.611.994A11.782,11.782,0,0,1,149.2,41a1.611,1.611,0,0,0-.046.217,37.988,37.988,0,0,0,4.533,22.817c2.073,3.684,5.091,6.578,7.435,10.057a14.625,14.625,0,0,1,2.088,4.66,14.622,14.622,0,0,1,2.8-.714c-.91-3.88-3.64-6.991-6.128-10.013" transform="translate(-75.945 -16.664)" fill="#323232"/>
      <path id="パス_670" data-name="パス 670" d="M184.858,80.712a29.66,29.66,0,0,0-5.887-15c-3.815-5.137-10.174-6.261-16.3-5.81a1.213,1.213,0,0,0,.259-.9q-.579-7.443-1.157-14.885a1.39,1.39,0,0,0-.759-1.165,10.8,10.8,0,0,0,5.346-7.073,11.43,11.43,0,0,0,4.042.324c.5-.037,1.026-.085,1.558-.15a9.477,9.477,0,0,1-2.627,3.435c-1.408,1.132.59,3.107,1.985,1.985a8.911,8.911,0,0,0,3.7-6.039A7.56,7.56,0,0,0,179.15,32.7c1.628-2.323,2.063-6.241.461-8.679-2.8-4.254-8.841-3.674-12.392-.684-1.1-5.4-2.351-11.022-5.614-15.521-3.3-4.547-8.242-6.839-13.712-7.585a24.46,24.46,0,0,0-25.345,13.452,1.408,1.408,0,0,0,.244,1.615,20.916,20.916,0,0,1,1.42-2.131,20.916,20.916,0,0,0-1.42,2.131,1.5,1.5,0,0,0,1.341.5,1.337,1.337,0,0,0,.2.828,16.09,16.09,0,0,0,12.557,7.907,1.163,1.163,0,0,0,1.012-.347,5.383,5.383,0,0,0-1.522-.255,5.383,5.383,0,0,1,1.522.255,1.521,1.521,0,0,0-1.012-2.46A13.153,13.153,0,0,1,126.754,15.2a1.287,1.287,0,0,0-1.523-.615A21.726,21.726,0,0,1,147.817,3.029c5,.75,9.417,2.981,12.151,7.364,2.877,4.613,3.837,10.231,4.91,15.478a1.409,1.409,0,0,0,.146.394c-.34,1.463,1.8,2.586,2.542,1.079,1.461-2.964,5.348-4.6,8.426-2.9a3.654,3.654,0,0,1,1.735,3.859,4.525,4.525,0,0,1-3.072,4.242,5.95,5.95,0,0,0-5.125-3.373,7.6,7.6,0,0,0-4.183.673,1.389,1.389,0,0,0-2.225.208,14.054,14.054,0,0,1-4.455,5.108c-2.364,1.406-4.765.753-7.016-.54a1.321,1.321,0,0,0-1.814.435,3.93,3.93,0,0,0,2.915.563,3.93,3.93,0,0,1-2.915-.563,1.327,1.327,0,0,0,.4,1.989,14.919,14.919,0,0,0,2.33,1.093,3.732,3.732,0,0,1,.188-1.584,3.732,3.732,0,0,0-.188,1.584,8.537,8.537,0,0,0,6.509-.04,12.423,12.423,0,0,0,4.876-4.2c.032.079.073.15.111.224a1.46,1.46,0,0,0-.345.8c-.439,3.82-4.011,6.128-7.572,7.1.117.052.235.1.353.15.468.468-.936,1.4-.468,2.339-.468-.936.936-1.871.468-2.339-.118-.047-.235-.1-.353-.15a15.549,15.549,0,0,1-2.439.461c-1.778.188-1.8,3,0,2.807a19.139,19.139,0,0,0,5.27-1.319c0,.049-.007.094,0,.146q.578,7.443,1.157,14.885a1.382,1.382,0,0,0,.636,1.087c-1.163.145-2.307.338-3.411.563a1.2,1.2,0,0,0-.844.575,19.426,19.426,0,0,1,3.73.128,19.426,19.426,0,0,0-3.73-.128,1.486,1.486,0,0,0,1.591,2.132,27.173,27.173,0,0,1,12.392-.068,10.878,10.878,0,0,1,6.934,5.09,27.345,27.345,0,0,1,4.766,14.493c.4,10.239-2.082,20.626-4.935,30.392-.694,2.375-1.419,4.748-2.253,7.079a1.343,1.343,0,0,0-.081.526h2.864a139.16,139.16,0,0,0,5.88-22.472,66.953,66.953,0,0,0,1.192-17.686M167.441,31.991a5.685,5.685,0,0,1,2.394.055,3.287,3.287,0,0,1,2.1,1.2,19.432,19.432,0,0,1-3.014.218c-.854,0-3.361-.8-1.481-1.477" transform="translate(-65.13 0)" fill="#323232"/>
      <path id="パス_671" data-name="パス 671" d="M36,46.407s-1.95-5.141-6.146-3.723-1.987,11.347,6.867,16.43c0,0,8.085-5.024,8.381-10.815s-6.324-8.687-9.1-1.891" transform="translate(-14.796 -22.582)" fill="#c0ebf6"/>
    </g>
  </g>
</svg>
