<svg id="页面-1" xmlns="http://www.w3.org/2000/svg" width="23.838" height="23.838" viewBox="0 0 23.838 23.838">
  <g id="Business" transform="translate(0 0)">
    <g id="calendar_line">
      <path id="形状" d="M20.216,3a1.325,1.325,0,0,1,1.315,1.17l.009.154V5.649h2.649A2.649,2.649,0,0,1,26.831,8.1l.007.2V24.189a2.649,2.649,0,0,1-2.451,2.641l-.2.007H5.649a2.649,2.649,0,0,1-2.641-2.451L3,24.189V8.3A2.649,2.649,0,0,1,5.451,5.656l.2-.007H8.3V4.324a1.324,1.324,0,0,1,2.64-.154l.009.154V5.649h7.946V4.324A1.324,1.324,0,0,1,20.216,3Zm3.973,11.919H5.649v9.27H24.189Zm0-6.622H5.649V12.27H24.189Z" transform="translate(-3 -3)" fill="#333"/>
    </g>
  </g>
</svg>
