<svg id="页面-1" xmlns="http://www.w3.org/2000/svg" width="26.486" height="23.838" viewBox="0 0 26.486 23.838">
  <g id="Business" transform="translate(0 0)">
    <g id="briefcase_line">
      <path id="形状" d="M17.892,3a3.973,3.973,0,0,1,3.973,3.973h3.973a2.649,2.649,0,0,1,2.649,2.649V24.189a2.649,2.649,0,0,1-2.649,2.649H4.649A2.649,2.649,0,0,1,2,24.189V9.622A2.649,2.649,0,0,1,4.649,6.973H8.622A3.973,3.973,0,0,1,12.595,3ZM13.919,14.919H4.649v9.27H25.838v-9.27h-9.27v1.324a1.324,1.324,0,0,1-2.64.154l-.009-.154Zm11.919-5.3H4.649V12.27H25.838ZM17.892,5.649h-5.3a1.325,1.325,0,0,0-1.315,1.17l-.009.154h7.946a1.324,1.324,0,0,0-1.17-1.315Z" transform="translate(-2 -3)" fill="#333"/>
    </g>
  </g>
</svg>
