<svg id="页面-1" xmlns="http://www.w3.org/2000/svg" width="26.486" height="22.514" viewBox="0 0 26.486 22.514">
  <g id="User" transform="translate(0 0)">
    <g id="group_line">
      <path id="形状" d="M16.568,16.243a5.3,5.3,0,0,1,5.3,5.3v2.649a1.324,1.324,0,0,1-2.649,0V21.541a2.649,2.649,0,0,0-2.649-2.649H7.3a2.649,2.649,0,0,0-2.649,2.649v2.649a1.324,1.324,0,0,1-2.649,0V21.541a5.3,5.3,0,0,1,5.3-5.3Zm7.946,0a3.973,3.973,0,0,1,3.973,3.973v2.649a1.324,1.324,0,0,1-2.649,0V20.216a1.324,1.324,0,0,0-1.324-1.324H22.638a6.647,6.647,0,0,0-2.1-2.649ZM11.932,3A5.959,5.959,0,1,1,5.973,8.959,5.959,5.959,0,0,1,11.932,3ZM23.189,6.973a3.973,3.973,0,1,1-3.973,3.973A3.973,3.973,0,0,1,23.189,6.973ZM11.932,5.649a3.311,3.311,0,1,0,3.311,3.311A3.311,3.311,0,0,0,11.932,5.649ZM23.189,9.622a1.324,1.324,0,1,0,1.324,1.324A1.324,1.324,0,0,0,23.189,9.622Z" transform="translate(-2 -3)" fill="#333" fill-rule="evenodd"/>
    </g>
  </g>
</svg>
