<svg xmlns="http://www.w3.org/2000/svg" width="26.486" height="26.486" viewBox="0 0 26.486 26.486">
  <g id="Business" transform="translate(0 0)">
    <g id="currency_cny_line">
      <path id="形状" d="M15.243,2A13.243,13.243,0,1,1,2,15.243,13.243,13.243,0,0,1,15.243,2Zm0,2.649A10.595,10.595,0,1,0,25.838,15.243,10.595,10.595,0,0,0,15.243,4.649Zm4.533,4.535a1.324,1.324,0,0,1,.278,1.852l-2.13,2.883h1.292a1.324,1.324,0,0,1,0,2.649H16.568v1.324h2.649a1.324,1.324,0,0,1,0,2.649H16.568v1.324a1.324,1.324,0,0,1-2.649,0V20.541H11.27a1.324,1.324,0,1,1,0-2.649h2.649V16.568H11.27a1.324,1.324,0,1,1,0-2.649h1.292l-2.13-2.883a1.324,1.324,0,0,1,2.13-1.574l2.681,3.628,2.681-3.628A1.324,1.324,0,0,1,19.776,9.184Z" transform="translate(-2 -2)" fill="#333"/>
    </g>
  </g>
</svg>
